<svg id="Layer_1" data-name="Layer 1" xmlns="http://www.w3.org/2000/svg" viewBox="0 0 172.88 247.3"><defs><style>.cls-1{fill:#df4837}.cls-2{fill:#bf3025}.cls-3{fill:#f5b400}.cls-4{fill:#fbcb43}.cls-5{fill:#fff}</style></defs><title>icons</title><path class="cls-1" d="M67.17 247.3l-19.41-20.77-27.22 8.2 25.14-93.26 46.63 12.57-25.14 93.26z"/><path class="cls-1" d="M105.71 247.3l19.41-20.77 27.22 8.2-25.14-93.26-46.63 12.57 25.14 93.26z"/><path class="cls-2" d="M38.76 167.14l43.23 25.2 12.08-37.37-50.18-4.02-5.13 16.19z"/><path class="cls-2" d="M91.44 194.38l56.36 23.51-18.05-66.94-44.38 17.4 6.07 26.03z"/><path class="cls-3" d="M125.29 159.12a11.05 11.05 0 0 1-18.29 7.19 11.05 11.05 0 0 0-16.77 2.53 11.05 11.05 0 0 1-19.64-1.47 11.05 11.05 0 0 0-16.21-5 11.05 11.05 0 0 1-17.05-9.85A11.05 11.05 0 0 0 24.85 141a11.05 11.05 0 0 1-11.09-16.27 11.05 11.05 0 0 0-6.2-15.79 11.05 11.05 0 0 1-2.94-19.49 11.05 11.05 0 0 0 1.27-16.91 11.05 11.05 0 0 1 5.8-18.82A11.05 11.05 0 0 0 20.18 39a11.05 11.05 0 0 1 13.39-14.41 11.05 11.05 0 0 0 14-9.56 11.05 11.05 0 0 1 18.35-7.19 11.05 11.05 0 0 0 16.77-2.53 11.05 11.05 0 0 1 19.64 1.47 11.05 11.05 0 0 0 16.21 5 11.05 11.05 0 0 1 17.05 9.85A11.05 11.05 0 0 0 148 33.17a11.05 11.05 0 0 1 11.09 16.27 11.05 11.05 0 0 0 6.2 15.79 11.05 11.05 0 0 1 2.94 19.47 11.05 11.05 0 0 0-1.23 16.92 11.05 11.05 0 0 1-5.8 18.82 11.05 11.05 0 0 0-8.48 14.69 11.05 11.05 0 0 1-13.39 14.44 11.05 11.05 0 0 0-14.04 9.55z"/><circle class="cls-4" cx="86.44" cy="87.08" r="57.85"/><path class="cls-5" d="M66.42 72.07q1.35-.64 2.63-1.28a26 26 0 0 0 2.6-1.51 25 25 0 0 0 2.79-2.18 30.78 30.78 0 0 0 3.21-3.43h11.44V100h6v8.54H69.37V100h6.42V76.19l-6.42 3z"/><path class="cls-5" d="M100.61 91a10.57 10.57 0 0 1-3.36-.53 8.68 8.68 0 0 1-2.85-1.58 7.63 7.63 0 0 1-2-2.66 8.75 8.75 0 0 1-.75-3.75 8.13 8.13 0 0 1 .75-3.58 7.71 7.71 0 0 1 2-2.61 8.86 8.86 0 0 1 2.82-1.6 9.76 9.76 0 0 1 3.26-.56 10.27 10.27 0 0 1 3.55.6 8.18 8.18 0 0 1 2.81 1.71 8 8 0 0 1 1.86 2.72 9.18 9.18 0 0 1 .68 3.62 8.61 8.61 0 0 1-.68 3.51 7.39 7.39 0 0 1-1.88 2.59 8.23 8.23 0 0 1-2.82 1.55 10.74 10.74 0 0 1-3.39.57zm0-4.11a1.76 1.76 0 0 0 1.63-1.24 7.41 7.41 0 0 0 .55-3 7 7 0 0 0-.6-3 1.87 1.87 0 0 0-1.71-1.24 1.83 1.83 0 0 0-1.6 1.2 6.49 6.49 0 0 0-.62 3 6.38 6.38 0 0 0 .68 3.17 2 2 0 0 0 1.67 1.07z"/></svg>