<svg id="Camada_1" xmlns="http://www.w3.org/2000/svg" viewBox="0 0 383.1 167.7"><style>.st0{fill:#9a211f}.st1{fill:#d23d3b}.st2{fill:#fff}.st3{opacity:.15;fill:#3b5a7a}.st4{fill:#88cac4}.st5{fill:none;stroke:#88cac4;stroke-width:.3413;stroke-miterlimit:10}.st6{fill:#df4837}.st7{fill:#a0221f}.st8{fill:#8f1714}.st9{fill:#b73939}.st10{fill:#ff9494}.st11{fill:#ea7567}.st12{opacity:.3;fill:#d23d3b}.st13{fill:#e47100}.st14{fill:#fc861d}.st15{fill:#bf5b00}.st16,.st17{stroke-miterlimit:10}.st16{fill:#bf5b00;stroke:#e47100;stroke-width:.319}.st17{stroke:#fc861d;stroke-width:.2142}.st17,.st18{fill:#a55207}.st19{opacity:.3;fill:#e47100}.st20,.st21{stroke-miterlimit:10}.st20{stroke:#fc861d;fill:none;stroke-width:1.5985}.st21{fill:#bf5b00;stroke-width:.7399}.st21,.st22{stroke:#e47100}.st22,.st23,.st24{stroke-width:.7399;stroke-miterlimit:10}.st22,.st23{fill:#e47100}.st23{stroke:#bf5b00}.st24{fill:#a55207;stroke:#fc861d}.st25{fill:#bf5b00;stroke-width:.5703}.st25,.st26{stroke:#e47100;stroke-miterlimit:10}.st26,.st27{stroke-width:.5703}.st27,.st28,.st29,.st30{stroke-miterlimit:10}.st26,.st27{fill:#e47100}.st27{stroke:#bf5b00}.st28{fill:#a55207;stroke:#fc861d;stroke-width:.3829}.st29,.st30{fill:none;stroke:#e47100;stroke-width:1.5985}.st30{stroke:#bf5b00}.st31{fill:#9cc93a}.st32{fill:#34b577}.st33{fill:none;stroke:#000;stroke-width:4.8231}.st34{fill:#bf3025}.st35{fill:#829dab}.st36{fill:#3b5a7a}.st37{fill:#284159}.st38{fill:#184d45}.st39{fill:#fef3e7}.st40{opacity:.3;fill:#3b5a7a}.st41{fill:#e9f2ff}.st42{fill:#2f4961}</style><path class="st0" d="M211.6 89.1h-5.2l-2.7 15.8h9.8z"/><path class="st1" d="M305.1 29.8s.2-.7 2.5.3c2.2 1 3 .9 3.7.6l-1.4.9 1 .8s-1.5.4-3.1-.6-2.7-.5-2.7-.5 1.3-.6 0-1.5z"/><path transform="rotate(-180 304.387 32.333)" class="st0" d="M304 29.5h.7v5.7h-.7z"/><path transform="rotate(-180 304.18 35.746)" class="st1" d="M302.8 35.2h2.7v1.1h-2.7z"/><path transform="rotate(-180 304.03 37.781)" class="st1" d="M300.5 36.1h7.1v3.3h-7.1z"/><path class="st1" d="M297 88.7h12.3v-3.9h-12.1z"/><path class="st2" d="M297.2 84.8h12.1v-8.2l-.5-.2v-2.3h-10.7v2.3l-.5.2z"/><path class="st1" d="M298.1 74.1h10.7l-.1-6h-10.3z"/><path class="st2" d="M298.4 68.1h10.3v-3h-10.2z"/><path class="st1" d="M298.5 65.1h10.2v-5.9h-10z"/><path class="st2" d="M298.7 59.2h10l-.1-3h-9.8z"/><path class="st1" d="M298.8 56.2h9.8v-6H299z"/><path class="st2" d="M299 50.2h9.6v-2.6h-9.5z"/><path class="st1" d="M297.2 43.7l.5 1.5 1.7.9.2 1.5h9l.2-1.5 1.7-.9.5-1.5h-6.9z"/><path transform="rotate(-180 303.865 41.604)" class="st2" d="M295.7 39.6h16.4v4.1h-16.4z"/><path class="st1" d="M302.9 55.1h1.2v-1.8c0-.3-.3-.6-.6-.6s-.6.3-.6.6v1.8zm-.4 12.3h1.2v-1.8c0-.3-.3-.6-.6-.6s-.6.3-.6.6v1.8z"/><path transform="rotate(-180 302.874 83.034)" class="st0" d="M300.8 77.4h4.1v11.3h-4.1z"/><path class="st0" d="M340.3 88.1l-.8 8.4h8l-.7-8.4zm-11.9 1.8l-2.8 15.5h7.2l-1.9-15.5zm-10.4-.6h-3.1l-2.1 16.5h6.5zm-7.2-.6h-15.4l-2.4 16.4h18.9zm-56.1.3h-4.3l-2.6 15.4h9.8zm23.1 0h-3.5l-1.6 15h6.5z"/><circle class="st1" cx="301.9" cy="82.3" r=".4"/><path class="st1" d="M314.3 109.6l-1.4-17.5h-11.1l-1.2 17.5z"/><path class="st3" d="M301.7 36.1l3.2 52.6 2.1 3.4 3.8 17.5h3.5l-1.4-17.5-1.8.2-.3-3.6h-1.5l-.7-41.1.2-1.5 1.7-.9.5-1.5h1.1v-4.1l-4.5-.2v-3.3z"/><path class="st4" d="M113.4 39c1.2 1.8 1.8 2.2 3 3.4 1.2 1.2 1.6 1.5 1.6 1.6 0 .2.2-1.9-.4-2.6-.5-.7-1-1-1-1s-3.5-1.8-3.2-1.4zm-10.3 30.7s-.9-3.7-3.9-8.4c-2.5 5.1 0 11.6 0 11.6s1.7 10.8 5.7 11.6c4 .9 12.1 2.7 12.6-4.1s3.5-24.2-1.6-25.9c-.8-.3-1-.9-.8-1.8l.1-.9s-9.4 1.8-9.6 6.2 3.1 9.3 3.6 14.8-2 8.1-4.8 5.1.5-6.8 4.6-6.5c-.6-2.3-.9-3.3-.9-3.3s-2.7.3-5 1.6z"/><path class="st4" d="M118.1 45.1c.4 2.3-.9 2.8-.9 2.8s-2 1.5-5 3.1-4.9 1.8-4.9 1.8c-.8-.9-.7-4.6-.8-7.1-.1-2.5 0-5.1 2-6.2.2-1.6 1.5-.9 1.7-2.5.2-1.7-.5-3.9 2.5-4 3-.1 2.2 3.8 2.3 4.7.1.9 2.3 2 2.1 2.7 1.6 1 1.1 4 1.1 4s.2.3-.1.7z"/><path class="st4" d="M109.4 46.6c-1.1-.4.8 2.3 2 2.3s4.7-1.5 4.7-1.5l.5-1.8s-1.2.9-2.3.6-2.3-1-2.3-1-1.6 1.7-2.6 1.4zm7.6 4.6c-.8 1.8-8.2 2.8-8.8 4.1-.7 1.4-2.6 2.8-2.6 2.8v-1.3c0-2.6.9-2.8 1.7-4 0 0 2-.2 4.9-1.8 3-1.6 5-3.1 5-3.1.1.1.6 1.5-.2 3.3zm-8.5-11.8c.2.1.5.1.7 0 .2 0 .4-.1.6-.2.4-.2.7-.5.9-.9.1-.2.1-.4 0-.6 0-.2-.1-.4-.1-.7-.1-.4-.2-.9-.2-1.4v-.1h.1c.4-.1.7-.4 1.1-.7.2-.1.3-.3.5-.5.1-.1.1-.2.2-.2 0 0 0-.1.1-.1 0 0 0-.1 0 0l.3-.1c.2.4.4.7.7 1l.4.4c.2.1.3.2.5.2h.2v.2c-.2.5-.3 1.1-.5 1.6-.1.5 0 1.1.3 1.5.3.4.8.8 1.3 1.1.5.3 1 .5 1.6.5-.6.1-1.1-.1-1.6-.4-.3-.1-.5-.3-.7-.5-.2-.2-.5-.3-.6-.6-.4-.5-.5-1.1-.4-1.7.1-.6.3-1.1.4-1.6l.1.2c-.2 0-.4-.1-.6-.3-.2-.1-.4-.3-.5-.4-.3-.3-.5-.7-.7-1.1l.3-.1v.3c0 .1-.1.1-.1.2-.1.1-.1.2-.2.3l-.5.5c-.2.1-.4.3-.6.4-.2.1-.4.3-.7.3l.1-.1c0 .4.1.9.2 1.3 0 .2.1.5.1.7 0 .2 0 .5-.1.7-.2.5-.6.7-1 .9-.2.1-.4.2-.7.2-.5-.1-.7-.1-.9-.2z"/><path class="st5" d="M114.4 40.6s1.3 2.3 2 2.9c1.7 1.6-2.2 4.5-4.2 1.6-2 2.8-5.9 0-4.2-1.6.7-.7 2-2.9 2-2.9"/><circle class="st4" cx="108.9" cy="44.1" r=".4"/><circle class="st4" cx="115.7" cy="44.1" r=".4"/><path class="st4" d="M118.2 44.3c-.6.3-1.1.7-1.4 1.2-.3.6-.4 1.2-.6 1.8v.1h-.1c-2.4.9-4.7 1.7-7.1 2.4l-.2.1v-.2c-.1-1.2-.2-2.4-.2-3.6-.4-.2-.6-.6-.8-1 .2.4.5.7.9.9.2 1.2.3 2.4.4 3.5l-.2-.1c2.4-.8 4.7-1.6 7.1-2.4l-.1.1c.2-.6.3-1.2.7-1.8.4-.4 1-.8 1.6-1zM115 56.1l-3.1 4.4-2.7-3.8c.2.2 1.5 1.7 2.6 1.6 1.2-.1 3.1-2 3.2-2.2zm.7.8c.1 3.4-1.5 7.5-1.6 9.8-.2 2.3 2 9.8 1.7 13.5-.3 3.7-.8 3.8-1.9 4.1-1.1.3 1 1.1 2.4-1.4 1.4-2.6 1.9-16.3 1.9-17.1.1-.8-.2-7.7-1.2-9.2-1.2-1.3-1.3.3-1.3.3zM103 76.7c.5 1.7-1.7-2.7-.9-3.8.8-1.1 4-3.3 5-3.4 1-.1 1.2-.1 1.2-.1l.4 2s-3.6 0-4.5 1.3-1.5 2.8-1.2 4zm-3.5-14.1s2.7 4.7 3.1 7.1c-1.4 1.2-1.4 1.6-1.6 1.9-.1.3-.2-2.9-1.5-9zm10.7-3.7c-.6 1.7-.7 3.6-1.7 3.3s3 2.7 4.6 7c0-2.1-.8-6.5-1.4-7.6-.6-1.1-1.5-2.7-1.5-2.7zm-3.9-1.9c.7-1 .5-2.4 1.3-2.9s5.9-2 6.7-2.5 2.1-1 2.4-1.8c.3-.8.3.9 0 1.3s-3.2 1.4-3.7 1.6-4.2 1.3-4.7 1.7-2 2.6-2 2.6z"/><path class="st4" d="M108 44.7c0-.2 2.2.8 2.7.5.5-.3 0 .9-.9.9s-1.9-.8-1.8-1.4zm8.6 0c0-.2-2.2.8-2.7.5-.5-.3 0 .9.9.9s1.9-.8 1.8-1.4z"/><path class="st6" d="M64.4 93.9v2.2l137.8 6.8.3-3.3c-.8.1-1.6.1-2.1.1-1.4-.1-1.7-.7-3.2-1.3s-1.3-1.4-3-.6c-1.8.8-1.3.8-2.7 1.1s-3.4.1-4.4-.5-1.4-1.6-3.1-1.7c-1.7-.1-2 .3-3.6.5-1.6.1-2.1.4-3.7-.1s-2.3-1-4-1.2c-1.7-.2-3-.3-4.8-.1-1.8.2-1.3.6-3.8 0-2.4-.5-3.5-1.2-4.8-1.4-1.4-.2-2.1-1-3.6-.5s-2 .6-3.3.8c-1.3.2-1.7.5-2.7-.2s-1.4-1.1-2.7-1.1c-1.4.1-4.2 1.1-4.9 1s-3.4-.5-4.6-.9c-1.2-.3-1.7-.6-2.5-.3s-1.3.2-1.9.3c-.6.1-2.7.2-2.7.2-4-1.1-7.7-3.5-9.1-5-1.5-1.5-4.1-4.2-4.8-4.3-.7-.1-3.8-1.1-4.8-1.1s-5.4-.7-6.4 0-2.2 2.6-3.6 4-3.6 3.8-4.6 4.7c-.9.9-2.4 1.9-2.4 1.9s-1 .3-2.3 0c-1.4-.3-1.4-.2-2.7.1-1.3.3-1.2.7-2.2.3-1-.3-2.6-1.8-5-1.4-2.4.4-3.8 1.2-4.5 1.3-.8.1-2 .6-2.3.3-.3-.4-2.3-1-2.7-1.1-.4-.1-2-.8-3.2.3-1.2 1-1.9 1.2-3.1 1-1.2-.3-1.8-.6-2.3-.8z"/><path class="st7" d="M64.4 95.8l-.2 5.7 138.2 5.9.3-6.6c-1.2-.4-2.6-.6-3.5-.5-1.2.1-2.3 0-3.8-.2-1.6-.2-.7-.4-3.4-.1-2.7.3-3.5.2-5.3.1-1.8 0-2.4-.6-4.1-.7-1.7-.2-1.5-.3-3.7-.2-2.2.1-4.2.5-5.9.2-1.7-.2-1.4-.5-4.1-.8-2.7-.3-2.6.2-5.6.4-3 .1-5.1.8-7.4.3-2.2-.5-3.2-1.5-5.9-1.5s-5.1-.8-6.5-.3c-1.4.5-4.5.7-5 .7-.4 0-4.5-.1-6.9-.6-2.4-.5-4.6-.2-8.5-.4-3.9-.2-5.6.6-8.3-.4-2.6-1-2.8-.8-5-1-2.2-.2-2.2-.1-6.5.1-4.4.2-8.6-.2-10.5 0-1.8.1-2.9.2-5.2.6-2.3.4-4.2 0-5.4-.2-1.1-.3-1.2-.3-3.1-.3-1.8 0-4.5-.1-5.5-.2s-1-.5-2.4-.3-1.7.3-2.9.1c-1.2-.2-1.7-.3-2.5-.4-.4 0-.9.6-1.4.6z"/><path class="st8" d="M64.4 100.6v3.2h138.4v-3.6c-1.7-.7-3.2-1.7-4.6-1.2-1.8.6-1.4 1-3.6.8-2.2-.2-2.5-.6-4-.9-1.5-.3 2.7-1.4-3.5-.5s-6.7 1.3-9.9 1c-3.2-.3-5.1-.5-7.4-1-2.3-.4-3.6-1.2-5.1-.4-1.6.8-2.5.6-4.5 1.2-2.1.6-5 .3-7.2 0s-4.9-.9-7.4-.4c-2.6.5-6.5 1.7-8.5 1.9-2.1.2-4.1.5-6.4 0-2.3-.5-7.1-.8-8.5-.9-1.5-.1-.5 1.5-3.2.8-2.6-.7-3.5-.9-5.1-1.3-1.7-.4-3.6.4-5.4.7-1.7.3-2.4.4-4.8-.7s-2-2.7-4.7-1.6-4.9 1.9-7.3 1.8c-2.4-.1-5.2.1-7.2-.4s-5.1.9-7.3 1.1c-2.2.3-2.6-.1-4.8-.4-2.2-.3-2.9-1.4-4.9-.3-1.5.7-2.4 1-3.1 1.1z"/><path class="st4" d="M114.5 35c-.6-.4-1.5-1.1-1.5-1.4s0 .6.1.7c.1.1.6.8.9.8s.5-.1.5-.1zm-2.4-1.1c-.1.2-.2.4-.5.7-.3.3-.5.5-.7.6h-.4s1.1-.8 1.2-1c.2-.2.4-.3.4-.3zm-.8 3.7c-.2-.4.6.8 1.1.8.4 0 1.1-.9 1.1-.9s-.3 1.3-.7 1.6-1.1-.8-1.5-1.5zm.6-1.3c.3.1.7.2.8 0s-.2.4-.3.5c-.1.1-.5-.5-.5-.5zm2.6 0c0 .2-.3 1.6 1.1 2.6 1.3 1 1 1.1 1 1.1s-1.6-.4-1.9-1c-.4-.6-.5-.9-.6-1.1-.1-.4.4-1.6.4-1.6zm-7.6 13c.1 1.1.3 3 .6 3.1.3.1.4.3 1.2-.1.8-.4 8.6-4.2 8.8-4.6.2-.3.5-.8.5-1s.1.2-.5.6c-.6.4-.8.6-1.7 1.1-.9.5-7 3.4-7.4 3s-1-.9-1.1-1.2c-.1-.4-.4-.9-.4-.9z"/><path class="st3" d="M113.7 83.3l-15.9 20.5H64.4s27.4-6 31.1-10.3c3.6-4.3 8-10 9.4-10.3 1.3-.3 8.8.1 8.8.1z"/><path class="st3" d="M114.3 33.5L109 85.2c-1.5-.2-2.9-.5-4.1-.7-4-.9-5.7-11.6-5.7-11.6s-2.5-6.4 0-11.6c3 4.7 3.9 8.4 3.9 8.4 2.3-1.3 5-1.5 5-1.5s.3 1 .9 3.3c-4.1-.3-7.3 3.5-4.6 6.5 2.8 3 5.2.4 4.8-5.1-.5-5.5-3.8-10.4-3.6-14.8v-1.3c0-2.6.9-2.8 1.7-4-.8-.9-.7-4.6-.8-7.1-.1-2.5 0-5.1 2-6.2.2-1.6 1.5-.9 1.7-2.5.2-1.7-.5-3.9 2.5-4 .7-.1 1.3.1 1.6.5z"/><path transform="rotate(-180 13.256 147.242)" class="st9" d="M2.3 141h22v12.5h-22z"/><path class="st1" d="M91 153.5c0 1.5-15 3.5-33.4 3.5s-33.4-2.1-33.4-3.5v-11.4H91v11.4z"/><path transform="rotate(-180 12.59 154.791)" class="st10" d="M.9 154h23.4v1.6H.9z"/><path transform="rotate(-180 12.845 153.634)" class="st11" d="M1.4 153.1h22.9v1H1.4z"/><path class="st10" d="M24.3 155.3V154c2.8 1 16.9 3.1 33.8 3.1 15.6 0 28.8-1.8 33-2.8.4-.1.8.2.8.7v.4c0 1.2-15.1 3.4-33.8 3.4-18.7 0-33.8-2.3-33.8-3.5z"/><path class="st11" d="M24.3 154v-.9c2.8.9 16.8 2.8 33.5 2.8 15.5 0 28.6-1.6 32.7-2.6.4-.1.8.2.8.7 0 1.1-15 3.2-33.5 3.2-18.5-.1-33.5-2.1-33.5-3.2z"/><path class="st10" d="M91.7 142.8c0 1.1-15.3 1.9-34.1 1.9s-34.1-.9-34.1-1.9v-1.9h68.2v1.9z"/><path class="st11" d="M92.3 141.6c0 1.1-15.5 1.9-34.6 1.9s-34.7-.8-34.7-1.9v-1.9h69.3v1.9z"/><path class="st1" d="M32.4 127.9H36l.4-12.2v-1.1L36 100h-3.6l-.4 14.3v1.1l.4 12.5z"/><path class="st11" d="M24.3 76.6c-.1.3-.2.5-.2.5h.9c-.2-.4-.3-.9-.3-1.5v-.2c0-1.3.5-2.4 1-2.4.2 0 .3.1.5.3.3.4.5 1.2.5 2.1l1.4-1.4c2.8-2.5 7.8-5.2 16.4-6.5.4-.1.7-.1 1.1-.2v-.2c0-1.2.8-2.1 1.8-2.1.9 0 1.7.9 1.8 2 .4 0 .8-.1 1.2-.1 1.9-.1 3.9-.2 6-.2 8.1 0 14.1 1 18.7 2.3.6.2 1.1.3 1.6.5 0-.8.2-1.5.5-2 .2-.4.5-.6.8-.6.5 0 1 .6 1.2 1.5.1.4.2.8.2 1.3 0 .3 0 .6-.1.9.5.2 1 .5 1.5.7 3.6 1.9 5.5 4.1 6.5 5.7h.7s-.8-4.1-7-7.7c-.1-2.2-1.4-4-3-4-1 0-1.8.7-2.3 1.7-4.6-1.5-10.9-2.6-19.6-2.6-2.2 0-4.2.1-6 .2-.5-1.3-1.5-2.2-2.6-2.2-1.3 0-2.4 1.2-2.8 2.8-9.2 1.3-14.3 4.2-17.2 6.8-.4-.6-.8-.9-1.3-.9-1.1 0-2.1 1.8-2.1 4 0 .5.1 1 .2 1.5z"/><path class="st0" d="M24.9 78.2c-.4.7-.4 1.2-.4 1.2h63.9s-.2-.9-1.1-2.3c-1-1.6-2.9-3.7-6.5-5.7-.5-.3-1-.5-1.5-.7.1-.3.1-.6.1-.9 0-.5-.1-.9-.2-1.3-.2-.9-.7-1.5-1.2-1.5-.3 0-.6.2-.8.6-.3.5-.5 1.2-.5 2-.5-.2-1-.4-1.6-.5-4.5-1.4-10.6-2.3-18.7-2.3-2.1 0-4.2.1-6 .2-.4 0-.8.1-1.2.1-.1-1.1-.8-2-1.8-2s-1.8 1-1.8 2.1v.2c-.4.1-.8.1-1.1.2-8.6 1.3-13.5 4-16.4 6.5-.5.5-1 .9-1.4 1.4 0-.9-.2-1.7-.5-2.1-.1-.2-.3-.3-.5-.3-.6 0-1 1.1-1 2.4v.2c0 .6.1 1.1.3 1.5h-.6c.1.4.3.7.5 1z"/><path transform="rotate(-180 15.733 128.901)" class="st11" d="M7.9 128.6h15.8v.7H7.9z"/><path transform="rotate(-180 15.733 129.539)" class="st10" d="M6.9 129.1h17.6v.9H6.9z"/><path transform="rotate(-180 15.501 130.374)" class="st1" d="M5.9 129.9h19.3v.9H5.9z"/><path class="st10" d="M21.3 138.2h3c0-.5-.4-.9-.9-.9h-1.1c-.6-.1-1 .4-1 .9z"/><path class="st11" d="M22.3 137.2h1c.2 0 .4-.2.4-.4s-.2-.4-.4-.4h-1c-.2 0-.4.2-.4.4 0 .3.2.4.4.4z"/><path transform="rotate(-180 22.799 136.3)" class="st1" d="M22.3 136.1h1v.4h-1z"/><path class="st10" d="M23.4 134.9h-1.3c-.3 0-.6.3-.6.6s.3.6.6.6h1.3c.3 0 .6-.3.6-.6 0-.4-.2-.6-.6-.6z"/><path transform="rotate(-180 22.799 133.792)" class="st11" d="M22.3 132.5h1.1v2.6h-1.1z"/><path class="st10" d="M23.3 132.1h-1c-.1 0-.2.1-.2.2s.1.2.2.2h1c.1 0 .2-.1.2-.2s-.1-.2-.2-.2z"/><path class="st11" d="M22.8 132.1c.6 0 1.2-.5 1.2-1.2v-.1h-2.3v.1c-.1.7.5 1.2 1.1 1.2z"/><path class="st10" d="M17.7 138.2h3c0-.5-.4-.9-.9-.9h-1.1c-.6-.1-1 .4-1 .9z"/><path class="st11" d="M18.7 137.2h1c.2 0 .4-.2.4-.4s-.2-.4-.4-.4h-1c-.2 0-.4.2-.4.4 0 .3.2.4.4.4z"/><path transform="rotate(-180 19.183 136.3)" class="st1" d="M18.7 136.1h1v.4h-1z"/><path class="st10" d="M19.8 134.9h-1.3c-.3 0-.6.3-.6.6s.3.6.6.6h1.3c.3 0 .6-.3.6-.6 0-.4-.3-.6-.6-.6z"/><path transform="rotate(-180 19.183 133.792)" class="st11" d="M18.7 132.5h1.1v2.6h-1.1z"/><path class="st10" d="M19.7 132.1h-1c-.1 0-.2.1-.2.2s.1.2.2.2h1c.1 0 .2-.1.2-.2s-.1-.2-.2-.2z"/><path class="st11" d="M19.2 132.1c.6 0 1.2-.5 1.2-1.2v-.1H18v.1c0 .7.5 1.2 1.2 1.2z"/><path class="st10" d="M14.1 138.2h3c0-.5-.4-.9-.9-.9H15c-.5-.1-.9.4-.9.9z"/><path class="st11" d="M15.1 137.2h1c.2 0 .4-.2.4-.4s-.2-.4-.4-.4h-1c-.2 0-.4.2-.4.4 0 .3.2.4.4.4z"/><path transform="rotate(-180 15.568 136.3)" class="st1" d="M15.1 136.1h1v.4h-1z"/><path class="st10" d="M16.2 134.9h-1.3c-.3 0-.6.3-.6.6s.3.6.6.6h1.3c.3 0 .6-.3.6-.6 0-.4-.3-.6-.6-.6z"/><path transform="rotate(-180 15.568 133.792)" class="st11" d="M15 132.5h1.1v2.6H15z"/><path class="st10" d="M16.1 132.1h-1c-.1 0-.2.1-.2.2s.1.2.2.2h1c.1 0 .2-.1.2-.2s-.1-.2-.2-.2z"/><path class="st11" d="M15.6 132.1c.6 0 1.2-.5 1.2-1.2v-.1h-2.3v.1c-.1.7.4 1.2 1.1 1.2z"/><path class="st10" d="M10.4 138.2h3c0-.5-.4-.9-.9-.9h-1.1c-.5-.1-1 .4-1 .9z"/><path class="st11" d="M11.4 137.2h1c.2 0 .4-.2.4-.4s-.2-.4-.4-.4h-1c-.2 0-.4.2-.4.4.1.3.2.4.4.4z"/><path transform="rotate(-180 11.952 136.3)" class="st1" d="M11.5 136.1h1v.4h-1z"/><path class="st10" d="M12.6 134.9h-1.3c-.3 0-.6.3-.6.6s.3.6.6.6h1.3c.3 0 .6-.3.6-.6 0-.4-.3-.6-.6-.6z"/><path transform="rotate(-180 11.952 133.792)" class="st11" d="M11.4 132.5h1.1v2.6h-1.1z"/><path class="st10" d="M12.5 132.1h-1c-.1 0-.2.1-.2.2s.1.2.2.2h1c.1 0 .2-.1.2-.2s-.1-.2-.2-.2z"/><path class="st11" d="M12 132.1c.6 0 1.2-.5 1.2-1.2v-.1h-2.3v.1c-.1.7.4 1.2 1.1 1.2z"/><path class="st10" d="M6.8 138.2h3c0-.5-.4-.9-.9-.9H7.8c-.5-.1-1 .4-1 .9z"/><path class="st11" d="M7.8 137.2h1c.2 0 .4-.2.4-.4s-.2-.4-.4-.4h-1c-.2 0-.4.2-.4.4.1.3.2.4.4.4z"/><path transform="rotate(-180 8.337 136.3)" class="st1" d="M7.8 136.1h1v.4h-1z"/><path class="st10" d="M9 134.9H7.7c-.3 0-.6.3-.6.6s.3.6.6.6H9c.3 0 .6-.3.6-.6-.1-.4-.3-.6-.6-.6z"/><path transform="rotate(-180 8.337 133.792)" class="st11" d="M7.8 132.5h1.1v2.6H7.8z"/><path class="st10" d="M8.8 132.1h-1c-.1 0-.2.1-.2.2s.1.2.2.2h1c.1 0 .2-.1.2-.2.1-.1 0-.2-.2-.2z"/><path class="st11" d="M8.3 132.1c.6 0 1.2-.5 1.2-1.2v-.1H7.2v.1c0 .7.5 1.2 1.1 1.2z"/><path transform="rotate(-180 15.096 138.525)" class="st11" d="M5.6 138.2h18.9v.7H5.6z"/><path transform="rotate(-180 14.976 139.61)" class="st10" d="M5.6 138.9h18.7v1.5H5.6z"/><path class="st10" d="M38.3 128.4l-13.9.9v1.6l13.9-1.1z"/><path class="st11" d="M38.3 127.7l-14.6.9v1l14.6-1.1zm-8.8.5h-6.3c0-.6.5-1 1-1h4.2c.6 0 1.1.4 1.1 1z"/><path class="st10" d="M37.5 127.2l-14.3.9v.6l14.3-1zm.9 11.9l-2.7-.3c0-.6.4-1.1 1-1.1l.8.1c.5.2.9.7.9 1.3z"/><path class="st11" d="M37.5 137.9l-.8-.1c-.2 0-.4-.2-.4-.5s.2-.4.4-.4l.8.1c.2 0 .4.2.4.5-.1.2-.2.4-.4.4z"/><path class="st1" d="M37.5 136.5l-.9-.1v.5l.9.1z"/><path class="st10" d="M36.5 135h1c.3 0 .6.3.6.7 0 .4-.2.7-.5.7h-1c-.3 0-.6-.3-.6-.7-.1-.4.2-.7.5-.7z"/><path class="st11" d="M37.5 132l-.9.1v3.2l.9-.1z"/><path class="st10" d="M36.6 131.5l.8-.1c.1 0 .2.1.2.3 0 .2-.1.3-.2.3l-.8.1c-.1 0-.2-.1-.2-.3 0-.1.1-.2.2-.3z"/><path class="st11" d="M37 131.6c-.6.1-1-.5-1-1.2v-.3l2.1-.2v.3c0 .7-.5 1.3-1.1 1.4z"/><path class="st10" d="M35 139l-2.7-.3c0-.6.4-1.1 1-1l.8.1c.5 0 .9.6.9 1.2z"/><path class="st11" d="M34.1 137.8l-.8-.1c-.2 0-.4-.2-.4-.5 0-.2.2-.4.4-.4l.8.1c.2 0 .4.2.4.5 0 .2-.2.4-.4.4z"/><path class="st1" d="M34.1 136.5l-.8-.1v.4l.8.1z"/><path class="st10" d="M33.1 135h1c.3 0 .6.3.6.7 0 .4-.2.7-.5.6h-1c-.3 0-.6-.3-.6-.7 0-.4.2-.7.5-.6z"/><path class="st11" d="M34.2 132.1l-1 .1v3h1z"/><path class="st10" d="M33.3 131.6l.8-.1c.1 0 .2.1.2.2s-.1.3-.2.3l-.8.1c-.1 0-.2-.1-.2-.2-.1-.1.1-.2.2-.3z"/><path class="st11" d="M33.7 131.7c-.6.1-1-.5-1-1.1v-.3l2.1-.2v.3c-.1.6-.5 1.2-1.1 1.3z"/><path class="st10" d="M31.5 138.8l-2.7-.3c0-.6.4-1 1-1l.8.1c.4.1.9.6.9 1.2z"/><path class="st11" d="M30.5 137.6l-.8-.1c-.2 0-.4-.2-.4-.5 0-.2.2-.4.4-.4l.8.1c.2 0 .4.2.4.5s-.2.5-.4.4z"/><path class="st1" d="M30.6 136.4l-.9-.1v.4l.9.1z"/><path class="st10" d="M29.6 134.9h1c.3 0 .6.3.6.7 0 .3-.2.6-.5.6h-1c-.3 0-.6-.3-.6-.7-.1-.3.1-.6.5-.6z"/><path class="st11" d="M30.6 132.2l-1 .1v2.9l1-.1z"/><path class="st10" d="M29.7 131.8l.8-.1c.1 0 .2.1.2.2s-.1.3-.2.3l-.8.1c-.1 0-.2-.1-.2-.2 0-.2.1-.3.2-.3z"/><path class="st11" d="M30.1 131.8c-.6 0-1-.4-1-1.1v-.3l2.1-.2v.3c0 .7-.5 1.3-1.1 1.3z"/><path class="st10" d="M28 138.5l-2.7-.2c0-.5.4-.9 1-.9l.8.1c.5 0 .9.4.9 1z"/><path class="st11" d="M27.1 137.4l-.8-.1c-.2 0-.4-.2-.4-.4s.2-.4.4-.4l.8.1c.2 0 .4.2.4.4-.1.3-.2.4-.4.4z"/><path class="st1" d="M27.1 136.2h-.9v.4h.9z"/><path class="st10" d="M26.1 134.9h1c.3 0 .6.3.6.6s-.2.6-.5.6h-1c-.3 0-.6-.3-.6-.6-.1-.3.2-.6.5-.6z"/><path class="st11" d="M27.1 132.4h-.9v2.8l.9-.1z"/><path class="st10" d="M26.2 132l.8-.1c.1 0 .2.1.2.2s-.1.2-.2.3l-.8.1c-.1 0-.2-.1-.2-.2 0-.2.1-.3.2-.3z"/><path class="st11" d="M26.7 132c-.6 0-1-.4-1-1v-.3l2.1-.2v.3c-.1.6-.6 1.2-1.1 1.2zm-2.5 6.9l14.4 1.1v-.8l-14.4-1z"/><path class="st10" d="M23 140.3l15.4 1.3V140L23 138.7z"/><path class="st1" d="M24.9 138.9l-1.3-.1v-7.9h1.3z"/><path class="st11" d="M38.4 126.4h6.3c0-.6-.5-1-1-1h-4.2c-.7-.1-1.1.4-1.1 1z"/><path transform="rotate(-180 41.489 127.043)" class="st10" d="M37 126.4h9v1.3h-9z"/><path transform="rotate(-180 56.324 128.301)" class="st11" d="M46.5 127.9h19.6v.9H46.5z"/><path transform="rotate(-180 56.324 129.094)" class="st11" d="M45.4 128.6h21.9v1.1H45.4z"/><path transform="rotate(-180 56.036 130.132)" class="st10" d="M44.1 129.6h24v1.1h-24z"/><path transform="rotate(-180 41.489 128.127)" class="st11" d="M36.4 127.7h10.1v.9H36.4z"/><path transform="rotate(-180 41.489 129.094)" class="st11" d="M37.6 128.6h7.8v1.1h-7.8z"/><path class="st11" d="M68 126.4h6.3c0-.6-.5-1-1-1h-4.2c-.6-.1-1.1.4-1.1 1z"/><path transform="rotate(-180 71.16 127.043)" class="st10" d="M66.6 126.4h9v1.3h-9z"/><path transform="rotate(-180 71.16 128.127)" class="st11" d="M66.1 127.7h10.1v.9H66.1z"/><path transform="rotate(-180 71.16 129.094)" class="st10" d="M67.3 128.6h7.8v1.1h-7.8z"/><path class="st10" d="M63.2 139.8H67c0-.6-.5-1.2-1.2-1.2h-1.4c-.6.1-1.2.6-1.2 1.2z"/><path class="st11" d="M64.5 138.7h1.3c.3 0 .5-.2.5-.5s-.2-.5-.5-.5h-1.3c-.3 0-.5.2-.5.5s.2.5.5.5z"/><path transform="rotate(-180 65.105 137.496)" class="st1" d="M64.5 137.3h1.2v.5h-1.2z"/><path class="st10" d="M65.9 135.8h-1.6c-.4 0-.7.3-.7.7 0 .4.3.7.7.7h1.6c.4 0 .7-.3.7-.7 0-.4-.3-.7-.7-.7z"/><path transform="rotate(-180 65.105 134.38)" class="st11" d="M64.4 132.8h1.3v3.2h-1.3z"/><path class="st10" d="M65.7 132.2h-1.2c-.2 0-.3.1-.3.3 0 .2.1.3.3.3h1.2c.2 0 .3-.1.3-.3 0-.2-.1-.3-.3-.3z"/><path class="st11" d="M65.1 132.3c.8 0 1.5-.7 1.5-1.5v-.2h-2.9v.2c0 .8.6 1.5 1.4 1.5z"/><path class="st10" d="M58.7 139.8h3.7c0-.6-.5-1.2-1.2-1.2h-1.4c-.5.1-1.1.6-1.1 1.2z"/><path class="st11" d="M60 138.7h1.3c.3 0 .5-.2.5-.5s-.2-.5-.5-.5H60c-.3 0-.5.2-.5.5s.2.5.5.5z"/><path transform="rotate(-180 60.612 137.496)" class="st1" d="M60 137.3h1.2v.5H60z"/><path class="st10" d="M61.4 135.8h-1.6c-.4 0-.7.3-.7.7 0 .4.3.7.7.7h1.6c.4 0 .7-.3.7-.7 0-.4-.3-.7-.7-.7z"/><path transform="rotate(-180 60.612 134.38)" class="st11" d="M60 132.8h1.3v3.2H60z"/><path class="st10" d="M61.2 132.2H60c-.2 0-.3.1-.3.3 0 .2.1.3.3.3h1.2c.2 0 .3-.1.3-.3 0-.2-.1-.3-.3-.3z"/><path class="st11" d="M60.6 132.3c.8 0 1.5-.7 1.5-1.5v-.2h-2.9v.2c0 .8.6 1.5 1.4 1.5z"/><path class="st10" d="M54.2 139.8H58c0-.6-.5-1.2-1.2-1.2h-1.4c-.6.1-1.2.6-1.2 1.2z"/><path class="st11" d="M55.5 138.7h1.3c.3 0 .5-.2.5-.5s-.2-.5-.5-.5h-1.3c-.3 0-.5.2-.5.5s.2.5.5.5z"/><path transform="rotate(-180 56.118 137.496)" class="st1" d="M55.5 137.3h1.2v.5h-1.2z"/><path class="st10" d="M56.9 135.8h-1.6c-.4 0-.7.3-.7.7 0 .4.3.7.7.7h1.6c.4 0 .7-.3.7-.7 0-.4-.3-.7-.7-.7z"/><path transform="rotate(-180 56.118 134.38)" class="st11" d="M55.5 132.8h1.3v3.2h-1.3z"/><path class="st10" d="M56.7 132.2h-1.2c-.2 0-.3.1-.3.3 0 .2.1.3.3.3h1.2c.2 0 .3-.1.3-.3 0-.2-.1-.3-.3-.3z"/><path class="st11" d="M56.1 132.3c.8 0 1.5-.7 1.5-1.5v-.2h-2.9v.2c0 .8.6 1.5 1.4 1.5z"/><path class="st10" d="M49.8 139.8h3.7c0-.6-.5-1.2-1.2-1.2h-1.4c-.6.1-1.1.6-1.1 1.2z"/><path class="st11" d="M51 138.7h1.3c.3 0 .5-.2.5-.5s-.2-.5-.5-.5H51c-.3 0-.5.2-.5.5s.2.5.5.5z"/><path transform="rotate(-180 51.625 137.496)" class="st1" d="M51 137.3h1.2v.5H51z"/><path class="st10" d="M52.4 135.8h-1.6c-.4 0-.7.3-.7.7 0 .4.3.7.7.7h1.6c.4 0 .7-.3.7-.7 0-.4-.3-.7-.7-.7z"/><path transform="rotate(-180 51.625 134.38)" class="st11" d="M51 132.8h1.3v3.2H51z"/><path class="st10" d="M52.2 132.2H51c-.2 0-.3.1-.3.3 0 .2.1.3.3.3h1.2c.2 0 .3-.1.3-.3 0-.2-.1-.3-.3-.3z"/><path class="st11" d="M51.6 132.3c.8 0 1.5-.7 1.5-1.5v-.2h-2.9v.2c0 .8.6 1.5 1.4 1.5z"/><path class="st10" d="M45.3 139.8H49c0-.6-.5-1.2-1.2-1.2h-1.4c-.6.1-1.1.6-1.1 1.2z"/><path class="st11" d="M46.5 138.7h1.3c.3 0 .5-.2.5-.5s-.2-.5-.5-.5h-1.3c-.3 0-.5.2-.5.5s.2.5.5.5z"/><path transform="rotate(-180 47.132 137.496)" class="st1" d="M46.5 137.3h1.2v.5h-1.2z"/><path class="st10" d="M47.9 135.8h-1.6c-.4 0-.7.3-.7.7 0 .4.3.7.7.7h1.6c.4 0 .7-.3.7-.7 0-.4-.3-.7-.7-.7z"/><path transform="rotate(-180 47.132 134.38)" class="st11" d="M46.5 132.8h1.3v3.2h-1.3z"/><path class="st10" d="M47.8 132.2h-1.2c-.2 0-.3.1-.3.3 0 .2.1.3.3.3h1.2c.2 0 .3-.1.3-.3-.1-.2-.2-.3-.3-.3z"/><path class="st11" d="M47.1 132.3c.8 0 1.5-.7 1.5-1.5v-.2h-2.9v.2c0 .8.6 1.5 1.4 1.5z"/><path transform="rotate(-180 56.104 140.261)" class="st11" d="M44.9 139.8h22.3v.9H44.9z"/><path transform="rotate(-180 56.301 141.609)" class="st10" d="M45.6 140.7h21.3v1.8H45.6z"/><path transform="rotate(-180 41.489 139.483)" class="st11" d="M37.6 139.1h7.8v.7h-7.8z"/><path transform="rotate(-180 41.489 140.41)" class="st10" d="M37 139.8h8.9v1.2H37z"/><path transform="rotate(-180 41.489 141.665)" class="st11" d="M36.6 141h9.8v1.3h-9.8z"/><path transform="rotate(-180 41.489 142.516)" class="st10" d="M36.1 142.3h10.7v.4H36.1z"/><path transform="rotate(-180 41.489 134.37)" class="st1" d="M38 129.6h6.9v9.6H38z"/><path class="st11" d="M74.9 128.4l13.9.9v1.6l-13.9-1.1z"/><path class="st10" d="M74.9 127.7l14.6.9v1l-14.6-1.1z"/><path class="st11" d="M83.7 128.2H90c0-.6-.5-1-1-1h-4.2c-.6 0-1.1.4-1.1 1z"/><path class="st11" d="M75.7 127.2l14.3.9v.6l-14.3-1z"/><path class="st10" d="M74.8 139.1l2.7-.3c0-.6-.4-1.1-1-1.1l-.8.1c-.5.2-.9.7-.9 1.3z"/><path class="st11" d="M75.8 137.9l.8-.1c.2 0 .4-.2.4-.5s-.2-.4-.4-.4l-.8.1c-.2 0-.4.2-.4.5 0 .2.2.4.4.4z"/><path class="st1" d="M75.7 136.5l.9-.1v.5l-.9.1z"/><path class="st10" d="M76.7 135h-1c-.3 0-.6.3-.6.7 0 .4.2.7.5.7h1c.3 0 .6-.3.6-.7.1-.4-.1-.7-.5-.7z"/><path class="st11" d="M75.7 132l.9.1v3.2l-.9-.1z"/><path class="st10" d="M76.6 131.5l-.8-.1c-.1 0-.2.1-.2.3 0 .2.1.3.2.3l.8.1c.1 0 .2-.1.2-.3 0-.1-.1-.2-.2-.3z"/><path class="st11" d="M76.2 131.6c.6.1 1-.5 1-1.2v-.3l-2.1-.2v.3c0 .7.5 1.3 1.1 1.4z"/><path class="st10" d="M78.2 139l2.7-.3c0-.6-.4-1.1-1-1l-.8.1c-.5 0-.9.6-.9 1.2z"/><path class="st11" d="M79.1 137.8l.8-.1c.2 0 .4-.2.4-.5 0-.2-.2-.4-.4-.4l-.8.1c-.2 0-.4.2-.4.5 0 .2.2.4.4.4z"/><path class="st1" d="M79.1 136.5l.9-.1v.4l-.9.1z"/><path class="st10" d="M80.1 135h-1c-.3 0-.6.3-.6.7 0 .4.2.7.5.6h1c.3 0 .6-.3.6-.7 0-.4-.2-.7-.5-.6z"/><path class="st11" d="M79 132.1l1 .1v3h-1z"/><path class="st10" d="M79.9 131.6l-.8-.1c-.1 0-.2.1-.2.2s.1.3.2.3l.8.1c.1 0 .2-.1.2-.2.1-.1 0-.2-.2-.3z"/><path class="st11" d="M79.5 131.7c.6.1 1-.5 1-1.1v-.3l-2.1-.2v.3c.1.6.5 1.2 1.1 1.3z"/><path class="st10" d="M81.7 138.8l2.7-.3c0-.6-.4-1-1-1l-.8.1c-.4.1-.9.6-.9 1.2z"/><path class="st11" d="M82.7 137.6l.8-.1c.2 0 .4-.2.4-.5 0-.2-.2-.4-.4-.4l-.8.1c-.2 0-.4.2-.4.5s.2.5.4.4z"/><path class="st1" d="M82.7 136.4l.8-.1v.4l-.8.1z"/><path class="st10" d="M83.7 134.9h-1c-.3 0-.6.3-.6.7 0 .3.2.6.5.6h1c.3 0 .6-.3.6-.7 0-.3-.2-.6-.5-.6z"/><path class="st11" d="M82.6 132.2l1 .1v2.9l-1-.1z"/><path class="st10" d="M83.5 131.8l-.8-.1c-.1 0-.2.1-.2.2s.1.3.2.3l.8.1c.1 0 .2-.1.2-.2 0-.2-.1-.3-.2-.3z"/><path class="st11" d="M83.1 131.8c.6 0 1-.4 1-1.1v-.3l-2.1-.2v.3c0 .7.5 1.3 1.1 1.3z"/><path class="st10" d="M85.2 138.5l2.7-.2c0-.5-.4-.9-1-.9l-.8.1c-.5 0-.9.4-.9 1z"/><path class="st11" d="M86.1 137.4l.8-.1c.2 0 .4-.2.4-.4s-.2-.4-.4-.4l-.8.1c-.2 0-.4.2-.4.4.1.3.2.4.4.4z"/><path class="st1" d="M86.1 136.2h.9v.4h-.9z"/><path class="st10" d="M87.1 134.9h-1c-.3 0-.6.3-.6.6s.2.6.5.6h1c.3 0 .6-.3.6-.6.1-.3-.2-.6-.5-.6z"/><path class="st11" d="M86.1 132.4h.9v2.8l-.9-.1z"/><path class="st10" d="M87 132l-.8-.1c-.1 0-.2.1-.2.2s.1.2.2.3l.8.1c.1 0 .2-.1.2-.2 0-.2-.1-.3-.2-.3z"/><path class="st11" d="M86.6 132c.6 0 1-.4 1-1v-.3l-2.1-.2v.3c0 .6.5 1.2 1.1 1.2zm2.4 6.9L74.6 140v-.8l14.4-1z"/><path class="st10" d="M90.2 140.3l-15.4 1.3V140l15.4-1.3z"/><path transform="rotate(-180 89.93 129.17)" class="st11" d="M89.2 128.7h1.5v.8h-1.5z"/><path transform="rotate(-180 89.459 130.249)" class="st10" d="M88.8 129.6h1.3v1.3h-1.3z"/><path class="st1" d="M88.3 138.9l1.3-.1v-7.9h-1.3z"/><path transform="rotate(-180 90.802 138.907)" class="st10" d="M90.2 138.7h1.2v.5h-1.2z"/><path transform="rotate(-180 91.232 139.74)" class="st11" d="M90.2 139.1h2.1v1.2h-2.1z"/><path transform="rotate(-180 71.16 139.483)" class="st11" d="M67.3 139.1h7.8v.7h-7.8z"/><path transform="rotate(-180 71.16 140.41)" class="st10" d="M66.7 139.8h8.9v1.2h-8.9z"/><path transform="rotate(-180 71.16 141.665)" class="st11" d="M66.2 141H76v1.3h-9.8z"/><path transform="rotate(-180 71.16 142.516)" class="st10" d="M65.8 142.3h10.7v.4H65.8z"/><path transform="rotate(-180 71.16 134.37)" class="st1" d="M67.7 129.6h6.9v9.6h-6.9z"/><path transform="rotate(-180 3.925 130.423)" class="st11" d="M1.8 129.8h4.3v1.3H1.8z"/><path transform="rotate(-180 4.265 129.542)" class="st10" d="M.8 129h6.9v1.2H.8z"/><path transform="rotate(-180 4.482 128.815)" class="st11" d="M0 128.4h9v.9H0z"/><path transform="rotate(-180 4.068 134.72)" class="st1" d="M2.4 131.1h3.3v7.3H2.4z"/><path transform="rotate(-180 3.933 139.647)" class="st11" d="M1.7 138.4h4.4v2.5H1.7z"/><path class="st11" d="M20.6 81.4V83l.7 1.1c2-3.4 9.4-11.1 35.1-11.1s33.1 7.6 35.1 11l.7-1.1v-1.6s-2.8-12.7-35.8-12.7-35.8 12.8-35.8 12.8z"/><path class="st1" d="M21.3 84l.8 1.3.6.4.1.7.6.9v.7h65.9v-.6l.6-.9.1-.7.6-.4.8-1.3C89.4 80.7 82 73 56.3 73s-33 7.6-35 11z"/><path class="st11" d="M89 95.7v-2.5l.3-.2v-1.2l.3-.6v-2c0-4.6-14.9-8.3-33.3-8.3S23 84.6 23 89.2v2l.3.6V93l.3.2v2.5"/><path class="st1" d="M55.4 127.4h3.2L59 116v-1.1l-.4-13.6h-3.2l-.4 13.4v1.1l.4 11.6z"/><path class="st11" d="M55 106.5h4.1c.2 0 .3.1.3.3 0 .2-.1.3-.3.3H55c-.2 0-.3-.1-.3-.3 0-.1.1-.3.3-.3z"/><path class="st10" d="M59 106.6l.4-1.1c.2-.4.2-.8.2-1.2v-.6h-5.2v.9c0 .3 0 .5.1.8l.3 1.3 4.2-.1z"/><path class="st11" d="M32.1 103.7h4.1c.2 0 .3.1.3.3 0 .2-.1.3-.3.3h-4.1c-.2 0-.3-.1-.3-.3 0-.2.2-.3.3-.3z"/><path class="st10" d="M36.1 103.7l.4-1.1c.2-.4.2-.8.2-1.2v-.6h-5.2v.9c0 .3 0 .5.1.8l.3 1.3 4.2-.1z"/><ellipse class="st1" cx="56.4" cy="95.7" rx="32.6" ry="8.3"/><ellipse class="st0" cx="56.4" cy="95.4" rx="29.6" ry="6.3"/><circle class="st10" cx="47.4" cy="67.1" r=".7"/><circle class="st10" cx="25.6" cy="74.6" r=".5"/><circle class="st10" cx="78.1" cy="69.3" r=".7"/><path class="st1" d="M28.4 127.2h-4.1l-.5-13.6v-1.3l.5-16.1h4.1l.5 15.9v1.3l-.5 13.8z"/><path class="st11" d="M24 97.1h4.7c.2 0 .4.2.4.4s-.2.4-.4.4H24c-.2 0-.4-.2-.4-.4 0-.3.2-.4.4-.4z"/><path class="st10" d="M28.6 97.1l.5-1.3c.2-.5.3-.9.3-1.4v-.7h-6v1c0 .3 0 .6.1.9l.3 1.5h4.8z"/><path class="st11" d="M23.1 93.3h6.5c.2 0 .4.2.4.4s-.2.4-.4.4h-6.5c-.2 0-.4-.2-.4-.4s.2-.4.4-.4z"/><path class="st1" d="M39.2 125.3h4.6l.6-15.1v-1.4l-.6-20.4h-4.6l-.6 20.2v1.4l.6 15.3z"/><path class="st11" d="M38.7 92.4h5.7c.3 0 .5.2.5.5s-.2.5-.5.5h-5.7c-.3 0-.5-.2-.5-.5s.2-.5.5-.5z"/><path class="st10" d="M44.2 92.5l.6-1.5c.2-.5.3-1.1.3-1.7v-.9h-7.2v1.2c0 .4 0 .7.1 1.1l.4 1.8h5.8z"/><path class="st11" d="M37.6 87.9h7.9c.3 0 .5.2.5.5s-.2.5-.5.5h-7.9c-.3 0-.5-.2-.5-.5s.2-.5.5-.5z"/><path class="st1" d="M68.9 125.3h4.6l.6-15.1v-1.4l-.6-18h-4.6l-.6 17.7v1.4l.6 15.4z"/><path class="st11" d="M68.3 92.4H74c.3 0 .5.2.5.5s-.2.5-.5.5h-5.7c-.3 0-.5-.2-.5-.5.1-.3.3-.5.5-.5z"/><path class="st10" d="M73.9 92.5l.6-1.5c.2-.5.3-1.1.3-1.7v-.9h-7.2v1.2c0 .4 0 .7.1 1.1l.4 1.8h5.8z"/><path class="st11" d="M67.2 87.9h7.9c.3 0 .5.2.5.5s-.2.5-.5.5h-7.9c-.3 0-.5-.2-.5-.5.1-.3.3-.5.5-.5z"/><path class="st1" d="M84.8 127.2h4.1l.5-13.6v-1.3l-.5-16.1h-4.1l-.5 15.9v1.3l.5 13.8z"/><path class="st11" d="M84.5 97.1h4.7c.2 0 .4.2.4.4s-.2.4-.4.4h-4.7c-.2 0-.4-.2-.4-.4 0-.3.2-.4.4-.4z"/><path class="st10" d="M89.1 97.1l.5-1.3c.2-.5.3-.9.3-1.4v-.7h-6v1c0 .3 0 .6.1.9l.3 1.5h4.8z"/><path class="st11" d="M83.6 93.3h6.5c.2 0 .4.2.4.4s-.2.4-.4.4h-6.5c-.2 0-.4-.2-.4-.4s.2-.4.4-.4zM53.9 128h6.3c0-.6-.5-1-1-1H55c-.7-.1-1.1.4-1.1 1z"/><path transform="rotate(-180 12.205 140.51)" class="st11" d="M1.4 140H23v1H1.4z"/><path class="st12" d="M64.4 65.1l-1.2 2-5.2 1.6-3.2 4.3-10.7 9-2.6 5.5S29.7 93.6 28 93.7s-4.2-.4-4.2-.4l-.3-.2v-1.2l-.3-.9v-2.1l.3-.8v-.6l-.6-.9-.1-.7-.8-.7-1.3-2.3-.1-1.5s0-1.5 3.6-4.9c.2-2.5.1-4.1 1.3-5.1 1.5-.9 1.9 1 1.9 1s7.5-6.8 17.1-7c1.4-2.8 2.3-2.9 2.8-2.8.5.1 2.2-.1 2.6 2.2 2.9-.8 14.5.3 14.5.3zm.1 74.7l-11 18.9s-21.1.1-29.8-3.2l.3-12.7s-1.3-.5-1-4.1c5.8-.2 41.5 1.1 41.5 1.1zm23.9-46.5L86 127.2h-1.2s-.8-16.4-.3-29.3c-.4-.4 0-.8 0-.8l-.9-2.9-.1-1.2 4.9.3z"/><path class="st12" d="M27.8 93.3l-2.4 33.6-1.2.3s-.8-16.4-.3-29.3c-.4-.4 0-.8 0-.8l-.9-2.9-.1-1.2 4.9.3zm7.8 8.7l-2.2 25.5-1-.1s-.5-11.6-.1-22.2c-.3-.3 0-.6 0-.6l-.7-2.4-.1-1 4.1.8zm22.7 2.1l-2.2 22.8-1-.1s-.5-10.2-.1-19.5c-.3-.3 0-.6 0-.6l-.7-2.1-.1-.9 4.1.4zm13.4-16.2l-2.1 37.3-.7-.5s-1.1-17.5 0-31.4c0-.3-.9.2-.9-.1-.3-.4 0-.8 0-.8L66.9 89l-.1-1.3 4.9.2zm-29.7 0l-1.9 37.4-.9-.6s-1.1-17.5 0-31.4c0-.3-.9.2-.9-.1-.3-.4 0-.8 0-.8L37.2 89l-.1-1.3 4.9.2z"/><circle class="st1" cx="362.7" cy="122.6" r="20.4"/><path transform="rotate(-45.001 360.887 134.91)" class="st0" d="M360 131.8h1.7v6.3H360z"/><path transform="rotate(58.128 367.443 129.142)" class="st0" d="M366.7 123.4h1.5v11.5h-1.5z"/><path class="st0" d="M362.1 119.5h2.2v35.3h-2.2z"/><path class="st13" d="M267.7 115h54.7v45.6h-54.7z"/><path class="st14" d="M268.5 115.9h54.6v1h-54.6zm0 7.3h54.6v1h-54.6zm32-10.5v2.6h-16.1v-2.6h4.4l1-1.4c.4-.6 1-1 1.7-1.2.6-.2 1.2-.2 1.8 0 .7.2 1.3.6 1.7 1.2l1 1.4h4.5z"/><circle class="st15" cx="292.5" cy="113" r="1.2"/><path class="st15" d="M300.3 112.2h2.2v9.4h-2.2zm-16.4 0h2.2v9.4h-2.2z"/><path class="st15" d="M302 114.9h22.2v1H302zm-35.4 5.1h57.1v.5h-57.1zm.6-5.1h16.9v1h-16.9zm8.4 27.8h46.8v1.1h-46.8z"/><path class="st14" d="M266.2 134.8h9.7v16h-9.7z"/><path class="st16" d="M267.7 136.8h6.7v14h-6.7z"/><path class="st17" d="M268.5 137.6h2.3v3.2h-2.3zm0 3.9h2.3v2.3h-2.3zm0 3.1h2.3v2.3h-2.3zm0 3.1h2.3v2.3h-2.3zm2.8-10.1h2.3v3.2h-2.3zm0 3.9h2.3v2.3h-2.3zm0 3.1h2.3v2.3h-2.3zm0 3.1h2.3v2.3h-2.3z"/><path class="st15" d="M265.6 150.7h10.9v.9h-10.9z"/><path class="st18" d="M266 151.7h10.1v.6H266z"/><path class="st14" d="M287 134.8h9.7v16H287z"/><path class="st16" d="M288.6 136.8h6.7v14h-6.7z"/><path class="st17" d="M289.3 137.6h2.3v3.2h-2.3zm0 3.9h2.3v2.3h-2.3zm0 3.1h2.3v2.3h-2.3zm0 3.1h2.3v2.3h-2.3zm2.8-10.1h2.3v3.2h-2.3zm0 3.9h2.3v2.3h-2.3zm0 3.1h2.3v2.3h-2.3zm0 3.1h2.3v2.3h-2.3z"/><path class="st15" d="M286.5 150.7h10.9v.9h-10.9z"/><path class="st18" d="M286.9 151.7H297v.6h-10.1z"/><path class="st14" d="M307.9 134.8h9.7v16h-9.7z"/><path class="st16" d="M309.4 136.8h6.7v14h-6.7z"/><path class="st17" d="M310.1 137.6h2.3v3.2h-2.3zm0 3.9h2.3v2.3h-2.3zm0 3.1h2.3v2.3h-2.3zm0 3.1h2.3v2.3h-2.3zm2.9-10.1h2.3v3.2H313zm0 3.9h2.3v2.3H313zm0 3.1h2.3v2.3H313zm0 3.1h2.3v2.3H313z"/><path class="st15" d="M307.3 150.7h10.9v.9h-10.9z"/><path class="st18" d="M307.7 151.7h10.1v.6h-10.1z"/><path class="st14" d="M321.4 115.9h2.3v44.7h-2.3z"/><path class="st19" d="M276.2 151.7l-2 8.9h-10.6l2.1-8.9z"/><path transform="rotate(-180 116.047 137.855)" class="st13" d="M88.7 115h54.7v45.6H88.7z"/><path transform="rotate(-180 115.334 116.43)" class="st14" d="M88 115.9h54.6v1H88z"/><path transform="rotate(-180 115.334 123.683)" class="st14" d="M88 123.2h54.6v1H88z"/><path class="st13" d="M142.6 64v102.2h125.8V64h-48.1v-6H191v6z"/><path transform="rotate(-180 186.48 116.046)" class="st18" d="M184.1 114.5h4.7v3.1h-4.7z"/><path transform="rotate(-180 224.522 116.046)" class="st18" d="M222.2 114.5h4.7v3.1h-4.7z"/><path transform="rotate(-180 205.859 68.347)" class="st13" d="M204.5 64.8h2.8v7h-2.8z"/><path class="st20" d="M193.1 75v37.2h25V75c0-5.6-5.6-10.2-12.5-10.2s-12.5 4.6-12.5 10.2z"/><path class="st21" d="M212.1 78.3c0-3.6-2.9-6.5-6.5-6.5s-6.5 2.9-6.5 6.5"/><path class="st22" d="M206.7 78c0-.6-.5-1.1-1.1-1.1s-1.1.5-1.1 1.1"/><path transform="rotate(-180 205.573 90.261)" class="st23" d="M199 78.3h13.1v23.9H199z"/><path class="st21" d="M205.6 71.8v5.1m-4.6-3.1l3.6 3.6m5.6-3.8l-3.6 3.6"/><path transform="rotate(-180 202.72 85.575)" class="st24" d="M201 79.7h3.5v11.7H201z"/><path transform="rotate(-180 208.426 85.575)" class="st24" d="M206.7 79.7h3.5v11.7h-3.5z"/><path transform="rotate(-180 202.72 97.33)" class="st24" d="M201 93.3h3.5v8H201z"/><path transform="rotate(-180 208.426 97.33)" class="st24" d="M206.7 93.3h3.5v8h-3.5z"/><path transform="rotate(-180 193.521 80.915)" class="st21" d="M188 80.3h11v1.3h-11z"/><path transform="rotate(-180 217.625 80.915)" class="st21" d="M212.1 80.3h11v1.3h-11z"/><path transform="rotate(-180 205.612 106.36)" class="st21" d="M188.2 103h34.9v6.8h-34.9z"/><path class="st13" d="M209.7 105.3l-.4.7v1.5l.4.4v.9h-.4v1h1.5v-1h-.5v-.9l.5-.4V106l-.5-.7.3-.8.2-1.1h-1.5l.1 1.1zm2.5 0l-.5.7v1.5l.5.4v.9h-.5v1h1.5v-1h-.4v-.9l.4-.4V106l-.4-.7.3-.8.1-1.1h-1.5l.2 1.1zm2.4 0l-.4.7v1.5l.4.4v.9h-.4v1h1.5v-1h-.5v-.9l.5-.4V106l-.5-.7.3-.8.2-1.1h-1.5l.1 1.1zm2.4 0l-.4.7v1.5l.4.4v.9h-.4v1h1.5v-1h-.4v-.9l.4-.4V106l-.4-.7.2-.8.2-1.1h-1.5l.2 1.1zm2.5 0l-.5.7v1.5l.5.4v.9h-.5v1h1.5v-1h-.4v-.9l.4-.4V106l-.4-.7.3-.8.1-1.1H219l.2 1.1zm-22 0l-.4.7v1.5l.4.4v.9h-.4v1h1.5v-1h-.5v-.9l.5-.4V106l-.5-.7.3-.8.2-1.1h-1.5l.1 1.1zm2.5 0l-.5.7v1.5l.5.4v.9h-.5v1h1.5v-1h-.4v-.9l.4-.4V106l-.4-.7.2-.8.2-1.1h-1.5l.2 1.1zm2.4 0l-.5.7v1.5l.5.4v.9h-.5v1h1.6v-1h-.5v-.9l.5-.4V106l-.5-.7.3-.8.2-1.1h-1.6l.2 1.1zm-12.1 0l-.4.7v1.5l.4.4v.9h-.4v1h1.5v-1h-.5v-.9l.5-.4V106l-.5-.7.3-.8.2-1.1h-1.5l.2 1.1zm2.5 0l-.5.7v1.5l.5.4v.9h-.5v1h1.5v-1h-.4v-.9l.4-.4V106l-.4-.7.3-.8.1-1.1h-1.5l.2 1.1zm2.4 0l-.4.7v1.5l.4.4v.9h-.4v1h1.5v-1h-.5v-.9l.5-.4V106l-.5-.7.3-.8.2-1.1h-1.5l.1 1.1zm9.6 0l-.4.7v1.5l.4.4v.9h-.4v1h1.5v-1h-.5v-.9l.5-.4V106l-.5-.7.3-.8.2-1.1h-1.5l.2 1.1zm2.5 0l-.5.7v1.5l.5.4v.9h-.5v1h1.5v-1h-.4v-.9l.4-.4V106l-.4-.7.3-.8.1-1.1h-1.5l.2 1.1z"/><path transform="rotate(-180 205.706 102.957)" class="st15" d="M189.1 102.3h33.2v1.2h-33.2z"/><path transform="rotate(-180 205.706 110.834)" class="st18" d="M189.1 110h33.2v1.6h-33.2z"/><path transform="rotate(-180 186.624 102.957)" class="st14" d="M183.5 101.9h6.3v2h-6.3z"/><path transform="rotate(-180 186.624 106.653)" class="st18" d="M184.3 104h4.7v5.4h-4.7z"/><path transform="rotate(-180 186.624 110.043)" class="st14" d="M183.7 108.8h5.9v2.5h-5.9z"/><path transform="rotate(-180 186.624 111.243)" class="st15" d="M183.1 110.6h7.1v1.4h-7.1z"/><path transform="rotate(-180 186.624 102.063)" class="st15" d="M183.1 101.4h7.1v1.4h-7.1z"/><path transform="rotate(-180 224.522 102.957)" class="st14" d="M221.4 101.9h6.3v2h-6.3z"/><path transform="rotate(-180 224.522 106.653)" class="st18" d="M222.2 104h4.7v5.4h-4.7z"/><path transform="rotate(-180 224.522 110.043)" class="st14" d="M221.6 108.8h5.9v2.5h-5.9z"/><path transform="rotate(-180 224.522 111.243)" class="st15" d="M221 110.6h7.1v1.4H221z"/><path transform="rotate(-180 224.522 102.063)" class="st15" d="M221 101.4h7.1v1.4H221z"/><path transform="rotate(-180 205.573 112.231)" class="st15" d="M138.6 111.6h134v1.2h-134z"/><path transform="rotate(-180 205.573 113.441)" class="st14" d="M140.2 112.8h130.7v1.2H140.2z"/><path transform="rotate(-180 164.226 89.213)" class="st23" d="M144.2 88.9h40.1v.5h-40.1z"/><path transform="rotate(-180 164.857 69.529)" class="st21" d="M163.7 63h2.3v13h-2.3z"/><path transform="rotate(-180 247.545 89.213)" class="st23" d="M227.5 88.9h40.1v.5h-40.1z"/><path transform="rotate(-180 205.12 141.505)" class="st23" d="M142.6 141.2h124.9v.5H142.6z"/><path transform="rotate(-180 248.176 69.529)" class="st21" d="M247 63h2.3v13H247z"/><path class="st14" d="M157.5 81.9v21.8h14.8V81.9c0-3.3-3.3-6-7.4-6-4.1.1-7.4 2.7-7.4 6z"/><path class="st25" d="M169.9 83.8c0-2.8-2.3-5-5-5s-5 2.3-5 5"/><path class="st26" d="M165.8 83.5c0-.5-.4-.9-.9-.9s-.9.4-.9.9"/><path transform="rotate(-180 164.895 93.003)" class="st27" d="M159.9 83.8H170v18.4h-10.1z"/><path class="st25" d="M164.9 78.7v4m-3.5-2.4l2.7 2.8m4.4-2.9l-2.8 2.7"/><path transform="rotate(-180 162.696 86.912)" class="st28" d="M161.4 84.9h2.7V89h-2.7z"/><path transform="rotate(-180 167.094 86.912)" class="st28" d="M165.8 84.9h2.7V89h-2.7z"/><path transform="rotate(-180 162.696 92.297)" class="st28" d="M161.4 90.3h2.7v4.1h-2.7z"/><path transform="rotate(-180 167.094 92.297)" class="st28" d="M165.8 90.3h2.7v4.1h-2.7z"/><path class="st28" d="M159.9 95.6h10m-1.1 0v6.4m-1.7-6.4v6.4m-1.7-6.4v6.4m-1.6-6.4v6.4m-1.7-6.4v6.4"/><path transform="rotate(-180 164.895 102.546)" class="st14" d="M158 102.2h13.8v.6H158z"/><path transform="rotate(-180 164.895 103.245)" class="st13" d="M159 102.7h11.7v1.2H159z"/><path transform="rotate(-180 164.895 104.739)" class="st15" d="M157.5 103.7h14.8v2.1h-14.8z"/><path transform="rotate(-180 170.523 108.562)" class="st14" d="M168.8 105.8h3.5v5.5h-3.5z"/><path transform="rotate(-180 159.034 108.562)" class="st14" d="M157.3 105.8h3.5v5.5h-3.5z"/><path transform="rotate(-180 158.832 111.626)" class="st15" d="M156.3 111.3h5.1v.6h-5.1z"/><path transform="rotate(-180 170.523 111.626)" class="st15" d="M168 111.3h5.1v.6H168z"/><path class="st14" d="M239.3 81.9v21.8h14.8V81.9c0-3.3-3.3-6-7.4-6-4.1.1-7.4 2.7-7.4 6z"/><path class="st25" d="M251.7 83.8c0-2.8-2.3-5-5-5s-5 2.3-5 5"/><path class="st26" d="M247.5 83.5c0-.5-.4-.9-.9-.9s-.9.4-.9.9"/><path transform="rotate(-180 246.686 93.003)" class="st27" d="M241.6 83.8h10.1v18.4h-10.1z"/><path class="st25" d="M246.7 78.7v4m-3.5-2.4l2.7 2.8m4.4-2.9l-2.8 2.7"/><path transform="rotate(-180 244.487 86.912)" class="st28" d="M243.1 84.9h2.7V89h-2.7z"/><path transform="rotate(-180 248.885 86.912)" class="st28" d="M247.5 84.9h2.7V89h-2.7z"/><path transform="rotate(-180 244.487 92.297)" class="st28" d="M243.1 90.3h2.7v4.1h-2.7z"/><path transform="rotate(-180 248.885 92.297)" class="st28" d="M247.5 90.3h2.7v4.1h-2.7z"/><path class="st28" d="M241.6 95.6h10.1m-1.2 0v6.4m-1.6-6.4v6.4m-1.7-6.4v6.4m-1.6-6.4v6.4m-1.7-6.4v6.4"/><path transform="rotate(-180 246.686 102.546)" class="st14" d="M239.8 102.2h13.8v.6h-13.8z"/><path transform="rotate(-180 246.686 103.245)" class="st13" d="M240.8 102.7h11.7v1.2h-11.7z"/><path transform="rotate(-180 246.686 104.739)" class="st15" d="M239.3 103.7h14.8v2.1h-14.8z"/><path transform="rotate(-180 252.314 108.562)" class="st14" d="M250.5 105.8h3.5v5.5h-3.5z"/><path transform="rotate(-180 240.825 108.562)" class="st14" d="M239.1 105.8h3.5v5.5h-3.5z"/><path transform="rotate(-180 240.623 111.626)" class="st15" d="M238.1 111.3h5.1v.6h-5.1z"/><path transform="rotate(-180 252.314 111.626)" class="st15" d="M249.8 111.3h5.1v.6h-5.1z"/><path transform="rotate(-180 186.624 82.758)" class="st14" d="M184.3 64.2h4.7v37.2h-4.7z"/><path transform="rotate(-180 224.522 82.758)" class="st14" d="M222.2 64.2h4.7v37.2h-4.7z"/><path transform="rotate(-180 142.648 88.231)" class="st14" d="M141.1 64.8h3.1v46.8h-3.1z"/><path class="st14" d="M266.9 64.8h3.1v46.8h-3.1z"/><path transform="rotate(-180 167.08 60.03)" class="st14" d="M149.7 57.6h34.8v4.9h-34.8z"/><path transform="rotate(-180 167.206 57.277)" class="st15" d="M149.7 57h35.1v.6h-35.1z"/><path transform="rotate(-180 167.206 56.744)" class="st14" d="M149.7 56.4h35.1v.6h-35.1z"/><path class="st14" d="M226.7 57.6h34.8v4.9h-34.8z"/><path class="st15" d="M226.4 57h35.1v.6h-35.1z"/><path class="st14" d="M226.4 56.4h35.1v.6h-35.1z"/><path class="st13" d="M221.2 63h5.8V52.9h-12.8V56c3.9 0 7 3.2 7 7zm39.9-7h4.8v6.4h-4.8z"/><path class="st15" d="M260.4 55.5h6.2v.5h-6.2zm.4-.5h5.4v.5h-5.4zm-20.3 3.6h.8v.7h-.8zm1.1 0h.8v.7h-.8zm1.2 0h.8v.7h-.8zm1.2 0h.8v.7h-.8zm1.1 0h.8v.7h-.8zm1.2 0h.8v.7h-.8zm1.2 0h.8v.7h-.8zm1.1 0h.8v.7h-.8zm1.2 0h.8v.7h-.8zm1.1 0h.8v.7h-.8zm-10.4 1.1h.8v.7h-.8zm1.1 0h.8v.7h-.8zm1.2 0h.8v.7h-.8zm1.2 0h.8v.7h-.8zm1.1 0h.8v.7h-.8zm1.2 0h.8v.7h-.8zm1.2 0h.8v.7h-.8zm1.1 0h.8v.7h-.8zm1.2 0h.8v.7h-.8zm1.1 0h.8v.7h-.8zm-10.4 1h.8v.7h-.8zm1.1 0h.8v.7h-.8zm1.2 0h.8v.7h-.8zm1.2 0h.8v.7h-.8zm1.1 0h.8v.7h-.8zm1.2 0h.8v.7h-.8zm1.2 0h.8v.7h-.8zm1.1 0h.8v.7h-.8zm1.2 0h.8v.7h-.8zm1.1 0h.8v.7h-.8zm-36.8-8.2h13.8v.8h-13.8z"/><path class="st13" d="M223.8 52.4c-.3 0-.5-.2-.5-.4l.2-7c0-.2.1-.4.3-.4.1 0 .3.2.3.4l.2 7c0 .2-.2.4-.5.4z"/><ellipse class="st14" cx="223.8" cy="48.8" rx="2.1" ry="2"/><path class="st13" d="M221.8 52.7h4c0-.4-.3-.7-.7-.7h-2.6c-.4 0-.7.3-.7.7zm3.1-5.3h-2.1c-.3 0-.5-.2-.5-.5s.2-.5.5-.5h2.1c.3 0 .5.2.5.5s-.3.5-.5.5z"/><path class="st15" d="M224.8 51.8h-2c-.1 0-.2.1-.2.2s.1.2.2.2h2c.1 0 .2-.1.2-.2s-.1-.2-.2-.2z"/><path class="st13" d="M191.4 52.1c.4-2.7 2.7-4.8 5.6-4.8h16.3c2.8 0 5.2 2.1 5.6 4.8h-27.5z"/><path class="st15" d="M213.2 48.1c2.1 0 3.8 1.3 4.5 3.2h-25.3c.7-1.8 2.4-3.2 4.5-3.2h16.3m0-1.7h-16.3c-3.6 0-6.4 2.9-6.4 6.4h29.2c0-3.5-2.9-6.4-6.5-6.4z"/><path class="st13" d="M189.9 63h-5.8V52.9h12.8V56c-3.9 0-7 3.2-7 7zm7.8-5.4v-8.1c0-4.3 3.5-7.8 7.8-7.8s7.8 3.5 7.8 7.8v8.1h-15.6z"/><path class="st15" d="M205.5 42.5c3.9 0 7 3.1 7 7v7.3h-14v-7.3c0-3.8 3.2-7 7-7m0-1.6c-4.8 0-8.7 3.9-8.7 8.7v8.9h17.3v-8.9c.1-4.8-3.8-8.7-8.6-8.7z"/><path transform="rotate(-180 147.66 59.264)" class="st13" d="M145.3 56h4.8v6.4h-4.8z"/><path transform="rotate(-180 147.66 55.789)" class="st15" d="M144.6 55.5h6.2v.5h-6.2z"/><path transform="rotate(-180 147.66 55.19)" class="st15" d="M145 55h5.4v.5H145z"/><path transform="rotate(-180 170.282 58.992)" class="st15" d="M169.9 58.6h.8v.7h-.8z"/><path transform="rotate(-180 169.119 58.992)" class="st15" d="M168.7 58.6h.8v.7h-.8z"/><path transform="rotate(-180 167.955 58.992)" class="st15" d="M167.6 58.6h.8v.7h-.8z"/><path transform="rotate(-180 166.791 58.992)" class="st15" d="M166.4 58.6h.8v.7h-.8z"/><path transform="rotate(-180 165.627 58.992)" class="st15" d="M165.2 58.6h.8v.7h-.8z"/><path transform="rotate(-180 164.464 58.992)" class="st15" d="M164.1 58.6h.8v.7h-.8z"/><path transform="rotate(-180 163.3 58.992)" class="st15" d="M162.9 58.6h.8v.7h-.8z"/><path transform="rotate(-180 162.136 58.992)" class="st15" d="M161.7 58.6h.8v.7h-.8z"/><path transform="rotate(-180 160.972 58.992)" class="st15" d="M160.6 58.6h.8v.7h-.8z"/><path transform="rotate(-180 159.808 58.992)" class="st15" d="M159.4 58.6h.8v.7h-.8z"/><path transform="rotate(-180 170.282 60.03)" class="st15" d="M169.9 59.7h.8v.7h-.8z"/><path transform="rotate(-180 169.119 60.03)" class="st15" d="M168.7 59.7h.8v.7h-.8z"/><path transform="rotate(-180 167.955 60.03)" class="st15" d="M167.6 59.7h.8v.7h-.8z"/><path transform="rotate(-180 166.791 60.03)" class="st15" d="M166.4 59.7h.8v.7h-.8z"/><path transform="rotate(-180 165.627 60.03)" class="st15" d="M165.2 59.7h.8v.7h-.8z"/><path transform="rotate(-180 164.464 60.03)" class="st15" d="M164.1 59.7h.8v.7h-.8z"/><path transform="rotate(-180 163.3 60.03)" class="st15" d="M162.9 59.7h.8v.7h-.8z"/><path transform="rotate(-180 162.136 60.03)" class="st15" d="M161.7 59.7h.8v.7h-.8z"/><path transform="rotate(-180 160.972 60.03)" class="st15" d="M160.6 59.7h.8v.7h-.8z"/><path transform="rotate(-180 159.808 60.03)" class="st15" d="M159.4 59.7h.8v.7h-.8z"/><path transform="rotate(-180 170.282 61.067)" class="st15" d="M169.9 60.7h.8v.7h-.8z"/><path transform="rotate(-180 169.119 61.067)" class="st15" d="M168.7 60.7h.8v.7h-.8z"/><path transform="rotate(-180 167.955 61.067)" class="st15" d="M167.6 60.7h.8v.7h-.8z"/><path transform="rotate(-180 166.791 61.067)" class="st15" d="M166.4 60.7h.8v.7h-.8z"/><path transform="rotate(-180 165.627 61.067)" class="st15" d="M165.2 60.7h.8v.7h-.8z"/><path transform="rotate(-180 164.464 61.067)" class="st15" d="M164.1 60.7h.8v.7h-.8z"/><path transform="rotate(-180 163.3 61.067)" class="st15" d="M162.9 60.7h.8v.7h-.8z"/><path transform="rotate(-180 162.136 61.067)" class="st15" d="M161.7 60.7h.8v.7h-.8z"/><path transform="rotate(-180 160.972 61.067)" class="st15" d="M160.6 60.7h.8v.7h-.8z"/><path transform="rotate(-180 159.808 61.067)" class="st15" d="M159.4 60.7h.8v.7h-.8z"/><path transform="rotate(-180 190.184 52.897)" class="st15" d="M183.3 52.5h13.8v.8h-13.8z"/><path class="st13" d="M187.3 52.4c.3 0 .5-.2.5-.4l-.2-7c0-.2-.1-.4-.3-.4-.1 0-.3.2-.3.4l-.2 7c.1.2.3.4.5.4z"/><ellipse class="st14" cx="187.3" cy="48.8" rx="2.1" ry="2"/><path class="st13" d="M189.3 52.7h-4c0-.4.3-.7.7-.7h2.6c.4 0 .7.3.7.7zm-3-5.3h2.1c.3 0 .5-.2.5-.5s-.2-.5-.5-.5h-2.1c-.3 0-.5.2-.5.5s.2.5.5.5z"/><path class="st15" d="M186.3 51.8h2c.1 0 .2.1.2.2s-.1.2-.2.2h-2c-.1 0-.2-.1-.2-.2s.1-.2.2-.2z"/><path class="st13" d="M201.2 56.5v-6.4c0-2.4 2-4.4 4.4-4.4s4.4 2 4.4 4.4v6.4h-8.8z"/><path class="st15" d="M205.5 46.3c2.1 0 3.9 1.7 3.9 3.9V56h-7.7v-5.9c0-2.1 1.7-3.8 3.8-3.8m0-1c-2.7 0-4.9 2.2-4.9 4.9V57h9.7v-6.9c.1-2.7-2.1-4.8-4.8-4.8z"/><ellipse class="st14" cx="205.6" cy="50.6" rx="1.8" ry="1.7"/><path class="st29" d="M138.6 64.1h52.2c0-3.3 6.6-6 14.8-6s14.8 2.7 14.8 6h52.4"/><path class="st30" d="M137.1 63h53.4c0-3.3 6.8-6 15.2-6 8.4 0 15.2 2.7 15.2 6h53.6"/><path transform="rotate(-180 186.48 114.546)" class="st15" d="M183.1 114h6.8v1h-6.8z"/><path transform="rotate(-180 224.522 114.546)" class="st15" d="M221.1 114h6.8v1h-6.8z"/><path transform="rotate(-180 186.624 136.568)" class="st14" d="M184.4 117.6h4.5v38h-4.5z"/><path transform="rotate(-180 186.624 156.107)" class="st18" d="M183.8 155.6h5.7v1.1h-5.7z"/><path transform="rotate(-180 186.624 161.452)" class="st15" d="M184.1 156.7h5.1v9.6h-5.1z"/><path transform="rotate(-180 224.522 136.568)" class="st14" d="M222.3 117.6h4.5v38h-4.5z"/><path transform="rotate(-180 224.522 156.107)" class="st18" d="M221.7 155.6h5.7v1.1h-5.7z"/><path transform="rotate(-180 224.522 161.452)" class="st15" d="M222 156.7h5.1v9.6H222z"/><path transform="rotate(-180 164.895 139.606)" class="st14" d="M156.2 125.3h17.4v28.6h-17.4z"/><path transform="rotate(-180 164.895 141.404)" class="st25" d="M158.9 128.9h11.9v25h-11.9z"/><path transform="rotate(-180 167.443 133.278)" class="st28" d="M165.3 130.4h4.2v5.8h-4.2z"/><path transform="rotate(-180 167.443 139.45)" class="st28" d="M165.3 137.4h4.2v4.1h-4.2z"/><path transform="rotate(-180 167.443 144.945)" class="st28" d="M165.3 142.9h4.2v4.1h-4.2z"/><path transform="rotate(-180 167.443 150.44)" class="st28" d="M165.3 148.4h4.2v4.1h-4.2z"/><path transform="rotate(-180 162.348 133.278)" class="st28" d="M160.2 130.4h4.2v5.8h-4.2z"/><path transform="rotate(-180 162.348 139.45)" class="st28" d="M160.2 137.4h4.2v4.1h-4.2z"/><path transform="rotate(-180 162.348 144.945)" class="st28" d="M160.2 142.9h4.2v4.1h-4.2z"/><path transform="rotate(-180 162.348 150.44)" class="st28" d="M160.2 148.4h4.2v4.1h-4.2z"/><path transform="rotate(-180 164.895 154.725)" class="st15" d="M155.2 153.9h19.4v1.7h-19.4z"/><path transform="rotate(-180 164.895 156.107)" class="st18" d="M155.9 155.6h18v1.1h-18z"/><path transform="rotate(-180 205.658 139.606)" class="st14" d="M197 125.3h17.4v28.6H197z"/><path transform="rotate(-180 205.54 141.404)" class="st25" d="M199.6 128.9h11.9v25h-11.9z"/><path transform="rotate(-180 208.087 133.278)" class="st28" d="M206 130.4h4.2v5.8H206z"/><path transform="rotate(-180 208.087 139.45)" class="st28" d="M206 137.4h4.2v4.1H206z"/><path transform="rotate(-180 208.087 144.945)" class="st28" d="M206 142.9h4.2v4.1H206z"/><path transform="rotate(-180 208.087 150.44)" class="st28" d="M206 148.4h4.2v4.1H206z"/><path transform="rotate(-180 202.992 133.278)" class="st28" d="M200.9 130.4h4.2v5.8h-4.2z"/><path transform="rotate(-180 202.992 139.45)" class="st28" d="M200.9 137.4h4.2v4.1h-4.2z"/><path transform="rotate(-180 202.992 144.945)" class="st28" d="M200.9 142.9h4.2v4.1h-4.2z"/><path transform="rotate(-180 202.992 150.44)" class="st28" d="M200.9 148.4h4.2v4.1h-4.2z"/><path transform="rotate(-180 205.573 154.725)" class="st15" d="M195.8 153.9h19.4v1.7h-19.4z"/><path transform="rotate(-180 205.556 156.107)" class="st18" d="M196.5 155.6h18v1.1h-18z"/><path transform="rotate(-180 246.77 139.606)" class="st14" d="M238.1 125.3h17.4v28.6h-17.4z"/><path transform="rotate(-180 246.653 141.404)" class="st25" d="M240.7 128.9h11.9v25h-11.9z"/><path transform="rotate(-180 249.2 133.278)" class="st28" d="M247.1 130.4h4.2v5.8h-4.2z"/><path transform="rotate(-180 249.2 139.45)" class="st28" d="M247.1 137.4h4.2v4.1h-4.2z"/><path transform="rotate(-180 249.2 144.945)" class="st28" d="M247.1 142.9h4.2v4.1h-4.2z"/><path transform="rotate(-180 249.2 150.44)" class="st28" d="M247.1 148.4h4.2v4.1h-4.2z"/><path transform="rotate(-180 244.105 133.278)" class="st28" d="M242 130.4h4.2v5.8H242z"/><path transform="rotate(-180 244.105 139.45)" class="st28" d="M242 137.4h4.2v4.1H242z"/><path transform="rotate(-180 244.105 144.945)" class="st28" d="M242 142.9h4.2v4.1H242z"/><path transform="rotate(-180 244.105 150.44)" class="st28" d="M242 148.4h4.2v4.1H242z"/><path transform="rotate(-180 246.686 154.725)" class="st15" d="M237 153.9h19.4v1.7H237z"/><path transform="rotate(-180 246.67 156.107)" class="st18" d="M237.7 155.6h18v1.1h-18z"/><path class="st14" d="M110.6 112.7v2.6h16.1v-2.6h-4.4l-1-1.4c-.4-.6-1-1-1.7-1.2-.6-.2-1.2-.2-1.8 0-.7.2-1.3.6-1.7 1.2l-1 1.4h-4.5z"/><circle class="st15" cx="118.7" cy="113" r="1.2"/><path transform="rotate(-180 109.728 116.912)" class="st15" d="M108.6 112.2h2.2v9.4h-2.2z"/><path transform="rotate(-180 126.137 116.912)" class="st15" d="M125 112.2h2.2v9.4H125z"/><path transform="rotate(-180 98.045 115.43)" class="st15" d="M86.9 114.9h22.2v1H86.9z"/><path transform="rotate(-180 115.986 120.211)" class="st15" d="M87.4 120h57.1v.5H87.4z"/><path transform="rotate(-180 135.494 115.43)" class="st15" d="M127 114.9h16.9v1H127z"/><path transform="rotate(-180 112.09 143.279)" class="st15" d="M88.7 142.7h46.8v1.1H88.7z"/><path transform="rotate(-180 140.073 142.748)" class="st14" d="M135.2 134.8h9.7v16h-9.7z"/><path transform="rotate(-180 140.073 143.754)" class="st16" d="M136.7 136.8h6.7v14h-6.7z"/><path transform="rotate(-180 141.498 139.208)" class="st17" d="M140.3 137.6h2.3v3.2h-2.3z"/><path transform="rotate(-180 141.498 142.661)" class="st17" d="M140.3 141.5h2.3v2.3h-2.3z"/><path transform="rotate(-180 141.498 145.735)" class="st17" d="M140.3 144.6h2.3v2.3h-2.3z"/><path transform="rotate(-180 141.498 148.808)" class="st17" d="M140.3 147.7h2.3v2.3h-2.3z"/><path transform="rotate(-180 138.648 139.208)" class="st17" d="M137.5 137.6h2.3v3.2h-2.3z"/><path transform="rotate(-180 138.648 142.661)" class="st17" d="M137.5 141.5h2.3v2.3h-2.3z"/><path transform="rotate(-180 138.648 145.735)" class="st17" d="M137.5 144.6h2.3v2.3h-2.3z"/><path transform="rotate(-180 138.648 148.808)" class="st17" d="M137.5 147.7h2.3v2.3h-2.3z"/><path transform="rotate(-180 140.073 151.206)" class="st15" d="M134.6 150.7h10.9v.9h-10.9z"/><path transform="rotate(-180 140.073 151.979)" class="st18" d="M135 151.7h10.1v.6H135z"/><path class="st19" d="M140.1 115.2l-1.2 10.7-2 3.5h1.7l-1.9 31.3h6.7V115z"/><path transform="rotate(-180 119.226 142.748)" class="st14" d="M114.4 134.8h9.7v16h-9.7z"/><path transform="rotate(-180 119.226 143.754)" class="st16" d="M115.9 136.8h6.7v14h-6.7z"/><path transform="rotate(-180 120.651 139.208)" class="st17" d="M119.5 137.6h2.3v3.2h-2.3z"/><path transform="rotate(-180 120.651 142.661)" class="st17" d="M119.5 141.5h2.3v2.3h-2.3z"/><path transform="rotate(-180 120.651 145.735)" class="st17" d="M119.5 144.6h2.3v2.3h-2.3z"/><path transform="rotate(-180 120.651 148.808)" class="st17" d="M119.5 147.7h2.3v2.3h-2.3z"/><path transform="rotate(-180 117.8 139.208)" class="st17" d="M116.6 137.6h2.3v3.2h-2.3z"/><path transform="rotate(-180 117.8 142.661)" class="st17" d="M116.6 141.5h2.3v2.3h-2.3z"/><path transform="rotate(-180 117.8 145.735)" class="st17" d="M116.6 144.6h2.3v2.3h-2.3z"/><path transform="rotate(-180 117.8 148.808)" class="st17" d="M116.6 147.7h2.3v2.3h-2.3z"/><path transform="rotate(-180 119.226 151.206)" class="st15" d="M113.8 150.7h10.9v.9h-10.9z"/><path transform="rotate(-180 119.226 151.979)" class="st18" d="M114.2 151.7h10.1v.6h-10.1z"/><path transform="rotate(-180 98.379 142.748)" class="st14" d="M93.5 134.8h9.7v16h-9.7z"/><path transform="rotate(-180 98.379 143.754)" class="st16" d="M95 136.8h6.7v14H95z"/><path transform="rotate(-180 99.804 139.208)" class="st17" d="M98.6 137.6h2.3v3.2h-2.3z"/><path transform="rotate(-180 99.804 142.661)" class="st17" d="M98.6 141.5h2.3v2.3h-2.3z"/><path transform="rotate(-180 99.804 145.735)" class="st17" d="M98.6 144.6h2.3v2.3h-2.3z"/><path transform="rotate(-180 99.804 148.808)" class="st17" d="M98.6 147.7h2.3v2.3h-2.3z"/><path transform="rotate(-180 96.953 139.208)" class="st17" d="M95.8 137.6h2.3v3.2h-2.3z"/><path transform="rotate(-180 96.953 142.661)" class="st17" d="M95.8 141.5h2.3v2.3h-2.3z"/><path transform="rotate(-180 96.953 145.735)" class="st17" d="M95.8 144.6h2.3v2.3h-2.3z"/><path transform="rotate(-180 96.953 148.808)" class="st17" d="M95.8 147.7h2.3v2.3h-2.3z"/><path transform="rotate(-180 98.379 151.206)" class="st15" d="M92.9 150.7h10.9v.9H92.9z"/><path transform="rotate(-180 98.379 151.979)" class="st18" d="M93.3 151.7h10.1v.6H93.3z"/><path transform="rotate(-180 144.396 140.147)" class="st14" d="M142.6 114h3.5v52.2h-3.5z"/><path transform="rotate(-180 266.65 140.147)" class="st14" d="M264.9 114h3.5v52.2h-3.5z"/><path transform="rotate(-180 88.593 138.306)" class="st14" d="M87.4 115.9h2.3v44.7h-2.3z"/><path class="st19" d="M222.2 114.5l-37.8 29.3v-29.3zm-47.6 41.1l-3.7 10.6h-19.6l3.9-10.6zm-49.9-3.9l-2.1 8.9H112l2.1-8.9zm-20.9 0l-2 8.9H91.2l2.1-8.9zm111.3 3.9l-3.7 10.6h-19.6l3.9-10.6zm41.3 0l-3.8 10.6H233l4-10.6zm-2.3-49.8l-2.4 6.4H237l2.1-6.4zm-81.4 0l-2.3 6.4h-14.7l2-6.4zm145.1 45.9l-2 8.9h-10.7l2.2-8.9zm-20.8 0l-2.1 8.9h-10.6l2.1-8.9z"/><path class="st31" d="M331.2 161.9c0-1.9-1.5-3.4-3.4-3.4-.2 0-.5 0-.7.1v-.1c0-1.9-1.5-3.4-3.4-3.4-1.4 0-2.6.8-3.1 2-.3-.3-.8-.5-1.3-.5-.8 0-1.6.5-1.9 1.3-.8-.7-1.9-1.1-3.1-1.1-.7 0-1.4.2-2 .4-.1-1.8-1.5-3.3-3.4-3.3-1.3 0-2.4.7-3 1.8-.3-.3-.8-.4-1.3-.4-1.1 0-2 .9-2 2 0 .3.1.6.2.8-.5-.4-1.2-.6-1.9-.6-.8 0-1.5.3-2 .7-.1-2.7-2.3-4.8-5-4.8-2.3 0-4.3 1.6-4.8 3.8-.4-.4-.9-.6-1.5-.6-1.1 0-2 .9-2 2 0 .3.1.6.2.8-.3-.1-.5-.1-.8-.1-.7 0-1.3.2-1.8.5.2-.4.2-.8.2-1.2 0-1.9-1.5-3.4-3.4-3.4-.9 0-1.7.4-2.3.9-.7-1.8-2.5-3.1-4.6-3.1-2.7 0-5 2.2-5 5v3.6m-125.4-.3c0-1.9-1.5-3.4-3.4-3.4-.2 0-.5 0-.7.1v-.1c0-1.9-1.5-3.4-3.4-3.4-1.4 0-2.6.8-3.1 2-.3-.3-.8-.5-1.3-.5-.8 0-1.6.5-1.9 1.3-.8-.7-1.9-1.1-3.1-1.1-.7 0-1.4.2-2 .4-.1-1.8-1.5-3.3-3.4-3.3-1.3 0-2.4.7-3 1.8-.3-.3-.8-.4-1.3-.4-1.1 0-2 .9-2 2 0 .3.1.6.2.8-.5-.4-1.2-.6-1.9-.6-.8 0-1.5.3-2 .7-.1-2.7-2.3-4.8-5-4.8-2.3 0-4.3 1.6-4.8 3.8-.4-.4-.9-.6-1.5-.6-1.1 0-2 .9-2 2 0 .3.1.6.2.8-.3-.1-.5-.1-.8-.1-.7 0-1.3.2-1.8.5.2-.4.2-.8.2-1.2 0-1.9-1.5-3.4-3.4-3.4-.9 0-1.7.4-2.3.9-.7-1.8-2.5-3.1-4.6-3.1-2.7 0-5 2.2-5 5v3.6"/><path class="st32" d="M142.2 160.8c.4 0 .8 0 1.1.1v-.1c0-3 2.4-5.4 5.4-5.4 2.2 0 4.2 1.4 5 3.3.6-.5 1.3-.7 2.1-.7 1.4 0 2.6.8 3.1 2 1.4-1.1 3.1-1.7 5-1.7 1.2 0 2.3.3 3.3.7.1-2.9 2.5-5.3 5.4-5.3 1 0 1.9.3 2.7.7 1.4-1.3 3.3-2.1 5.4-2.1 3.4 0 6.2 2.1 7.4 5 .7-.6 1.5-1.1 2.4-1.3 1.5-1.9 3.8-3.2 6.4-3.2 3.4 0 6.3 2.1 7.5 5.2.4 0 .8.1 1.2.3.4-.2.8-.3 1.2-.3 1.2-3 4.1-5.2 7.5-5.2 2.6 0 4.9 1.3 6.4 3.2.9.2 1.7.7 2.4 1.3 1.2-2.9 4.1-5 7.4-5 2.1 0 3.9.8 5.4 2.1.8-.5 1.7-.7 2.7-.7 3 0 5.4 2.4 5.4 5.3 1-.5 2.1-.7 3.3-.7 1.9 0 3.6.7 5 1.7.5-1.2 1.7-2 3.1-2 .8 0 1.5.3 2.1.7.8-1.9 2.8-3.3 5-3.3 3 0 5.4 2.4 5.4 5.4v.1c.4-.1.7-.1 1.1-.1 3 0 5.4 2.4 5.4 5.4H136.7c0-3 2.5-5.4 5.5-5.4z"/><path class="st19" d="M249.4 64.8l-22.5 34V64.7zm-81.9 0l-22.5 34V64.7z"/><path class="st6" d="M254.9 54.2c.4-7.6 4.6-19.9 10.6-27.7 3.3-4.2 4.8-8.3 4.8-10.8 0-8.7-7-15.7-15.5-15.7-8.6 0-15.5 7-15.5 15.7 0 2.5 1.5 6.6 4.8 10.8 6.1 7.8 10.2 20.1 10.6 27.7h.2z"/><circle class="st34" cx="254.8" cy="15.1" r="6.6"/><path class="st14" d="M328.8 105.4h13.3v1.4h-13.3z"/><path class="st15" d="M329.7 105.4l1.5-2.7h-.5l.4-11.5-.6-3.9.7-1.2-.7-3.2 1.2-1-1.3-2 .7-1.6-.9-2-1-1.1 1.2-3.4-.9-7-.4-.8.1-.5-.1-.4v-.3l.1-.4.1-.1.1-.6-1.1-.7.4-1.4h2.4l.6 1.4-1.2.7v.7l.6 1.2.1.8-.3.6 1.5 6.7 1.1 2.5.3-1.2v-1.2l-.2-1.1 1-.8 1.3-.4 1 .3.9.7.2.7-.1.9.2.7-.1.4.1.7V75l.7 1.7 1 .8 1.1 2.9 1 .8 1.3 3.7-.3 3.4-1.3.9.6 6.3-.4.2.1 1-.6.5.2 3.1-.5.7.5 4.4z"/><path class="st15" d="M337.3 76.2l-.2-2-2.4.1-.1.9.9.7 1.8.6v-.3"/><path class="st13" d="M337.9 71.8l2.7-.3-2.7-.4v.7m-.1-.8l2.4-1.2-2.7.6.3.6m-.7-.7l1.4-2.3-2 2 .6.3m-.8-.7l-.6-2.7-.1 2.8.7-.1"/><path class="st14" d="M335.1 70.2l-2.1-1.7 1.7 2.2.4-.5m-.4.7l-2.6-.6 2.4 1.2.2-.6"/><path class="st14" d="M334.6 71.4l-2.7.2 2.7.4v-.6"/><path class="st18" d="M333.8 73h.4l.4-.6 1.1-1.3 1.6 1.3.7.8.1-.4-.2-.7.1-.9-.2-.7-.9-.7-1-.3-1.3.4-1 .8.2 1.1V73"/><path class="st14" d="M333.8 72l1.1-1.2 1-.2 1 .2 1 1.2.1-.8-.9-.8-1.1-.4-1.3.4-1 1 .1.6m.8 3.2l.1-.8-.1-.6-.5 1 .5.4m2.7-1l.8 2.3-.8-.3-.2-1.8.2-.2"/><path class="st18" d="M337.3 72.4v1.8l-.5.6h-1.1v-3.7z"/><path class="st14" d="M334.6 72.4v1.8l.4.6h.7v-3.7zm-4.4-15.9l-.5 1.4-.2-.5v.9l-.3.2-.1.4.2.4h.7"/><path class="st15" d="M331 57.5l.1.7-.3.5-.3.6h-.5l.2-2.7.2.8.2-.5.1.6.1-.3z"/><path class="st14" d="M329.3 59.3h1.2v.3h-1.2z"/><path class="st13" d="M330 59.6V61h1.7l-.6-1.4H330"/><path class="st14" d="M328.3 61h3.4l-1.7 1.1-1.7-1.1"/><path class="st13" d="M332.4 71.8l-1.5-6.8.3-.6-.1-.8-.6-1.2-.3-.2-.1.5.3.6-.9 1.5z"/><path class="st14" d="M330.4 71.8l.3 2.4 1.7-2.5-2.9-6.9.9 7"/><path class="st14" d="M329.5 61.7h.8v4h-.8z"/><path class="st13" d="M329.5 64.7v-.6h.5l.2-.2-.2-.2h-.5l.1-.1h.5l.1-.1-.1-.3h-.6v-.3h.5v-.2l-.2-.1-.5-.3-.1.1-.1.4v.3l.1.4-.1.5.4.7m3.7 8.8l-3 2.8.9 2 2.4-4.1-.3-.7"/><path class="st18" d="M334.1 74.8l-2.4 7.1-1.3-2 3.1-5.7z"/><path class="st13" d="M337.3 76.5l-5.6 5.4 2.4-7.1 1.4 1.1zm.5.7l-7.3 10.1.6 3.9 6.7-14"/><path class="st14" d="M338.4 77.4l.4-.7-1.5-.5v.3l.5.7.6.2"/><path class="st15" d="M343.1 85.7l.9-.3-.1-1.1-.2-.3-.5.9-.1.8"/><path class="st14" d="M341.6 89.3l-1.8-11.8 1.1 2.9 1 .8 1.3 3.7-.3 3.4-1.3 1"/><path class="st18" d="M331.1 91.2l6.7-14 .6.2 1.6 4.8-9 13.5.1-4.5"/><path class="st13" d="M340.4 95.2l.9-.4-1.3-12.6-.9 1.2-1.3 13.3 2.6-1.5"/><path class="st14" d="M335.4 89l-4.4 6.7-.3 7 4.7-13.7m2.4-3.5l-2.4 3.5-4.7 13.7h.5l6.6-17.2"/><path class="st13" d="M337.8 85.5l-6.6 17.2 6.9-4.5-1-1 .7-11.7"/><path class="st14" d="M337.1 97.2l.7-11.7 1.3-2.1-1.3 13.3-.7.5"/><path class="st15" d="M341.5 105.4l-10.3-2.7 6.9-4.5-1-1 3.3-2 1.1 10.2"/><path class="st13" d="M341.2 86.9l.6.4 3.7-6.1-2.6-1.5-2.3 3.3.6 3.9"/><path class="st14" d="M343.8 84.4l-.4-.6.2-.3.5.5.2-.1-.7-.6.2-.3.5.5h.1l-.5-.7.3-.1.6.7.1-.2-.2-.5-.4-.3.2-.3.5.4.4 1-1.4 1.9-.3-.8z"/><path class="st35" d="M320.6 112.2h34l-1.8-4.5-15.2-3.6-15.2 3.6z"/><path transform="rotate(180 337.31 113.32)" class="st36" d="M318.6 112.2h37.5v2.2h-37.5z"/><path transform="rotate(180 337.31 115.485)" class="st37" d="M321 114.4h32.6v2.2H321z"/><path transform="rotate(180 337.31 117.65)" class="st35" d="M322.3 116.6h30.1v2.2h-30.1z"/><path transform="rotate(180 337.31 155.954)" class="st36" d="M318.6 154.9h37.5v2.2h-37.5z"/><path transform="rotate(180 337.31 153.789)" class="st37" d="M321 152.7h32.6v2.2H321z"/><path transform="rotate(180 337.31 151.624)" class="st35" d="M322.3 150.5h30.1v2.2h-30.1z"/><path transform="rotate(180 337.113 134.637)" class="st36" d="M323.7 118.7h26.8v31.8h-26.8z"/><path transform="rotate(180 330.5 134.637)" class="st4" d="M323.7 118.7h13.6v31.8h-13.6z"/><path transform="rotate(180 336.877 162.39)" class="st35" d="M316.1 157h41.6v10.7h-41.6z"/><path transform="rotate(180 322.941 162.39)" class="st4" d="M316.1 157h13.7v10.7h-13.7z"/><path class="st38" d="M332.2 131.4v-6.2H326z"/><path class="st37" d="M342.4 131.4v-6.2h6.2z"/><path transform="rotate(180 344.137 161.31)" class="st37" d="M336.3 159.7h15.6v3.2h-15.6z"/><path transform="rotate(180 344.137 164.676)" class="st39" d="M340.6 164.2h7.2v.9h-7.2z"/><path transform="rotate(180 322.86 162.157)" class="st36" d="M320.1 159.4h5.5v5.5h-5.5z"/><path class="st40" d="M344 105.4l-21.7 62.3h-6.2V157l7.5-7.6.1-30.7-5.1-6.5 3.8-4.5 15.2-3.6z"/></svg>