<?xml version="1.0" encoding="utf-8"?>
<!-- Generator: Adobe Illustrator 19.2.1, SVG Export Plug-In . SVG Version: 6.00 Build 0)  -->
<svg version="1.1" id="Camada_1" xmlns="http://www.w3.org/2000/svg" xmlns:xlink="http://www.w3.org/1999/xlink" x="0px" y="0px"
	 viewBox="0 0 383.1 167.7" style="enable-background:new 0 0 383.1 167.7;" xml:space="preserve">
<style type="text/css">
	.st0{fill:#9A211F;}
	.st1{fill:#D23D3B;}
	.st2{fill:#FFFFFF;}
	.st3{opacity:0.15;fill:#3B5A7A;}
	.st4{fill:#88CAC4;}
	.st5{fill:none;stroke:#88CAC4;stroke-width:0.3413;stroke-miterlimit:10;}
	.st6{fill:#DF4837;}
	.st7{fill:#A0221F;}
	.st8{fill:#8F1714;}
	.st9{fill:#B73939;}
	.st10{fill:#FF9494;}
	.st11{fill:#EA7567;}
	.st12{opacity:0.3;fill:#D23D3B;}
	.st13{fill:#E47100;}
	.st14{fill:#FC861D;}
	.st15{fill:#BF5B00;}
	.st16{fill:#BF5B00;stroke:#E47100;stroke-width:0.319;stroke-miterlimit:10;}
	.st17{fill:#A55207;stroke:#FC861D;stroke-width:0.2142;stroke-miterlimit:10;}
	.st18{fill:#A55207;}
	.st19{opacity:0.3;fill:#E47100;}
	.st20{fill:none;stroke:#FC861D;stroke-width:1.5985;stroke-miterlimit:10;}
	.st21{fill:#BF5B00;stroke:#E47100;stroke-width:0.7399;stroke-miterlimit:10;}
	.st22{fill:#E47100;stroke:#E47100;stroke-width:0.7399;stroke-miterlimit:10;}
	.st23{fill:#E47100;stroke:#BF5B00;stroke-width:0.7399;stroke-miterlimit:10;}
	.st24{fill:#A55207;stroke:#FC861D;stroke-width:0.7399;stroke-miterlimit:10;}
	.st25{fill:#BF5B00;stroke:#E47100;stroke-width:0.5703;stroke-miterlimit:10;}
	.st26{fill:#E47100;stroke:#E47100;stroke-width:0.5703;stroke-miterlimit:10;}
	.st27{fill:#E47100;stroke:#BF5B00;stroke-width:0.5703;stroke-miterlimit:10;}
	.st28{fill:#A55207;stroke:#FC861D;stroke-width:0.3829;stroke-miterlimit:10;}
	.st29{fill:none;stroke:#E47100;stroke-width:1.5985;stroke-miterlimit:10;}
	.st30{fill:none;stroke:#BF5B00;stroke-width:1.5985;stroke-miterlimit:10;}
	.st31{fill:#9CC93A;}
	.st32{fill:#34B577;}
	.st33{fill:none;stroke:#000000;stroke-width:4.8231;}
	.st34{fill:#BF3025;}
	.st35{fill:#829DAB;}
	.st36{fill:#3B5A7A;}
	.st37{fill:#284159;}
	.st38{fill:#184D45;}
	.st39{fill:#FEF3E7;}
	.st40{opacity:0.3;fill:#3B5A7A;}
	.st41{fill:#E9F2FF;}
	.st42{fill:#2F4961;}
</style>
<g>
	<g>
		<polygon class="st0" points="211.6,89.1 206.4,89.1 203.7,104.9 213.5,104.9 		"/>
		<path class="st1" d="M305.1,29.8c0,0,0.2-0.7,2.5,0.3c2.2,1,3,0.9,3.7,0.6l-1.4,0.9l1,0.8c0,0-1.5,0.4-3.1-0.6
			c-1.6-1-2.7-0.5-2.7-0.5S306.4,30.7,305.1,29.8z"/>
		
			<rect x="304" y="29.5" transform="matrix(-1 -4.334412e-011 4.334412e-011 -1 608.7744 64.6662)" class="st0" width="0.7" height="5.7"/>
		
			<rect x="302.8" y="35.2" transform="matrix(-1 -4.367852e-011 4.367852e-011 -1 608.3614 71.4925)" class="st1" width="2.7" height="1.1"/>
		
			<rect x="300.5" y="36.1" transform="matrix(-1 -4.535140e-011 4.535140e-011 -1 608.061 75.5628)" class="st1" width="7.1" height="3.3"/>
		<polygon class="st1" points="297,88.7 309.3,88.7 309.3,84.8 297.2,84.8 		"/>
		<polygon class="st2" points="297.2,84.8 309.3,84.8 309.3,76.6 308.8,76.4 308.8,74.1 298.1,74.1 298.1,76.4 297.6,76.6 		"/>
		<polygon class="st1" points="298.1,74.1 308.8,74.1 308.7,68.1 298.4,68.1 		"/>
		<polygon class="st2" points="298.4,68.1 308.7,68.1 308.7,65.1 298.5,65.1 		"/>
		<polygon class="st1" points="298.5,65.1 308.7,65.1 308.7,59.2 298.7,59.2 		"/>
		<polygon class="st2" points="298.7,59.2 308.7,59.2 308.6,56.2 298.8,56.2 		"/>
		<polygon class="st1" points="298.8,56.2 308.6,56.2 308.6,50.2 299,50.2 		"/>
		<polygon class="st2" points="299,50.2 308.6,50.2 308.6,47.6 299.1,47.6 		"/>
		<polygon class="st1" points="297.2,43.7 297.7,45.2 299.4,46.1 299.6,47.6 308.6,47.6 308.8,46.1 310.5,45.2 311,43.7 304.1,43.7 
					"/>
		
			<rect x="295.7" y="39.6" transform="matrix(-1 -4.513868e-011 4.513868e-011 -1 607.7305 83.2077)" class="st2" width="16.4" height="4.1"/>
		<path class="st1" d="M302.9,55.1h1.2v-1.8c0-0.3-0.3-0.6-0.6-0.6l0,0c-0.3,0-0.6,0.3-0.6,0.6V55.1z"/>
		<path class="st1" d="M302.5,67.4h1.2v-1.8c0-0.3-0.3-0.6-0.6-0.6l0,0c-0.3,0-0.6,0.3-0.6,0.6V67.4z"/>
		
			<rect x="300.8" y="77.4" transform="matrix(-1 -4.344137e-011 4.344137e-011 -1 605.748 166.0686)" class="st0" width="4.1" height="11.3"/>
		<polygon class="st0" points="340.3,88.1 339.5,96.5 347.5,96.5 346.8,88.1 		"/>
		<polygon class="st0" points="328.4,89.9 325.6,105.4 332.8,105.4 330.9,89.9 		"/>
		<polygon class="st0" points="318,89.3 314.9,89.3 312.8,105.8 319.3,105.8 		"/>
		<polygon class="st0" points="310.8,88.7 295.4,88.7 293,105.1 311.9,105.1 		"/>
		<polygon class="st0" points="254.7,89 250.4,89 247.8,104.4 257.6,104.4 		"/>
		<polygon class="st0" points="277.8,89 274.3,89 272.7,104 279.2,104 		"/>
		<circle class="st1" cx="301.9" cy="82.3" r="0.4"/>
		<polygon class="st1" points="314.3,109.6 312.9,92.1 301.8,92.1 300.6,109.6 		"/>
		<polygon class="st3" points="301.7,36.1 304.9,88.7 307,92.1 310.8,109.6 314.3,109.6 312.9,92.1 311.1,92.3 310.8,88.7 
			309.3,88.7 308.6,47.6 308.8,46.1 310.5,45.2 311,43.7 312.1,43.7 312.1,39.6 307.6,39.4 307.6,36.1 		"/>
	</g>
	<g>
		<path class="st4" d="M113.4,39c1.2,1.8,1.8,2.2,3,3.4c1.2,1.2,1.6,1.5,1.6,1.6c0,0.2,0.2-1.9-0.4-2.6c-0.5-0.7-1-1-1-1
			S113.1,38.6,113.4,39z"/>
		<path class="st4" d="M103.1,69.7c0,0-0.9-3.7-3.9-8.4c-2.5,5.1,0,11.6,0,11.6s1.7,10.8,5.7,11.6c4,0.9,12.1,2.7,12.6-4.1
			c0.5-6.8,3.5-24.2-1.6-25.9c-0.8-0.3-1-0.9-0.8-1.8l0.1-0.9c0,0-9.4,1.8-9.6,6.2s3.1,9.3,3.6,14.8c0.5,5.5-2,8.1-4.8,5.1
			c-2.8-3,0.5-6.8,4.6-6.5c-0.6-2.3-0.9-3.3-0.9-3.3S105.4,68.4,103.1,69.7z"/>
		<path class="st4" d="M118.1,45.1c0.4,2.3-0.9,2.8-0.9,2.8s-2,1.5-5,3.1c-3,1.6-4.9,1.8-4.9,1.8c-0.8-0.9-0.7-4.6-0.8-7.1
			c-0.1-2.5,0-5.1,2-6.2c0.2-1.6,1.5-0.9,1.7-2.5c0.2-1.7-0.5-3.9,2.5-4c3-0.1,2.2,3.8,2.3,4.7c0.1,0.9,2.3,2,2.1,2.7
			c1.6,1,1.1,4,1.1,4S118.4,44.7,118.1,45.1z"/>
		<path class="st4" d="M109.4,46.6c-1.1-0.4,0.8,2.3,2,2.3c1.2,0,4.7-1.5,4.7-1.5l0.5-1.8c0,0-1.2,0.9-2.3,0.6s-2.3-1-2.3-1
			S110.4,46.9,109.4,46.6z"/>
		<path class="st4" d="M117,51.2c-0.8,1.8-8.2,2.8-8.8,4.1c-0.7,1.4-2.6,2.8-2.6,2.8v-1.3c0-2.6,0.9-2.8,1.7-4c0,0,2-0.2,4.9-1.8
			c3-1.6,5-3.1,5-3.1s0,0,0,0C117.3,48,117.8,49.4,117,51.2z"/>
		<g>
			<path class="st4" d="M108.5,39.4c0.2,0.1,0.5,0.1,0.7,0c0.2,0,0.4-0.1,0.6-0.2c0.4-0.2,0.7-0.5,0.9-0.9c0.1-0.2,0.1-0.4,0-0.6
				c0-0.2-0.1-0.4-0.1-0.7c-0.1-0.4-0.2-0.9-0.2-1.4l0-0.1l0.1,0c0.4-0.1,0.7-0.4,1.1-0.7c0.2-0.1,0.3-0.3,0.5-0.5
				c0.1-0.1,0.1-0.2,0.2-0.2c0,0,0-0.1,0.1-0.1c0,0,0-0.1,0,0l0.3-0.1c0.2,0.4,0.4,0.7,0.7,1c0.1,0.1,0.3,0.3,0.4,0.4
				c0.2,0.1,0.3,0.2,0.5,0.2l0.2,0l0,0.2c-0.2,0.5-0.3,1.1-0.5,1.6c-0.1,0.5,0,1.1,0.3,1.5c0.3,0.4,0.8,0.8,1.3,1.1
				c0.5,0.3,1,0.5,1.6,0.5c-0.6,0.1-1.1-0.1-1.6-0.4c-0.3-0.1-0.5-0.3-0.7-0.5c-0.2-0.2-0.5-0.3-0.6-0.6c-0.4-0.5-0.5-1.1-0.4-1.7
				c0.1-0.6,0.3-1.1,0.4-1.6l0.1,0.2c-0.2,0-0.4-0.1-0.6-0.3c-0.2-0.1-0.4-0.3-0.5-0.4c-0.3-0.3-0.5-0.7-0.7-1.1l0.3-0.1
				c0,0.1,0,0.2,0,0.3c0,0.1-0.1,0.1-0.1,0.2c-0.1,0.1-0.1,0.2-0.2,0.3c-0.2,0.2-0.3,0.3-0.5,0.5c-0.2,0.1-0.4,0.3-0.6,0.4
				c-0.2,0.1-0.4,0.3-0.7,0.3l0.1-0.1c0,0.4,0.1,0.9,0.2,1.3c0,0.2,0.1,0.5,0.1,0.7c0,0.2,0,0.5-0.1,0.7c-0.2,0.5-0.6,0.7-1,0.9
				c-0.2,0.1-0.4,0.2-0.7,0.2C108.9,39.5,108.7,39.5,108.5,39.4z"/>
		</g>
		<path class="st5" d="M114.4,40.6c0,0,1.3,2.3,2,2.9c1.7,1.6-2.2,4.5-4.2,1.6c-2,2.8-5.9,0-4.2-1.6c0.7-0.7,2-2.9,2-2.9"/>
		<circle class="st4" cx="108.9" cy="44.1" r="0.4"/>
		<circle class="st4" cx="115.7" cy="44.1" r="0.4"/>
		<g>
			<path class="st4" d="M118.2,44.3c-0.6,0.3-1.1,0.7-1.4,1.2c-0.3,0.6-0.4,1.2-0.6,1.8l0,0.1l-0.1,0c-2.4,0.9-4.7,1.7-7.1,2.4
				l-0.2,0.1l0-0.2c-0.1-1.2-0.2-2.4-0.2-3.6l0,0c-0.4-0.2-0.6-0.6-0.8-1c0.2,0.4,0.5,0.7,0.9,0.9l0,0l0,0c0.2,1.2,0.3,2.4,0.4,3.5
				l-0.2-0.1c2.4-0.8,4.7-1.6,7.1-2.4l-0.1,0.1c0.2-0.6,0.3-1.2,0.7-1.8C117,44.9,117.6,44.5,118.2,44.3z"/>
		</g>
		<path class="st4" d="M115,56.1l-3.1,4.4l-2.7-3.8c0.2,0.2,1.5,1.7,2.6,1.6C113,58.2,114.9,56.3,115,56.1z"/>
		<path class="st4" d="M115.7,56.9c0.1,3.4-1.5,7.5-1.6,9.8c-0.2,2.3,2,9.8,1.7,13.5c-0.3,3.7-0.8,3.8-1.9,4.1
			c-1.1,0.3,1,1.1,2.4-1.4c1.4-2.6,1.9-16.3,1.9-17.1c0.1-0.8-0.2-7.7-1.2-9.2C115.8,55.3,115.7,56.9,115.7,56.9z"/>
		<path class="st4" d="M103,76.7c0.5,1.7-1.7-2.7-0.9-3.8c0.8-1.1,4-3.3,5-3.4c1-0.1,1.2-0.1,1.2-0.1l0.4,2c0,0-3.6,0-4.5,1.3
			S102.7,75.5,103,76.7z"/>
		<path class="st4" d="M99.5,62.6c0,0,2.7,4.7,3.1,7.1c-1.4,1.2-1.4,1.6-1.6,1.9C100.9,71.9,100.8,68.7,99.5,62.6z"/>
		<path class="st4" d="M110.2,58.9c-0.6,1.7-0.7,3.6-1.7,3.3s3,2.7,4.6,7c0-2.1-0.8-6.5-1.4-7.6C111.1,60.5,110.2,58.9,110.2,58.9z"
			/>
		<path class="st4" d="M106.3,57c0.7-1,0.5-2.4,1.3-2.9s5.9-2,6.7-2.5s2.1-1,2.4-1.8c0.3-0.8,0.3,0.9,0,1.3
			c-0.3,0.4-3.2,1.4-3.7,1.6s-4.2,1.3-4.7,1.7S106.3,57,106.3,57z"/>
		<path class="st4" d="M108,44.7c0-0.2,2.2,0.8,2.7,0.5c0.5-0.3,0,0.9-0.9,0.9S107.9,45.3,108,44.7z"/>
		<path class="st4" d="M116.6,44.7c0-0.2-2.2,0.8-2.7,0.5c-0.5-0.3,0,0.9,0.9,0.9S116.7,45.3,116.6,44.7z"/>
		<path class="st6" d="M64.4,93.9v2.2l137.8,6.8l0.3-3.3c-0.8,0.1-1.6,0.1-2.1,0.1c-1.4-0.1-1.7-0.7-3.2-1.3s-1.3-1.4-3-0.6
			c-1.8,0.8-1.3,0.8-2.7,1.1s-3.4,0.1-4.4-0.5s-1.4-1.6-3.1-1.7c-1.7-0.1-2,0.3-3.6,0.5c-1.6,0.1-2.1,0.4-3.7-0.1
			c-1.6-0.5-2.3-1-4-1.2c-1.7-0.2-3-0.3-4.8-0.1c-1.8,0.2-1.3,0.6-3.8,0c-2.4-0.5-3.5-1.2-4.8-1.4c-1.4-0.2-2.1-1-3.6-0.5
			s-2,0.6-3.3,0.8c-1.3,0.2-1.7,0.5-2.7-0.2s-1.4-1.1-2.7-1.1c-1.4,0.1-4.2,1.1-4.9,1s-3.4-0.5-4.6-0.9c-1.2-0.3-1.7-0.6-2.5-0.3
			c-0.8,0.3-1.3,0.2-1.9,0.3c-0.6,0.1-2.7,0.2-2.7,0.2c-4-1.1-7.7-3.5-9.1-5c-1.5-1.5-4.1-4.2-4.8-4.3c-0.7-0.1-3.8-1.1-4.8-1.1
			c-1,0-5.4-0.7-6.4,0c-1,0.7-2.2,2.6-3.6,4c-1.4,1.4-3.6,3.8-4.6,4.7c-0.9,0.9-2.4,1.9-2.4,1.9s-1,0.3-2.3,0
			c-1.4-0.3-1.4-0.2-2.7,0.1c-1.3,0.3-1.2,0.7-2.2,0.3c-1-0.3-2.6-1.8-5-1.4c-2.4,0.4-3.8,1.2-4.5,1.3c-0.8,0.1-2,0.6-2.3,0.3
			c-0.3-0.4-2.3-1-2.7-1.1c-0.4-0.1-2-0.8-3.2,0.3c-1.2,1-1.9,1.2-3.1,1C65.5,94.4,64.9,94.1,64.4,93.9z"/>
		<path class="st7" d="M64.4,95.8l-0.2,5.7l138.2,5.9l0.3-6.6c-1.2-0.4-2.6-0.6-3.5-0.5c-1.2,0.1-2.3,0-3.8-0.2
			c-1.6-0.2-0.7-0.4-3.4-0.1c-2.7,0.3-3.5,0.2-5.3,0.1c-1.8,0-2.4-0.6-4.1-0.7c-1.7-0.2-1.5-0.3-3.7-0.2c-2.2,0.1-4.2,0.5-5.9,0.2
			c-1.7-0.2-1.4-0.5-4.1-0.8c-2.7-0.3-2.6,0.2-5.6,0.4c-3,0.1-5.1,0.8-7.4,0.3c-2.2-0.5-3.2-1.5-5.9-1.5c-2.7,0-5.1-0.8-6.5-0.3
			c-1.4,0.5-4.5,0.7-5,0.7c-0.4,0-4.5-0.1-6.9-0.6c-2.4-0.5-4.6-0.2-8.5-0.4c-3.9-0.2-5.6,0.6-8.3-0.4c-2.6-1-2.8-0.8-5-1
			c-2.2-0.2-2.2-0.1-6.5,0.1c-4.4,0.2-8.6-0.2-10.5,0c-1.8,0.1-2.9,0.2-5.2,0.6c-2.3,0.4-4.2,0-5.4-0.2C81.1,96,81,96,79.1,96
			c-1.8,0-4.5-0.1-5.5-0.2c-1-0.1-1-0.5-2.4-0.3c-1.4,0.2-1.7,0.3-2.9,0.1c-1.2-0.2-1.7-0.3-2.5-0.4C65.4,95.2,64.9,95.8,64.4,95.8z
			"/>
		<path class="st8" d="M64.4,100.6v3.2h138.4v-3.6c-1.7-0.7-3.2-1.7-4.6-1.2c-1.8,0.6-1.4,1-3.6,0.8c-2.2-0.2-2.5-0.6-4-0.9
			c-1.5-0.3,2.7-1.4-3.5-0.5s-6.7,1.3-9.9,1c-3.2-0.3-5.1-0.5-7.4-1c-2.3-0.4-3.6-1.2-5.1-0.4c-1.6,0.8-2.5,0.6-4.5,1.2
			c-2.1,0.6-5,0.3-7.2,0c-2.2-0.3-4.9-0.9-7.4-0.4c-2.6,0.5-6.5,1.7-8.5,1.9c-2.1,0.2-4.1,0.5-6.4,0c-2.3-0.5-7.1-0.8-8.5-0.9
			c-1.5-0.1-0.5,1.5-3.2,0.8c-2.6-0.7-3.5-0.9-5.1-1.3c-1.7-0.4-3.6,0.4-5.4,0.7c-1.7,0.3-2.4,0.4-4.8-0.7c-2.4-1.1-2-2.7-4.7-1.6
			c-2.7,1.1-4.9,1.9-7.3,1.8c-2.4-0.1-5.2,0.1-7.2-0.4c-2-0.5-5.1,0.9-7.3,1.1c-2.2,0.3-2.6-0.1-4.8-0.4c-2.2-0.3-2.9-1.4-4.9-0.3
			C66,100.2,65.1,100.5,64.4,100.6z"/>
		<path class="st4" d="M114.5,35c-0.6-0.4-1.5-1.1-1.5-1.4s0,0.6,0.1,0.7c0.1,0.1,0.6,0.8,0.9,0.8S114.5,35,114.5,35z"/>
		<path class="st4" d="M112.1,33.9c-0.1,0.2-0.2,0.4-0.5,0.7c-0.3,0.3-0.5,0.5-0.7,0.6c-0.2,0-0.4,0-0.4,0s1.1-0.8,1.2-1
			C111.9,34,112.1,33.9,112.1,33.9z"/>
		<path class="st4" d="M111.3,37.6c-0.2-0.4,0.6,0.8,1.1,0.8c0.4,0,1.1-0.9,1.1-0.9s-0.3,1.3-0.7,1.6S111.7,38.3,111.3,37.6z"/>
		<path class="st4" d="M111.9,36.3c0.3,0.1,0.7,0.2,0.8,0s-0.2,0.4-0.3,0.5C112.3,36.9,111.9,36.3,111.9,36.3z"/>
		<path class="st4" d="M114.5,36.3c0,0.2-0.3,1.6,1.1,2.6c1.3,1,1,1.1,1,1.1s-1.6-0.4-1.9-1c-0.4-0.6-0.5-0.9-0.6-1.1
			C114,37.5,114.5,36.3,114.5,36.3z"/>
		<path class="st4" d="M106.9,49.3c0.1,1.1,0.3,3,0.6,3.1c0.3,0.1,0.4,0.3,1.2-0.1c0.8-0.4,8.6-4.2,8.8-4.6c0.2-0.3,0.5-0.8,0.5-1
			s0.1,0.2-0.5,0.6c-0.6,0.4-0.8,0.6-1.7,1.1c-0.9,0.5-7,3.4-7.4,3s-1-0.9-1.1-1.2C107.2,49.8,106.9,49.3,106.9,49.3z"/>
		<path class="st3" d="M113.7,83.3l-15.9,20.5H64.4c0,0,27.4-6,31.1-10.3c3.6-4.3,8-10,9.4-10.3C106.2,82.9,113.7,83.3,113.7,83.3z"
			/>
		<path class="st3" d="M114.3,33.5L109,85.2c-1.5-0.2-2.9-0.5-4.1-0.7c-4-0.9-5.7-11.6-5.7-11.6s-2.5-6.4,0-11.6
			c3,4.7,3.9,8.4,3.9,8.4c2.3-1.3,5-1.5,5-1.5s0.3,1,0.9,3.3c-4.1-0.3-7.3,3.5-4.6,6.5c2.8,3,5.2,0.4,4.8-5.1
			c-0.5-5.5-3.8-10.4-3.6-14.8v-1.3c0-2.6,0.9-2.8,1.7-4c-0.8-0.9-0.7-4.6-0.8-7.1c-0.1-2.5,0-5.1,2-6.2c0.2-1.6,1.5-0.9,1.7-2.5
			c0.2-1.7-0.5-3.9,2.5-4C113.4,32.9,114,33.1,114.3,33.5z"/>
	</g>
	<g>
		<g>
			
				<rect x="2.3" y="141" transform="matrix(-1 -4.500279e-011 4.500279e-011 -1 26.5115 294.4842)" class="st9" width="22" height="12.5"/>
			<path class="st1" d="M91,153.5c0,1.5-15,3.5-33.4,3.5s-33.4-2.1-33.4-3.5v-11.4H91V153.5z"/>
			
				<rect x="0.9" y="154" transform="matrix(-1 -4.527946e-011 4.527946e-011 -1 25.1802 309.5826)" class="st10" width="23.4" height="1.6"/>
			
				<rect x="1.4" y="153.1" transform="matrix(-1 -4.493573e-011 4.493573e-011 -1 25.6893 307.2677)" class="st11" width="22.9" height="1"/>
			<path class="st10" d="M24.3,155.3V154c2.8,1,16.9,3.1,33.8,3.1c15.6,0,28.8-1.8,33-2.8c0.4-0.1,0.8,0.2,0.8,0.7v0.4
				c0,1.2-15.1,3.4-33.8,3.4C39.4,158.8,24.3,156.5,24.3,155.3z"/>
			<path class="st11" d="M24.3,154v-0.9c2.8,0.9,16.8,2.8,33.5,2.8c15.5,0,28.6-1.6,32.7-2.6c0.4-0.1,0.8,0.2,0.8,0.7l0,0
				c0,1.1-15,3.2-33.5,3.2C39.3,157.1,24.3,155.1,24.3,154z"/>
			<path class="st10" d="M91.7,142.8c0,1.1-15.3,1.9-34.1,1.9s-34.1-0.9-34.1-1.9v-1.9h68.2V142.8z"/>
			<path class="st11" d="M92.3,141.6c0,1.1-15.5,1.9-34.6,1.9S23,142.7,23,141.6v-1.9h69.3V141.6z"/>
			<path class="st1" d="M32.4,127.9H36l0.4-12.2c0-0.4,0-0.8,0-1.1L36,100h-3.6l-0.4,14.3c0,0.4,0,0.8,0,1.1L32.4,127.9z"/>
			<path class="st11" d="M24.3,76.6c-0.1,0.3-0.2,0.5-0.2,0.5H25c-0.2-0.4-0.3-0.9-0.3-1.5c0,0,0,0,0,0c0-0.1,0-0.1,0-0.2
				c0-1.3,0.5-2.4,1-2.4c0.2,0,0.3,0.1,0.5,0.3c0.3,0.4,0.5,1.2,0.5,2.1v0c0.4-0.4,0.9-0.9,1.4-1.4c2.8-2.5,7.8-5.2,16.4-6.5
				c0.4-0.1,0.7-0.1,1.1-0.2c0-0.1,0-0.2,0-0.2c0-1.2,0.8-2.1,1.8-2.1c0.9,0,1.7,0.9,1.8,2c0.4,0,0.8-0.1,1.2-0.1
				c1.9-0.1,3.9-0.2,6-0.2c8.1,0,14.1,1,18.7,2.3c0.6,0.2,1.1,0.3,1.6,0.5c0-0.8,0.2-1.5,0.5-2c0.2-0.4,0.5-0.6,0.8-0.6
				c0.5,0,1,0.6,1.2,1.5c0.1,0.4,0.2,0.8,0.2,1.3c0,0.3,0,0.6-0.1,0.9c0.5,0.2,1,0.5,1.5,0.7c3.6,1.9,5.5,4.1,6.5,5.7H88
				c0,0-0.8-4.1-7-7.7c-0.1-2.2-1.4-4-3-4c-1,0-1.8,0.7-2.3,1.7c-4.6-1.5-10.9-2.6-19.6-2.6c-2.2,0-4.2,0.1-6,0.2
				c-0.5-1.3-1.5-2.2-2.6-2.2c-1.3,0-2.4,1.2-2.8,2.8c-9.2,1.3-14.3,4.2-17.2,6.8c-0.4-0.6-0.8-0.9-1.3-0.9c-1.1,0-2.1,1.8-2.1,4
				C24.1,75.6,24.2,76.1,24.3,76.6z"/>
			<path class="st0" d="M24.9,78.2c-0.4,0.7-0.4,1.2-0.4,1.2h63.9c0,0-0.2-0.9-1.1-2.3c-1-1.6-2.9-3.7-6.5-5.7
				c-0.5-0.3-1-0.5-1.5-0.7c0.1-0.3,0.1-0.6,0.1-0.9c0-0.5-0.1-0.9-0.2-1.3C79,67.6,78.5,67,78,67c-0.3,0-0.6,0.2-0.8,0.6
				c-0.3,0.5-0.5,1.2-0.5,2c-0.5-0.2-1-0.4-1.6-0.5c-4.5-1.4-10.6-2.3-18.7-2.3c-2.1,0-4.2,0.1-6,0.2c-0.4,0-0.8,0.1-1.2,0.1
				c-0.1-1.1-0.8-2-1.8-2c-1,0-1.8,1-1.8,2.1c0,0.1,0,0.2,0,0.2c-0.4,0.1-0.8,0.1-1.1,0.2c-8.6,1.3-13.5,4-16.4,6.5
				c-0.5,0.5-1,0.9-1.4,1.4v0c0-0.9-0.2-1.7-0.5-2.1c-0.1-0.2-0.3-0.3-0.5-0.3c-0.6,0-1,1.1-1,2.4c0,0.1,0,0.1,0,0.2c0,0,0,0,0,0
				c0,0.6,0.1,1.1,0.3,1.5h-0.6C24.5,77.6,24.7,77.9,24.9,78.2z"/>
			
				<rect x="7.9" y="128.6" transform="matrix(-1 -4.503254e-011 4.503254e-011 -1 31.4665 257.8022)" class="st11" width="15.8" height="0.7"/>
			
				<rect x="6.9" y="129.1" transform="matrix(-1 -4.488644e-011 4.488644e-011 -1 31.4665 259.078)" class="st10" width="17.6" height="0.9"/>
			
				<rect x="5.9" y="129.9" transform="matrix(-1 -4.507917e-011 4.507917e-011 -1 31.0026 260.7486)" class="st1" width="19.3" height="0.9"/>
			<g>
				<g>
					<path class="st10" d="M21.3,138.2h3l0,0c0-0.5-0.4-0.9-0.9-0.9h-1.1C21.7,137.2,21.3,137.7,21.3,138.2L21.3,138.2z"/>
					<path class="st11" d="M22.3,137.2h1c0.2,0,0.4-0.2,0.4-0.4v0c0-0.2-0.2-0.4-0.4-0.4h-1c-0.2,0-0.4,0.2-0.4,0.4v0
						C21.9,137.1,22.1,137.2,22.3,137.2z"/>
					
						<rect x="22.3" y="136.1" transform="matrix(-1 -6.140123e-011 6.140123e-011 -1 45.5979 272.5995)" class="st1" width="1" height="0.4"/>
					<path class="st10" d="M23.4,134.9h-1.3c-0.3,0-0.6,0.3-0.6,0.6l0,0c0,0.3,0.3,0.6,0.6,0.6h1.3c0.3,0,0.6-0.3,0.6-0.6l0,0
						C24,135.1,23.8,134.9,23.4,134.9z"/>
					
						<rect x="22.3" y="132.5" transform="matrix(-1 -4.621826e-011 4.621826e-011 -1 45.5979 267.5843)" class="st11" width="1.1" height="2.6"/>
					<path class="st10" d="M23.3,132.1h-1c-0.1,0-0.2,0.1-0.2,0.2l0,0c0,0.1,0.1,0.2,0.2,0.2h1c0.1,0,0.2-0.1,0.2-0.2l0,0
						C23.5,132.2,23.4,132.1,23.3,132.1z"/>
					<path class="st11" d="M22.8,132.1L22.8,132.1c0.6,0,1.2-0.5,1.2-1.2v-0.1h-2.3v0.1C21.6,131.6,22.2,132.1,22.8,132.1z"/>
				</g>
				<g>
					<path class="st10" d="M17.7,138.2h3l0,0c0-0.5-0.4-0.9-0.9-0.9h-1.1C18.1,137.2,17.7,137.7,17.7,138.2L17.7,138.2z"/>
					<path class="st11" d="M18.7,137.2h1c0.2,0,0.4-0.2,0.4-0.4l0,0c0-0.2-0.2-0.4-0.4-0.4h-1c-0.2,0-0.4,0.2-0.4,0.4v0
						C18.3,137.1,18.5,137.2,18.7,137.2z"/>
					
						<rect x="18.7" y="136.1" transform="matrix(-1 -4.093404e-011 4.093404e-011 -1 38.3667 272.5995)" class="st1" width="1" height="0.4"/>
					<path class="st10" d="M19.8,134.9h-1.3c-0.3,0-0.6,0.3-0.6,0.6l0,0c0,0.3,0.3,0.6,0.6,0.6h1.3c0.3,0,0.6-0.3,0.6-0.6l0,0
						C20.4,135.1,20.1,134.9,19.8,134.9z"/>
					
						<rect x="18.7" y="132.5" transform="matrix(-1 -4.621826e-011 4.621826e-011 -1 38.3667 267.5843)" class="st11" width="1.1" height="2.6"/>
					<path class="st10" d="M19.7,132.1h-1c-0.1,0-0.2,0.1-0.2,0.2l0,0c0,0.1,0.1,0.2,0.2,0.2h1c0.1,0,0.2-0.1,0.2-0.2l0,0
						C19.9,132.2,19.8,132.1,19.7,132.1z"/>
					<path class="st11" d="M19.2,132.1L19.2,132.1c0.6,0,1.2-0.5,1.2-1.2v-0.1H18v0.1C18,131.6,18.5,132.1,19.2,132.1z"/>
				</g>
				<g>
					<path class="st10" d="M14.1,138.2h3l0,0c0-0.5-0.4-0.9-0.9-0.9H15C14.5,137.2,14.1,137.7,14.1,138.2L14.1,138.2z"/>
					<path class="st11" d="M15.1,137.2h1c0.2,0,0.4-0.2,0.4-0.4v0c0-0.2-0.2-0.4-0.4-0.4h-1c-0.2,0-0.4,0.2-0.4,0.4v0
						C14.7,137.1,14.9,137.2,15.1,137.2z"/>
					
						<rect x="15.1" y="136.1" transform="matrix(-1 -5.023727e-011 5.023727e-011 -1 31.1354 272.5995)" class="st1" width="1" height="0.4"/>
					<path class="st10" d="M16.2,134.9h-1.3c-0.3,0-0.6,0.3-0.6,0.6l0,0c0,0.3,0.3,0.6,0.6,0.6h1.3c0.3,0,0.6-0.3,0.6-0.6l0,0
						C16.8,135.1,16.5,134.9,16.2,134.9z"/>
					
						<rect x="15" y="132.5" transform="matrix(-1 -4.621826e-011 4.621826e-011 -1 31.1354 267.5843)" class="st11" width="1.1" height="2.6"/>
					<path class="st10" d="M16.1,132.1h-1c-0.1,0-0.2,0.1-0.2,0.2l0,0c0,0.1,0.1,0.2,0.2,0.2h1c0.1,0,0.2-0.1,0.2-0.2l0,0
						C16.3,132.2,16.2,132.1,16.1,132.1z"/>
					<path class="st11" d="M15.6,132.1L15.6,132.1c0.6,0,1.2-0.5,1.2-1.2v-0.1h-2.3v0.1C14.4,131.6,14.9,132.1,15.6,132.1z"/>
				</g>
				<g>
					<path class="st10" d="M10.4,138.2h3l0,0c0-0.5-0.4-0.9-0.9-0.9h-1.1C10.9,137.2,10.4,137.7,10.4,138.2L10.4,138.2z"/>
					<path class="st11" d="M11.4,137.2h1c0.2,0,0.4-0.2,0.4-0.4v0c0-0.2-0.2-0.4-0.4-0.4h-1c-0.2,0-0.4,0.2-0.4,0.4v0
						C11.1,137.1,11.2,137.2,11.4,137.2z"/>
					
						<rect x="11.5" y="136.1" transform="matrix(-1 -4.093404e-011 4.093404e-011 -1 23.9042 272.5995)" class="st1" width="1" height="0.4"/>
					<path class="st10" d="M12.6,134.9h-1.3c-0.3,0-0.6,0.3-0.6,0.6l0,0c0,0.3,0.3,0.6,0.6,0.6h1.3c0.3,0,0.6-0.3,0.6-0.6l0,0
						C13.2,135.1,12.9,134.9,12.6,134.9z"/>
					
						<rect x="11.4" y="132.5" transform="matrix(-1 -3.765933e-011 3.765933e-011 -1 23.9042 267.5843)" class="st11" width="1.1" height="2.6"/>
					<path class="st10" d="M12.5,132.1h-1c-0.1,0-0.2,0.1-0.2,0.2l0,0c0,0.1,0.1,0.2,0.2,0.2h1c0.1,0,0.2-0.1,0.2-0.2l0,0
						C12.7,132.2,12.6,132.1,12.5,132.1z"/>
					<path class="st11" d="M12,132.1L12,132.1c0.6,0,1.2-0.5,1.2-1.2v-0.1h-2.3v0.1C10.8,131.6,11.3,132.1,12,132.1z"/>
				</g>
				<g>
					<path class="st10" d="M6.8,138.2h3l0,0c0-0.5-0.4-0.9-0.9-0.9H7.8C7.3,137.2,6.8,137.7,6.8,138.2L6.8,138.2z"/>
					<path class="st11" d="M7.8,137.2h1c0.2,0,0.4-0.2,0.4-0.4v0c0-0.2-0.2-0.4-0.4-0.4h-1c-0.2,0-0.4,0.2-0.4,0.4v0
						C7.5,137.1,7.6,137.2,7.8,137.2z"/>
					
						<rect x="7.8" y="136.1" transform="matrix(-1 -5.023727e-011 5.023727e-011 -1 16.673 272.5995)" class="st1" width="1" height="0.4"/>
					<path class="st10" d="M9,134.9H7.7c-0.3,0-0.6,0.3-0.6,0.6l0,0c0,0.3,0.3,0.6,0.6,0.6H9c0.3,0,0.6-0.3,0.6-0.6l0,0
						C9.5,135.1,9.3,134.9,9,134.9z"/>
					
						<rect x="7.8" y="132.5" transform="matrix(-1 -4.621826e-011 4.621826e-011 -1 16.673 267.5843)" class="st11" width="1.1" height="2.6"/>
					<path class="st10" d="M8.8,132.1h-1c-0.1,0-0.2,0.1-0.2,0.2l0,0c0,0.1,0.1,0.2,0.2,0.2h1c0.1,0,0.2-0.1,0.2-0.2l0,0
						C9.1,132.2,9,132.1,8.8,132.1z"/>
					<path class="st11" d="M8.3,132.1L8.3,132.1c0.6,0,1.2-0.5,1.2-1.2v-0.1H7.2v0.1C7.2,131.6,7.7,132.1,8.3,132.1z"/>
				</g>
				
					<rect x="5.6" y="138.2" transform="matrix(-1 -4.504986e-011 4.504986e-011 -1 30.1924 277.0503)" class="st11" width="18.9" height="0.7"/>
				
					<rect x="5.6" y="138.9" transform="matrix(-1 -4.504453e-011 4.504453e-011 -1 29.9522 279.2186)" class="st10" width="18.7" height="1.5"/>
			</g>
			<polygon class="st10" points="38.3,128.4 24.4,129.3 24.4,130.9 38.3,129.8 			"/>
			<polygon class="st11" points="38.3,127.7 23.7,128.6 23.7,129.6 38.3,128.5 			"/>
			<path class="st11" d="M29.5,128.2h-6.3l0,0c0-0.6,0.5-1,1-1h4.2C29,127.2,29.5,127.6,29.5,128.2L29.5,128.2z"/>
			<polygon class="st10" points="37.5,127.2 23.2,128.1 23.2,128.7 37.5,127.7 			"/>
			<g>
				<g>
					<path class="st10" d="M38.4,139.1l-2.7-0.3l0,0c0-0.6,0.4-1.1,1-1.1l0.8,0.1C38,138,38.4,138.5,38.4,139.1L38.4,139.1z"/>
					<path class="st11" d="M37.5,137.9l-0.8-0.1c-0.2,0-0.4-0.2-0.4-0.5l0,0c0-0.3,0.2-0.4,0.4-0.4l0.8,0.1c0.2,0,0.4,0.2,0.4,0.5
						l0,0C37.8,137.7,37.7,137.9,37.5,137.9z"/>
					<polygon class="st1" points="37.5,136.5 36.6,136.4 36.6,136.9 37.5,137 					"/>
					<path class="st10" d="M36.5,135l1,0c0.3,0,0.6,0.3,0.6,0.7l0,0c0,0.4-0.2,0.7-0.5,0.7l-1,0c-0.3,0-0.6-0.3-0.6-0.7v0
						C35.9,135.3,36.2,135,36.5,135z"/>
					<polygon class="st11" points="37.5,132 36.6,132.1 36.6,135.3 37.5,135.2 					"/>
					<path class="st10" d="M36.6,131.5l0.8-0.1c0.1,0,0.2,0.1,0.2,0.3l0,0c0,0.2-0.1,0.3-0.2,0.3l-0.8,0.1c-0.1,0-0.2-0.1-0.2-0.3
						l0,0C36.4,131.7,36.5,131.6,36.6,131.5z"/>
					<path class="st11" d="M37,131.6L37,131.6c-0.6,0.1-1-0.5-1-1.2v-0.3l2.1-0.2v0.3C38.1,130.9,37.6,131.5,37,131.6z"/>
				</g>
				<g>
					<path class="st10" d="M35,139l-2.7-0.3l0,0c0-0.6,0.4-1.1,1-1l0.8,0.1C34.6,137.8,35,138.4,35,139L35,139z"/>
					<path class="st11" d="M34.1,137.8l-0.8-0.1c-0.2,0-0.4-0.2-0.4-0.5v0c0-0.2,0.2-0.4,0.4-0.4l0.8,0.1c0.2,0,0.4,0.2,0.4,0.5l0,0
						C34.5,137.6,34.3,137.8,34.1,137.8z"/>
					<polygon class="st1" points="34.1,136.5 33.3,136.4 33.3,136.8 34.1,136.9 					"/>
					<path class="st10" d="M33.1,135l1,0c0.3,0,0.6,0.3,0.6,0.7l0,0c0,0.4-0.2,0.7-0.5,0.6l-1,0c-0.3,0-0.6-0.3-0.6-0.7l0,0
						C32.6,135.2,32.8,134.9,33.1,135z"/>
					<polygon class="st11" points="34.2,132.1 33.2,132.2 33.2,135.2 34.2,135.2 					"/>
					<path class="st10" d="M33.3,131.6l0.8-0.1c0.1,0,0.2,0.1,0.2,0.2l0,0c0,0.1-0.1,0.3-0.2,0.3l-0.8,0.1c-0.1,0-0.2-0.1-0.2-0.2
						l0,0C33,131.8,33.2,131.7,33.3,131.6z"/>
					<path class="st11" d="M33.7,131.7L33.7,131.7c-0.6,0.1-1-0.5-1-1.1v-0.3l2.1-0.2v0.3C34.7,131,34.3,131.6,33.7,131.7z"/>
				</g>
				<g>
					<path class="st10" d="M31.5,138.8l-2.7-0.3l0,0c0-0.6,0.4-1,1-1l0.8,0.1C31,137.7,31.5,138.2,31.5,138.8L31.5,138.8z"/>
					<path class="st11" d="M30.5,137.6l-0.8-0.1c-0.2,0-0.4-0.2-0.4-0.5l0,0c0-0.2,0.2-0.4,0.4-0.4l0.8,0.1c0.2,0,0.4,0.2,0.4,0.5
						l0,0C30.9,137.5,30.7,137.7,30.5,137.6z"/>
					<polygon class="st1" points="30.6,136.4 29.7,136.3 29.7,136.7 30.6,136.8 					"/>
					<path class="st10" d="M29.6,134.9l1,0c0.3,0,0.6,0.3,0.6,0.7l0,0c0,0.3-0.2,0.6-0.5,0.6l-1,0c-0.3,0-0.6-0.3-0.6-0.7l0,0
						C29,135.2,29.2,134.9,29.6,134.9z"/>
					<polygon class="st11" points="30.6,132.2 29.6,132.3 29.6,135.2 30.6,135.1 					"/>
					<path class="st10" d="M29.7,131.8l0.8-0.1c0.1,0,0.2,0.1,0.2,0.2l0,0c0,0.1-0.1,0.3-0.2,0.3l-0.8,0.1c-0.1,0-0.2-0.1-0.2-0.2
						l0,0C29.5,131.9,29.6,131.8,29.7,131.8z"/>
					<path class="st11" d="M30.1,131.8L30.1,131.8c-0.6,0-1-0.4-1-1.1v-0.3l2.1-0.2v0.3C31.2,131.2,30.7,131.8,30.1,131.8z"/>
				</g>
				<g>
					<path class="st10" d="M28,138.5l-2.7-0.2l0,0c0-0.5,0.4-0.9,1-0.9l0.8,0.1C27.6,137.5,28,137.9,28,138.5L28,138.5z"/>
					<path class="st11" d="M27.1,137.4l-0.8-0.1c-0.2,0-0.4-0.2-0.4-0.4l0,0c0-0.2,0.2-0.4,0.4-0.4l0.8,0.1c0.2,0,0.4,0.2,0.4,0.4
						l0,0C27.4,137.3,27.3,137.4,27.1,137.4z"/>
					<polygon class="st1" points="27.1,136.2 26.2,136.2 26.2,136.6 27.1,136.6 					"/>
					<path class="st10" d="M26.1,134.9l1,0c0.3,0,0.6,0.3,0.6,0.6l0,0c0,0.3-0.2,0.6-0.5,0.6l-1,0c-0.3,0-0.6-0.3-0.6-0.6h0
						C25.5,135.2,25.8,134.9,26.1,134.9z"/>
					<polygon class="st11" points="27.1,132.4 26.2,132.4 26.2,135.2 27.1,135.1 					"/>
					<path class="st10" d="M26.2,132l0.8-0.1c0.1,0,0.2,0.1,0.2,0.2l0,0c0,0.1-0.1,0.2-0.2,0.3l-0.8,0.1c-0.1,0-0.2-0.1-0.2-0.2l0,0
						C26,132.1,26.1,132,26.2,132z"/>
					<path class="st11" d="M26.7,132L26.7,132c-0.6,0-1-0.4-1-1v-0.3l2.1-0.2v0.3C27.7,131.4,27.2,132,26.7,132z"/>
				</g>
				<polygon class="st11" points="24.2,138.9 38.6,140 38.6,139.2 24.2,138.2 				"/>
				<polygon class="st10" points="23,140.3 38.4,141.6 38.4,140 23,138.7 				"/>
			</g>
			<polygon class="st1" points="24.9,138.9 23.6,138.8 23.6,130.9 24.9,130.9 			"/>
			<path class="st11" d="M38.4,126.4h6.3l0,0c0-0.6-0.5-1-1-1h-4.2C38.8,125.3,38.4,125.8,38.4,126.4L38.4,126.4z"/>
			
				<rect x="37" y="126.4" transform="matrix(-1 -4.436774e-011 4.436774e-011 -1 82.9776 254.0861)" class="st10" width="9" height="1.3"/>
			
				<rect x="46.5" y="127.9" transform="matrix(-1 -4.497037e-011 4.497037e-011 -1 112.6481 256.6025)" class="st11" width="19.6" height="0.9"/>
			
				<rect x="45.4" y="128.6" transform="matrix(-1 -4.485713e-011 4.485713e-011 -1 112.6481 258.188)" class="st11" width="21.9" height="1.1"/>
			
				<rect x="44.1" y="129.6" transform="matrix(-1 -4.462176e-011 4.462176e-011 -1 112.0715 260.2641)" class="st10" width="24" height="1.1"/>
			
				<rect x="36.4" y="127.7" transform="matrix(-1 -4.559476e-011 4.559476e-011 -1 82.9776 256.2534)" class="st11" width="10.1" height="0.9"/>
			
				<rect x="37.6" y="128.6" transform="matrix(-1 -4.609347e-011 4.609347e-011 -1 82.9776 258.188)" class="st11" width="7.8" height="1.1"/>
			<path class="st11" d="M68,126.4h6.3l0,0c0-0.6-0.5-1-1-1h-4.2C68.5,125.3,68,125.8,68,126.4L68,126.4z"/>
			
				<rect x="66.6" y="126.4" transform="matrix(-1 -4.436774e-011 4.436774e-011 -1 142.3185 254.0861)" class="st10" width="9" height="1.3"/>
			
				<rect x="66.1" y="127.7" transform="matrix(-1 -4.541490e-011 4.541490e-011 -1 142.3185 256.2534)" class="st11" width="10.1" height="0.9"/>
			
				<rect x="67.3" y="128.6" transform="matrix(-1 -4.469681e-011 4.469681e-011 -1 142.3185 258.188)" class="st10" width="7.8" height="1.1"/>
			<g>
				<g>
					<path class="st10" d="M63.2,139.8H67l0,0c0-0.6-0.5-1.2-1.2-1.2h-1.4C63.8,138.7,63.2,139.2,63.2,139.8L63.2,139.8z"/>
					<path class="st11" d="M64.5,138.7h1.3c0.3,0,0.5-0.2,0.5-0.5l0,0c0-0.3-0.2-0.5-0.5-0.5h-1.3c-0.3,0-0.5,0.2-0.5,0.5l0,0
						C64,138.5,64.2,138.7,64.5,138.7z"/>
					
						<rect x="64.5" y="137.3" transform="matrix(-1 -5.090474e-011 5.090474e-011 -1 130.2097 274.9918)" class="st1" width="1.2" height="0.5"/>
					<path class="st10" d="M65.9,135.8h-1.6c-0.4,0-0.7,0.3-0.7,0.7l0,0c0,0.4,0.3,0.7,0.7,0.7h1.6c0.4,0,0.7-0.3,0.7-0.7l0,0
						C66.6,136.1,66.3,135.8,65.9,135.8z"/>
					
						<rect x="64.4" y="132.8" transform="matrix(-1 -4.545532e-011 4.545532e-011 -1 130.2097 268.7592)" class="st11" width="1.3" height="3.2"/>
					<path class="st10" d="M65.7,132.2h-1.2c-0.2,0-0.3,0.1-0.3,0.3l0,0c0,0.2,0.1,0.3,0.3,0.3h1.2c0.2,0,0.3-0.1,0.3-0.3l0,0
						C66,132.3,65.9,132.2,65.7,132.2z"/>
					<path class="st11" d="M65.1,132.3L65.1,132.3c0.8,0,1.5-0.7,1.5-1.5v-0.2h-2.9v0.2C63.7,131.6,64.3,132.3,65.1,132.3z"/>
				</g>
				<g>
					<path class="st10" d="M58.7,139.8h3.7l0,0c0-0.6-0.5-1.2-1.2-1.2h-1.4C59.3,138.7,58.7,139.2,58.7,139.8L58.7,139.8z"/>
					<path class="st11" d="M60,138.7h1.3c0.3,0,0.5-0.2,0.5-0.5l0,0c0-0.3-0.2-0.5-0.5-0.5H60c-0.3,0-0.5,0.2-0.5,0.5l0,0
						C59.5,138.5,59.7,138.7,60,138.7z"/>
					
						<rect x="60" y="137.3" transform="matrix(-1 -4.192170e-011 4.192170e-011 -1 121.2232 274.9918)" class="st1" width="1.2" height="0.5"/>
					<path class="st10" d="M61.4,135.8h-1.6c-0.4,0-0.7,0.3-0.7,0.7l0,0c0,0.4,0.3,0.7,0.7,0.7h1.6c0.4,0,0.7-0.3,0.7-0.7l0,0
						C62.1,136.1,61.8,135.8,61.4,135.8z"/>
					
						<rect x="60" y="132.8" transform="matrix(-1 -4.545532e-011 4.545532e-011 -1 121.2232 268.7592)" class="st11" width="1.3" height="3.2"/>
					<path class="st10" d="M61.2,132.2H60c-0.2,0-0.3,0.1-0.3,0.3l0,0c0,0.2,0.1,0.3,0.3,0.3h1.2c0.2,0,0.3-0.1,0.3-0.3l0,0
						C61.5,132.3,61.4,132.2,61.2,132.2z"/>
					<path class="st11" d="M60.6,132.3L60.6,132.3c0.8,0,1.5-0.7,1.5-1.5v-0.2h-2.9v0.2C59.2,131.6,59.8,132.3,60.6,132.3z"/>
				</g>
				<g>
					<path class="st10" d="M54.2,139.8H58v0c0-0.6-0.5-1.2-1.2-1.2h-1.4C54.8,138.7,54.2,139.2,54.2,139.8L54.2,139.8z"/>
					<path class="st11" d="M55.5,138.7h1.3c0.3,0,0.5-0.2,0.5-0.5l0,0c0-0.3-0.2-0.5-0.5-0.5h-1.3c-0.3,0-0.5,0.2-0.5,0.5l0,0
						C55,138.5,55.2,138.7,55.5,138.7z"/>
					
						<rect x="55.5" y="137.3" transform="matrix(-1 -4.192170e-011 4.192170e-011 -1 112.2366 274.9918)" class="st1" width="1.2" height="0.5"/>
					<path class="st10" d="M56.9,135.8h-1.6c-0.4,0-0.7,0.3-0.7,0.7l0,0c0,0.4,0.3,0.7,0.7,0.7h1.6c0.4,0,0.7-0.3,0.7-0.7l0,0
						C57.6,136.1,57.3,135.8,56.9,135.8z"/>
					
						<rect x="55.5" y="132.8" transform="matrix(-1 -4.545532e-011 4.545532e-011 -1 112.2366 268.7592)" class="st11" width="1.3" height="3.2"/>
					<path class="st10" d="M56.7,132.2h-1.2c-0.2,0-0.3,0.1-0.3,0.3l0,0c0,0.2,0.1,0.3,0.3,0.3h1.2c0.2,0,0.3-0.1,0.3-0.3l0,0
						C57,132.3,56.9,132.2,56.7,132.2z"/>
					<path class="st11" d="M56.1,132.3L56.1,132.3c0.8,0,1.5-0.7,1.5-1.5v-0.2h-2.9v0.2C54.7,131.6,55.3,132.3,56.1,132.3z"/>
				</g>
				<g>
					<path class="st10" d="M49.8,139.8h3.7v0c0-0.6-0.5-1.2-1.2-1.2h-1.4C50.3,138.7,49.8,139.2,49.8,139.8L49.8,139.8z"/>
					<path class="st11" d="M51,138.7h1.3c0.3,0,0.5-0.2,0.5-0.5l0,0c0-0.3-0.2-0.5-0.5-0.5H51c-0.3,0-0.5,0.2-0.5,0.5l0,0
						C50.5,138.5,50.7,138.7,51,138.7z"/>
					
						<rect x="51" y="137.3" transform="matrix(-1 -4.940771e-011 4.940771e-011 -1 103.2501 274.9918)" class="st1" width="1.2" height="0.5"/>
					<path class="st10" d="M52.4,135.8h-1.6c-0.4,0-0.7,0.3-0.7,0.7l0,0c0,0.4,0.3,0.7,0.7,0.7h1.6c0.4,0,0.7-0.3,0.7-0.7l0,0
						C53.1,136.1,52.8,135.8,52.4,135.8z"/>
					
						<rect x="51" y="132.8" transform="matrix(-1 -4.545532e-011 4.545532e-011 -1 103.2501 268.7592)" class="st11" width="1.3" height="3.2"/>
					<path class="st10" d="M52.2,132.2H51c-0.2,0-0.3,0.1-0.3,0.3l0,0c0,0.2,0.1,0.3,0.3,0.3h1.2c0.2,0,0.3-0.1,0.3-0.3l0,0
						C52.5,132.3,52.4,132.2,52.2,132.2z"/>
					<path class="st11" d="M51.6,132.3L51.6,132.3c0.8,0,1.5-0.7,1.5-1.5v-0.2h-2.9v0.2C50.2,131.6,50.8,132.3,51.6,132.3z"/>
				</g>
				<g>
					<path class="st10" d="M45.3,139.8H49l0,0c0-0.6-0.5-1.2-1.2-1.2h-1.4C45.8,138.7,45.3,139.2,45.3,139.8L45.3,139.8z"/>
					<path class="st11" d="M46.5,138.7h1.3c0.3,0,0.5-0.2,0.5-0.5l0,0c0-0.3-0.2-0.5-0.5-0.5h-1.3c-0.3,0-0.5,0.2-0.5,0.5l0,0
						C46,138.5,46.2,138.7,46.5,138.7z"/>
					
						<rect x="46.5" y="137.3" transform="matrix(-1 -4.940771e-011 4.940771e-011 -1 94.2635 274.9918)" class="st1" width="1.2" height="0.5"/>
					<path class="st10" d="M47.9,135.8h-1.6c-0.4,0-0.7,0.3-0.7,0.7l0,0c0,0.4,0.3,0.7,0.7,0.7h1.6c0.4,0,0.7-0.3,0.7-0.7l0,0
						C48.6,136.1,48.3,135.8,47.9,135.8z"/>
					
						<rect x="46.5" y="132.8" transform="matrix(-1 -4.545532e-011 4.545532e-011 -1 94.2635 268.7592)" class="st11" width="1.3" height="3.2"/>
					<path class="st10" d="M47.8,132.2h-1.2c-0.2,0-0.3,0.1-0.3,0.3l0,0c0,0.2,0.1,0.3,0.3,0.3h1.2c0.2,0,0.3-0.1,0.3-0.3l0,0
						C48,132.3,47.9,132.2,47.8,132.2z"/>
					<path class="st11" d="M47.1,132.3L47.1,132.3c0.8,0,1.5-0.7,1.5-1.5v-0.2h-2.9v0.2C45.7,131.6,46.3,132.3,47.1,132.3z"/>
				</g>
				
					<rect x="44.9" y="139.8" transform="matrix(-1 -4.478030e-011 4.478030e-011 -1 112.207 280.523)" class="st11" width="22.3" height="0.9"/>
				
					<rect x="45.6" y="140.7" transform="matrix(-1 -4.498636e-011 4.498636e-011 -1 112.602 283.2176)" class="st10" width="21.3" height="1.8"/>
			</g>
			<g>
				
					<rect x="37.6" y="139.1" transform="matrix(-1 -4.518043e-011 4.518043e-011 -1 82.9776 278.9666)" class="st11" width="7.8" height="0.7"/>
				
					<rect x="37" y="139.8" transform="matrix(-1 -4.500235e-011 4.500235e-011 -1 82.9776 280.8212)" class="st10" width="8.9" height="1.2"/>
				
					<rect x="36.6" y="141" transform="matrix(-1 -4.462309e-011 4.462309e-011 -1 82.9776 283.3304)" class="st11" width="9.8" height="1.3"/>
				
					<rect x="36.1" y="142.3" transform="matrix(-1 -4.558321e-011 4.558321e-011 -1 82.9776 285.0322)" class="st10" width="10.7" height="0.4"/>
			</g>
			
				<rect x="38" y="129.6" transform="matrix(-1 -4.357282e-011 4.357282e-011 -1 82.9776 268.739)" class="st1" width="6.9" height="9.6"/>
			<polygon class="st11" points="74.9,128.4 88.8,129.3 88.8,130.9 74.9,129.8 			"/>
			<polygon class="st10" points="74.9,127.7 89.5,128.6 89.5,129.6 74.9,128.5 			"/>
			<path class="st11" d="M83.7,128.2H90l0,0c0-0.6-0.5-1-1-1h-4.2C84.2,127.2,83.7,127.6,83.7,128.2L83.7,128.2z"/>
			<polygon class="st11" points="75.7,127.2 90,128.1 90,128.7 75.7,127.7 			"/>
			<g>
				<path class="st10" d="M74.8,139.1l2.7-0.3l0,0c0-0.6-0.4-1.1-1-1.1l-0.8,0.1C75.2,138,74.8,138.5,74.8,139.1L74.8,139.1z"/>
				<path class="st11" d="M75.8,137.9l0.8-0.1c0.2,0,0.4-0.2,0.4-0.5l0,0c0-0.3-0.2-0.4-0.4-0.4l-0.8,0.1c-0.2,0-0.4,0.2-0.4,0.5
					l0,0C75.4,137.7,75.6,137.9,75.8,137.9z"/>
				<polygon class="st1" points="75.7,136.5 76.6,136.4 76.6,136.9 75.7,137 				"/>
				<path class="st10" d="M76.7,135l-1,0c-0.3,0-0.6,0.3-0.6,0.7l0,0c0,0.4,0.2,0.7,0.5,0.7l1,0c0.3,0,0.6-0.3,0.6-0.7v0
					C77.3,135.3,77.1,135,76.7,135z"/>
				<polygon class="st11" points="75.7,132 76.6,132.1 76.6,135.3 75.7,135.2 				"/>
				<path class="st10" d="M76.6,131.5l-0.8-0.1c-0.1,0-0.2,0.1-0.2,0.3l0,0c0,0.2,0.1,0.3,0.2,0.3l0.8,0.1c0.1,0,0.2-0.1,0.2-0.3
					l0,0C76.8,131.7,76.7,131.6,76.6,131.5z"/>
				<path class="st11" d="M76.2,131.6L76.2,131.6c0.6,0.1,1-0.5,1-1.2v-0.3l-2.1-0.2v0.3C75.1,130.9,75.6,131.5,76.2,131.6z"/>
			</g>
			<g>
				<path class="st10" d="M78.2,139l2.7-0.3l0,0c0-0.6-0.4-1.1-1-1l-0.8,0.1C78.6,137.8,78.2,138.4,78.2,139L78.2,139z"/>
				<path class="st11" d="M79.1,137.8l0.8-0.1c0.2,0,0.4-0.2,0.4-0.5l0,0c0-0.2-0.2-0.4-0.4-0.4l-0.8,0.1c-0.2,0-0.4,0.2-0.4,0.5
					l0,0C78.7,137.6,78.9,137.8,79.1,137.8z"/>
				<polygon class="st1" points="79.1,136.5 80,136.4 80,136.8 79.1,136.9 				"/>
				<path class="st10" d="M80.1,135l-1,0c-0.3,0-0.6,0.3-0.6,0.7l0,0c0,0.4,0.2,0.7,0.5,0.6l1,0c0.3,0,0.6-0.3,0.6-0.7l0,0
					C80.6,135.2,80.4,134.9,80.1,135z"/>
				<polygon class="st11" points="79,132.1 80,132.2 80,135.2 79,135.2 				"/>
				<path class="st10" d="M79.9,131.6l-0.8-0.1c-0.1,0-0.2,0.1-0.2,0.2l0,0c0,0.1,0.1,0.3,0.2,0.3l0.8,0.1c0.1,0,0.2-0.1,0.2-0.2
					l0,0C80.2,131.8,80.1,131.7,79.9,131.6z"/>
				<path class="st11" d="M79.5,131.7L79.5,131.7c0.6,0.1,1-0.5,1-1.1v-0.3l-2.1-0.2v0.3C78.5,131,78.9,131.6,79.5,131.7z"/>
			</g>
			<g>
				<path class="st10" d="M81.7,138.8l2.7-0.3l0,0c0-0.6-0.4-1-1-1l-0.8,0.1C82.2,137.7,81.7,138.2,81.7,138.8L81.7,138.8z"/>
				<path class="st11" d="M82.7,137.6l0.8-0.1c0.2,0,0.4-0.2,0.4-0.5l0,0c0-0.2-0.2-0.4-0.4-0.4l-0.8,0.1c-0.2,0-0.4,0.2-0.4,0.5
					l0,0C82.3,137.5,82.5,137.7,82.7,137.6z"/>
				<polygon class="st1" points="82.7,136.4 83.5,136.3 83.5,136.7 82.7,136.8 				"/>
				<path class="st10" d="M83.7,134.9l-1,0c-0.3,0-0.6,0.3-0.6,0.7l0,0c0,0.3,0.2,0.6,0.5,0.6l1,0c0.3,0,0.6-0.3,0.6-0.7l0,0
					C84.2,135.2,84,134.9,83.7,134.9z"/>
				<polygon class="st11" points="82.6,132.2 83.6,132.3 83.6,135.2 82.6,135.1 				"/>
				<path class="st10" d="M83.5,131.8l-0.8-0.1c-0.1,0-0.2,0.1-0.2,0.2l0,0c0,0.1,0.1,0.3,0.2,0.3l0.8,0.1c0.1,0,0.2-0.1,0.2-0.2
					l0,0C83.7,131.9,83.6,131.8,83.5,131.8z"/>
				<path class="st11" d="M83.1,131.8L83.1,131.8c0.6,0,1-0.4,1-1.1v-0.3l-2.1-0.2v0.3C82,131.2,82.5,131.8,83.1,131.8z"/>
			</g>
			<g>
				<path class="st10" d="M85.2,138.5l2.7-0.2l0,0c0-0.5-0.4-0.9-1-0.9l-0.8,0.1C85.6,137.5,85.2,137.9,85.2,138.5L85.2,138.5z"/>
				<path class="st11" d="M86.1,137.4l0.8-0.1c0.2,0,0.4-0.2,0.4-0.4l0,0c0-0.2-0.2-0.4-0.4-0.4l-0.8,0.1c-0.2,0-0.4,0.2-0.4,0.4
					l0,0C85.8,137.3,85.9,137.4,86.1,137.4z"/>
				<polygon class="st1" points="86.1,136.2 87,136.2 87,136.6 86.1,136.6 				"/>
				<path class="st10" d="M87.1,134.9l-1,0c-0.3,0-0.6,0.3-0.6,0.6l0,0c0,0.3,0.2,0.6,0.5,0.6l1,0c0.3,0,0.6-0.3,0.6-0.6l0,0
					C87.7,135.2,87.4,134.9,87.1,134.9z"/>
				<polygon class="st11" points="86.1,132.4 87,132.4 87,135.2 86.1,135.1 				"/>
				<path class="st10" d="M87,132l-0.8-0.1c-0.1,0-0.2,0.1-0.2,0.2l0,0c0,0.1,0.1,0.2,0.2,0.3l0.8,0.1c0.1,0,0.2-0.1,0.2-0.2l0,0
					C87.2,132.1,87.1,132,87,132z"/>
				<path class="st11" d="M86.6,132L86.6,132c0.6,0,1-0.4,1-1v-0.3l-2.1-0.2v0.3C85.5,131.4,86,132,86.6,132z"/>
			</g>
			<polygon class="st11" points="89,138.9 74.6,140 74.6,139.2 89,138.2 			"/>
			<polygon class="st10" points="90.2,140.3 74.8,141.6 74.8,140 90.2,138.7 			"/>
			
				<rect x="89.2" y="128.7" transform="matrix(-1 -4.728008e-011 4.728008e-011 -1 179.8587 258.3388)" class="st11" width="1.5" height="0.8"/>
			
				<rect x="88.8" y="129.6" transform="matrix(-1 -4.893920e-011 4.893920e-011 -1 178.9171 260.4971)" class="st10" width="1.3" height="1.3"/>
			<polygon class="st1" points="88.3,138.9 89.6,138.8 89.6,130.9 88.3,130.9 			"/>
			
				<rect x="90.2" y="138.7" transform="matrix(-1 -4.027635e-011 4.027635e-011 -1 181.6045 277.8144)" class="st10" width="1.2" height="0.5"/>
			
				<rect x="90.2" y="139.1" transform="matrix(-1 -4.813539e-011 4.813539e-011 -1 182.4635 279.4783)" class="st11" width="2.1" height="1.2"/>
			<g>
				
					<rect x="67.3" y="139.1" transform="matrix(-1 -4.518043e-011 4.518043e-011 -1 142.3185 278.9666)" class="st11" width="7.8" height="0.7"/>
				
					<rect x="66.7" y="139.8" transform="matrix(-1 -4.377488e-011 4.377488e-011 -1 142.3185 280.8212)" class="st10" width="8.9" height="1.2"/>
				
					<rect x="66.2" y="141" transform="matrix(-1 -4.388235e-011 4.388235e-011 -1 142.3185 283.3304)" class="st11" width="9.8" height="1.3"/>
				
					<rect x="65.8" y="142.3" transform="matrix(-1 -4.575286e-011 4.575286e-011 -1 142.3185 285.0322)" class="st10" width="10.7" height="0.4"/>
			</g>
			
				<rect x="67.7" y="129.6" transform="matrix(-1 -4.357282e-011 4.357282e-011 -1 142.3185 268.739)" class="st1" width="6.9" height="9.6"/>
			
				<rect x="1.8" y="129.8" transform="matrix(-1 -4.616719e-011 4.616719e-011 -1 7.8508 260.8453)" class="st11" width="4.3" height="1.3"/>
			
				<rect x="0.8" y="129" transform="matrix(-1 -4.471369e-011 4.471369e-011 -1 8.53 259.085)" class="st10" width="6.9" height="1.2"/>
			
				<rect x="0" y="128.4" transform="matrix(-1 -4.463864e-011 4.463864e-011 -1 8.9649 257.6298)" class="st11" width="9" height="0.9"/>
			
				<rect x="2.4" y="131.1" transform="matrix(-1 -4.793378e-011 4.793378e-011 -1 8.1356 269.4396)" class="st1" width="3.3" height="7.3"/>
			
				<rect x="1.7" y="138.4" transform="matrix(-1 -4.370205e-011 4.370205e-011 -1 7.8667 279.2939)" class="st11" width="4.4" height="2.5"/>
			<path class="st11" d="M20.6,81.4v1.6l0.7,1.1c2-3.4,9.4-11.1,35.1-11.1S89.5,80.6,91.5,84l0.7-1.1v-1.6c0,0-2.8-12.7-35.8-12.7
				S20.6,81.4,20.6,81.4z"/>
			<path class="st1" d="M21.3,84l0.8,1.3l0.6,0.4l0.1,0.7l0.6,0.9V88h65.9v-0.6l0.6-0.9l0.1-0.7l0.6-0.4l0.8-1.3
				c-2-3.4-9.4-11.1-35.1-11.1S23.3,80.6,21.3,84z"/>
			<path class="st11" d="M89,95.7v-2.5l0.3-0.2v-1.2l0.3-0.6v-2c0-4.6-14.9-8.3-33.3-8.3s-33.3,3.7-33.3,8.3v2l0.3,0.6v1.2l0.3,0.2
				v2.5"/>
			<path class="st1" d="M55.4,127.4h3.2L59,116c0-0.4,0-0.7,0-1.1l-0.4-13.6h-3.2L55,114.7c0,0.4,0,0.7,0,1.1L55.4,127.4z"/>
			<path class="st11" d="M55,106.5h4.1c0.2,0,0.3,0.1,0.3,0.3l0,0c0,0.2-0.1,0.3-0.3,0.3H55c-0.2,0-0.3-0.1-0.3-0.3l0,0
				C54.7,106.7,54.8,106.5,55,106.5z"/>
			<path class="st10" d="M59,106.6l0.4-1.1c0.2-0.4,0.2-0.8,0.2-1.2v-0.6h-5.2v0.9c0,0.3,0,0.5,0.1,0.8l0.3,1.3L59,106.6z"/>
			<path class="st11" d="M32.1,103.7h4.1c0.2,0,0.3,0.1,0.3,0.3l0,0c0,0.2-0.1,0.3-0.3,0.3h-4.1c-0.2,0-0.3-0.1-0.3-0.3l0,0
				C31.8,103.8,32,103.7,32.1,103.7z"/>
			<path class="st10" d="M36.1,103.7l0.4-1.1c0.2-0.4,0.2-0.8,0.2-1.2v-0.6h-5.2v0.9c0,0.3,0,0.5,0.1,0.8l0.3,1.3L36.1,103.7z"/>
			<ellipse class="st1" cx="56.4" cy="95.7" rx="32.6" ry="8.3"/>
			<ellipse class="st0" cx="56.4" cy="95.4" rx="29.6" ry="6.3"/>
			<circle class="st10" cx="47.4" cy="67.1" r="0.7"/>
			<circle class="st10" cx="25.6" cy="74.6" r="0.5"/>
			<circle class="st10" cx="78.1" cy="69.3" r="0.7"/>
			<path class="st1" d="M28.4,127.2h-4.1l-0.5-13.6c0-0.4,0-0.9,0-1.3l0.5-16.1h4.1l0.5,15.9c0,0.4,0,0.9,0,1.3L28.4,127.2z"/>
			<path class="st11" d="M24,97.1h4.7c0.2,0,0.4,0.2,0.4,0.4l0,0c0,0.2-0.2,0.4-0.4,0.4H24c-0.2,0-0.4-0.2-0.4-0.4l0,0
				C23.6,97.2,23.8,97.1,24,97.1z"/>
			<path class="st10" d="M28.6,97.1l0.5-1.3c0.2-0.5,0.3-0.9,0.3-1.4v-0.7h-6v1c0,0.3,0,0.6,0.1,0.9l0.3,1.5L28.6,97.1z"/>
			<path class="st11" d="M23.1,93.3h6.5c0.2,0,0.4,0.2,0.4,0.4l0,0c0,0.2-0.2,0.4-0.4,0.4h-6.5c-0.2,0-0.4-0.2-0.4-0.4l0,0
				C22.7,93.5,22.9,93.3,23.1,93.3z"/>
			<path class="st1" d="M39.2,125.3h4.6l0.6-15.1c0-0.5,0-0.9,0-1.4l-0.6-20.4h-4.6l-0.6,20.2c0,0.5,0,0.9,0,1.4L39.2,125.3z"/>
			<path class="st11" d="M38.7,92.4h5.7c0.3,0,0.5,0.2,0.5,0.5l0,0c0,0.3-0.2,0.5-0.5,0.5h-5.7c-0.3,0-0.5-0.2-0.5-0.5l0,0
				C38.2,92.6,38.4,92.4,38.7,92.4z"/>
			<path class="st10" d="M44.2,92.5l0.6-1.5c0.2-0.5,0.3-1.1,0.3-1.7v-0.9h-7.2v1.2c0,0.4,0,0.7,0.1,1.1l0.4,1.8L44.2,92.5z"/>
			<path class="st11" d="M37.6,87.9h7.9c0.3,0,0.5,0.2,0.5,0.5l0,0c0,0.3-0.2,0.5-0.5,0.5h-7.9c-0.3,0-0.5-0.2-0.5-0.5l0,0
				C37.1,88.1,37.3,87.9,37.6,87.9z"/>
			<path class="st1" d="M68.9,125.3h4.6l0.6-15.1c0-0.5,0-0.9,0-1.4l-0.6-18h-4.6l-0.6,17.7c0,0.5,0,0.9,0,1.4L68.9,125.3z"/>
			<path class="st11" d="M68.3,92.4H74c0.3,0,0.5,0.2,0.5,0.5l0,0c0,0.3-0.2,0.5-0.5,0.5h-5.7c-0.3,0-0.5-0.2-0.5-0.5l0,0
				C67.9,92.6,68.1,92.4,68.3,92.4z"/>
			<path class="st10" d="M73.9,92.5l0.6-1.5c0.2-0.5,0.3-1.1,0.3-1.7v-0.9h-7.2v1.2c0,0.4,0,0.7,0.1,1.1l0.4,1.8L73.9,92.5z"/>
			<path class="st11" d="M67.2,87.9h7.9c0.3,0,0.5,0.2,0.5,0.5l0,0c0,0.3-0.2,0.5-0.5,0.5h-7.9c-0.3,0-0.5-0.2-0.5-0.5l0,0
				C66.8,88.1,67,87.9,67.2,87.9z"/>
			<path class="st1" d="M84.8,127.2h4.1l0.5-13.6c0-0.4,0-0.9,0-1.3l-0.5-16.1h-4.1l-0.5,15.9c0,0.4,0,0.9,0,1.3L84.8,127.2z"/>
			<path class="st11" d="M84.5,97.1h4.7c0.2,0,0.4,0.2,0.4,0.4l0,0c0,0.2-0.2,0.4-0.4,0.4h-4.7c-0.2,0-0.4-0.2-0.4-0.4l0,0
				C84.1,97.2,84.3,97.1,84.5,97.1z"/>
			<path class="st10" d="M89.1,97.1l0.5-1.3c0.2-0.5,0.3-0.9,0.3-1.4v-0.7h-6v1c0,0.3,0,0.6,0.1,0.9l0.3,1.5L89.1,97.1z"/>
			<path class="st11" d="M83.6,93.3h6.5c0.2,0,0.4,0.2,0.4,0.4l0,0c0,0.2-0.2,0.4-0.4,0.4h-6.5c-0.2,0-0.4-0.2-0.4-0.4l0,0
				C83.2,93.5,83.4,93.3,83.6,93.3z"/>
			<path class="st11" d="M53.9,128h6.3l0,0c0-0.6-0.5-1-1-1h-4.2C54.3,126.9,53.9,127.4,53.9,128L53.9,128z"/>
			
				<rect x="1.4" y="140" transform="matrix(-1 -4.490376e-011 4.490376e-011 -1 24.4092 281.0185)" class="st11" width="21.6" height="1"/>
		</g>
		<path class="st12" d="M64.4,65.1l-1.2,2L58,68.7L54.8,73l-10.7,9l-2.6,5.5c0,0-11.8,6.1-13.5,6.2s-4.2-0.4-4.2-0.4l-0.3-0.2v-1.2
			L23.2,91l0-2.1l0.3-0.8v-0.6l-0.6-0.9l-0.1-0.7L22,85.2l-1.3-2.3l-0.1-1.5c0,0,0-1.5,3.6-4.9c0.2-2.5,0.1-4.1,1.3-5.1
			c1.5-0.9,1.9,1,1.9,1s7.5-6.8,17.1-7c1.4-2.8,2.3-2.9,2.8-2.8c0.5,0.1,2.2-0.1,2.6,2.2C52.8,64,64.4,65.1,64.4,65.1z"/>
		<path class="st12" d="M64.5,139.8l-11,18.9c0,0-21.1,0.1-29.8-3.2c0.3-12.7,0.3-12.7,0.3-12.7s-1.3-0.5-1-4.1
			C28.8,138.5,64.5,139.8,64.5,139.8z"/>
		<path class="st12" d="M88.4,93.3L86,127.2h-1.2c0,0-0.8-16.4-0.3-29.3c-0.4-0.4,0-0.8,0-0.8l-0.9-2.9l-0.1-1.2L88.4,93.3z"/>
		<path class="st12" d="M27.8,93.3l-2.4,33.6l-1.2,0.3c0,0-0.8-16.4-0.3-29.3c-0.4-0.4,0-0.8,0-0.8l-0.9-2.9l-0.1-1.2L27.8,93.3z"/>
		<path class="st12" d="M35.6,102l-2.2,25.5l-1-0.1c0,0-0.5-11.6-0.1-22.2c-0.3-0.3,0-0.6,0-0.6l-0.7-2.4l-0.1-1L35.6,102z"/>
		<path class="st12" d="M58.3,104.1l-2.2,22.8l-1-0.1c0,0-0.5-10.2-0.1-19.5c-0.3-0.3,0-0.6,0-0.6l-0.7-2.1l-0.1-0.9L58.3,104.1z"/>
		<path class="st12" d="M71.7,87.9l-2.1,37.3l-0.7-0.5c0,0-1.1-17.5,0-31.4c0-0.3-0.9,0.2-0.9-0.1c-0.3-0.4,0-0.8,0-0.8l-1.1-3.4
			l-0.1-1.3L71.7,87.9z"/>
		<path class="st12" d="M42,87.9l-1.9,37.4l-0.9-0.6c0,0-1.1-17.5,0-31.4c0-0.3-0.9,0.2-0.9-0.1c-0.3-0.4,0-0.8,0-0.8l-1.1-3.4
			l-0.1-1.3L42,87.9z"/>
	</g>
	<g>
		<circle class="st1" cx="362.7" cy="122.6" r="20.4"/>
		
			<rect x="360" y="131.8" transform="matrix(0.7071 -0.7071 0.7071 0.7071 10.3082 294.6984)" class="st0" width="1.7" height="6.3"/>
		
			<rect x="366.7" y="123.4" transform="matrix(0.528 0.8492 -0.8492 0.528 283.0866 -251.0821)" class="st0" width="1.5" height="11.5"/>
		<rect x="362.1" y="119.5" class="st0" width="2.2" height="35.3"/>
	</g>
	<g>
		<g>
			<g>
				<rect x="267.7" y="115" class="st13" width="54.7" height="45.6"/>
				<rect x="268.5" y="115.9" class="st14" width="54.6" height="1"/>
				<rect x="268.5" y="123.2" class="st14" width="54.6" height="1"/>
				<path class="st14" d="M300.5,112.7v2.6h-16.1v-2.6h4.4l1-1.4c0.4-0.6,1-1,1.7-1.2l0,0c0.6-0.2,1.2-0.2,1.8,0l0,0
					c0.7,0.2,1.3,0.6,1.7,1.2l1,1.4H300.5z"/>
				<circle class="st15" cx="292.5" cy="113" r="1.2"/>
				<rect x="300.3" y="112.2" class="st15" width="2.2" height="9.4"/>
				<rect x="283.9" y="112.2" class="st15" width="2.2" height="9.4"/>
				<rect x="302" y="114.9" class="st15" width="22.2" height="1"/>
				<rect x="266.6" y="120" class="st15" width="57.1" height="0.5"/>
				<rect x="267.2" y="114.9" class="st15" width="16.9" height="1"/>
				<rect x="275.6" y="142.7" class="st15" width="46.8" height="1.1"/>
				<g>
					<rect x="266.2" y="134.8" class="st14" width="9.7" height="16"/>
					<rect x="267.7" y="136.8" class="st16" width="6.7" height="14"/>
					<g>
						<rect x="268.5" y="137.6" class="st17" width="2.3" height="3.2"/>
						<rect x="268.5" y="141.5" class="st17" width="2.3" height="2.3"/>
						<rect x="268.5" y="144.6" class="st17" width="2.3" height="2.3"/>
						<rect x="268.5" y="147.7" class="st17" width="2.3" height="2.3"/>
						<rect x="271.3" y="137.6" class="st17" width="2.3" height="3.2"/>
						<rect x="271.3" y="141.5" class="st17" width="2.3" height="2.3"/>
						<rect x="271.3" y="144.6" class="st17" width="2.3" height="2.3"/>
						<rect x="271.3" y="147.7" class="st17" width="2.3" height="2.3"/>
					</g>
					<rect x="265.6" y="150.7" class="st15" width="10.9" height="0.9"/>
					<rect x="266" y="151.7" class="st18" width="10.1" height="0.6"/>
				</g>
				<g>
					<rect x="287" y="134.8" class="st14" width="9.7" height="16"/>
					<rect x="288.6" y="136.8" class="st16" width="6.7" height="14"/>
					<g>
						<rect x="289.3" y="137.6" class="st17" width="2.3" height="3.2"/>
						<rect x="289.3" y="141.5" class="st17" width="2.3" height="2.3"/>
						<rect x="289.3" y="144.6" class="st17" width="2.3" height="2.3"/>
						<rect x="289.3" y="147.7" class="st17" width="2.3" height="2.3"/>
						<rect x="292.1" y="137.6" class="st17" width="2.3" height="3.2"/>
						<rect x="292.1" y="141.5" class="st17" width="2.3" height="2.3"/>
						<rect x="292.1" y="144.6" class="st17" width="2.3" height="2.3"/>
						<rect x="292.1" y="147.7" class="st17" width="2.3" height="2.3"/>
					</g>
					<rect x="286.5" y="150.7" class="st15" width="10.9" height="0.9"/>
					<rect x="286.9" y="151.7" class="st18" width="10.1" height="0.6"/>
				</g>
				<g>
					<rect x="307.9" y="134.8" class="st14" width="9.7" height="16"/>
					<rect x="309.4" y="136.8" class="st16" width="6.7" height="14"/>
					<g>
						<rect x="310.1" y="137.6" class="st17" width="2.3" height="3.2"/>
						<rect x="310.1" y="141.5" class="st17" width="2.3" height="2.3"/>
						<rect x="310.1" y="144.6" class="st17" width="2.3" height="2.3"/>
						<rect x="310.1" y="147.7" class="st17" width="2.3" height="2.3"/>
						<rect x="313" y="137.6" class="st17" width="2.3" height="3.2"/>
						<rect x="313" y="141.5" class="st17" width="2.3" height="2.3"/>
						<rect x="313" y="144.6" class="st17" width="2.3" height="2.3"/>
						<rect x="313" y="147.7" class="st17" width="2.3" height="2.3"/>
					</g>
					<rect x="307.3" y="150.7" class="st15" width="10.9" height="0.9"/>
					<rect x="307.7" y="151.7" class="st18" width="10.1" height="0.6"/>
				</g>
				<rect x="321.4" y="115.9" class="st14" width="2.3" height="44.7"/>
			</g>
			<polygon class="st19" points="276.2,151.7 274.2,160.6 263.6,160.6 265.7,151.7 			"/>
			
				<rect x="88.7" y="115" transform="matrix(-1 -4.497392e-011 4.497392e-011 -1 232.0935 275.7109)" class="st13" width="54.7" height="45.6"/>
			
				<rect x="88" y="115.9" transform="matrix(-1 -4.485180e-011 4.485180e-011 -1 230.6676 232.86)" class="st14" width="54.6" height="1"/>
			
				<rect x="88" y="123.2" transform="matrix(-1 -4.481849e-011 4.481849e-011 -1 230.6676 247.3652)" class="st14" width="54.6" height="1"/>
			<polygon class="st13" points="142.6,64 142.6,166.2 268.4,166.2 268.4,64 220.3,64 220.3,58 191,58 191,64 			"/>
			
				<rect x="184.1" y="114.5" transform="matrix(-1 -4.254431e-011 4.254431e-011 -1 372.9599 232.0921)" class="st18" width="4.7" height="3.1"/>
			
				<rect x="222.2" y="114.5" transform="matrix(-1 -4.447832e-011 4.447832e-011 -1 449.044 232.0921)" class="st18" width="4.7" height="3.1"/>
			<g>
				
					<rect x="204.5" y="64.8" transform="matrix(-1 -4.300439e-011 4.300439e-011 -1 411.7177 136.695)" class="st13" width="2.8" height="7"/>
				<g>
					<path class="st20" d="M193.1,75v37.2h25V75c0-5.6-5.6-10.2-12.5-10.2S193.1,69.4,193.1,75z"/>
				</g>
				<path class="st21" d="M212.1,78.3c0-3.6-2.9-6.5-6.5-6.5s-6.5,2.9-6.5,6.5"/>
				<path class="st22" d="M206.7,78c0-0.6-0.5-1.1-1.1-1.1s-1.1,0.5-1.1,1.1"/>
				
					<rect x="199" y="78.3" transform="matrix(-1 -4.424961e-011 4.424961e-011 -1 411.1459 180.5228)" class="st23" width="13.1" height="23.9"/>
				<line class="st21" x1="205.6" y1="71.8" x2="205.6" y2="76.9"/>
				<line class="st21" x1="201" y1="73.8" x2="204.6" y2="77.4"/>
				<line class="st21" x1="210.2" y1="73.6" x2="206.6" y2="77.2"/>
				<g>
					
						<rect x="201" y="79.7" transform="matrix(-1 -4.605484e-011 4.605484e-011 -1 405.4402 171.1503)" class="st24" width="3.5" height="11.7"/>
					
						<rect x="206.7" y="79.7" transform="matrix(-1 -4.605484e-011 4.605484e-011 -1 416.8515 171.1503)" class="st24" width="3.5" height="11.7"/>
				</g>
				<g>
					
						<rect x="201" y="93.3" transform="matrix(-1 -4.605484e-011 4.605484e-011 -1 405.4402 194.6586)" class="st24" width="3.5" height="8"/>
					
						<rect x="206.7" y="93.3" transform="matrix(-1 -4.605484e-011 4.605484e-011 -1 416.8515 194.6586)" class="st24" width="3.5" height="8"/>
				</g>
				
					<rect x="188" y="80.3" transform="matrix(-1 -4.435797e-011 4.435797e-011 -1 387.0428 161.8293)" class="st21" width="11" height="1.3"/>
				
					<rect x="212.1" y="80.3" transform="matrix(-1 -4.435797e-011 4.435797e-011 -1 435.249 161.8293)" class="st21" width="11" height="1.3"/>
			</g>
			<g>
				
					<rect x="188.2" y="103" transform="matrix(-1 -4.497836e-011 4.497836e-011 -1 411.2236 212.7191)" class="st21" width="34.9" height="6.8"/>
				<polygon class="st13" points="209.7,105.3 209.3,106 209.3,107.5 209.7,107.9 209.7,108.8 209.3,108.8 209.3,109.8 210.8,109.8 
					210.8,108.8 210.3,108.8 210.3,107.9 210.8,107.5 210.8,106 210.3,105.3 210.6,104.5 210.8,103.4 209.3,103.4 209.4,104.5 				
					"/>
				<polygon class="st13" points="212.2,105.3 211.7,106 211.7,107.5 212.2,107.9 212.2,108.8 211.7,108.8 211.7,109.8 213.2,109.8 
					213.2,108.8 212.8,108.8 212.8,107.9 213.2,107.5 213.2,106 212.8,105.3 213.1,104.5 213.2,103.4 211.7,103.4 211.9,104.5 				
					"/>
				<polygon class="st13" points="214.6,105.3 214.2,106 214.2,107.5 214.6,107.9 214.6,108.8 214.2,108.8 214.2,109.8 215.7,109.8 
					215.7,108.8 215.2,108.8 215.2,107.9 215.7,107.5 215.7,106 215.2,105.3 215.5,104.5 215.7,103.4 214.2,103.4 214.3,104.5 				
					"/>
				<polygon class="st13" points="217,105.3 216.6,106 216.6,107.5 217,107.9 217,108.8 216.6,108.8 216.6,109.8 218.1,109.8 
					218.1,108.8 217.7,108.8 217.7,107.9 218.1,107.5 218.1,106 217.7,105.3 217.9,104.5 218.1,103.4 216.6,103.4 216.8,104.5 				
					"/>
				<polygon class="st13" points="219.5,105.3 219,106 219,107.5 219.5,107.9 219.5,108.8 219,108.8 219,109.8 220.5,109.8 
					220.5,108.8 220.1,108.8 220.1,107.9 220.5,107.5 220.5,106 220.1,105.3 220.4,104.5 220.5,103.4 219,103.4 219.2,104.5 				"/>
				<polygon class="st13" points="197.5,105.3 197.1,106 197.1,107.5 197.5,107.9 197.5,108.8 197.1,108.8 197.1,109.8 198.6,109.8 
					198.6,108.8 198.1,108.8 198.1,107.9 198.6,107.5 198.6,106 198.1,105.3 198.4,104.5 198.6,103.4 197.1,103.4 197.2,104.5 				
					"/>
				<polygon class="st13" points="200,105.3 199.5,106 199.5,107.5 200,107.9 200,108.8 199.5,108.8 199.5,109.8 201,109.8 
					201,108.8 200.6,108.8 200.6,107.9 201,107.5 201,106 200.6,105.3 200.8,104.5 201,103.4 199.5,103.4 199.7,104.5 				"/>
				<polygon class="st13" points="202.4,105.3 201.9,106 201.9,107.5 202.4,107.9 202.4,108.8 201.9,108.8 201.9,109.8 203.5,109.8 
					203.5,108.8 203,108.8 203,107.9 203.5,107.5 203.5,106 203,105.3 203.3,104.5 203.5,103.4 201.9,103.4 202.1,104.5 				"/>
				<polygon class="st13" points="190.3,105.3 189.9,106 189.9,107.5 190.3,107.9 190.3,108.8 189.9,108.8 189.9,109.8 191.4,109.8 
					191.4,108.8 190.9,108.8 190.9,107.9 191.4,107.5 191.4,106 190.9,105.3 191.2,104.5 191.4,103.4 189.9,103.4 190.1,104.5 				
					"/>
				<polygon class="st13" points="192.8,105.3 192.3,106 192.3,107.5 192.8,107.9 192.8,108.8 192.3,108.8 192.3,109.8 193.8,109.8 
					193.8,108.8 193.4,108.8 193.4,107.9 193.8,107.5 193.8,106 193.4,105.3 193.7,104.5 193.8,103.4 192.3,103.4 192.5,104.5 				
					"/>
				<polygon class="st13" points="195.2,105.3 194.8,106 194.8,107.5 195.2,107.9 195.2,108.8 194.8,108.8 194.8,109.8 196.3,109.8 
					196.3,108.8 195.8,108.8 195.8,107.9 196.3,107.5 196.3,106 195.8,105.3 196.1,104.5 196.3,103.4 194.8,103.4 194.9,104.5 				
					"/>
				<polygon class="st13" points="204.8,105.3 204.4,106 204.4,107.5 204.8,107.9 204.8,108.8 204.4,108.8 204.4,109.8 205.9,109.8 
					205.9,108.8 205.4,108.8 205.4,107.9 205.9,107.5 205.9,106 205.4,105.3 205.7,104.5 205.9,103.4 204.4,103.4 204.6,104.5 				
					"/>
				<polygon class="st13" points="207.3,105.3 206.8,106 206.8,107.5 207.3,107.9 207.3,108.8 206.8,108.8 206.8,109.8 208.3,109.8 
					208.3,108.8 207.9,108.8 207.9,107.9 208.3,107.5 208.3,106 207.9,105.3 208.2,104.5 208.3,103.4 206.8,103.4 207,104.5 				"/>
				
					<rect x="189.1" y="102.3" transform="matrix(-1 -4.481760e-011 4.481760e-011 -1 411.4115 205.9143)" class="st15" width="33.2" height="1.2"/>
				
					<rect x="189.1" y="110" transform="matrix(-1 -4.514623e-011 4.514623e-011 -1 411.4115 221.6687)" class="st18" width="33.2" height="1.6"/>
				<g>
					
						<rect x="183.5" y="101.9" transform="matrix(-1 -4.427137e-011 4.427137e-011 -1 373.2478 205.9143)" class="st14" width="6.3" height="2"/>
					
						<rect x="184.3" y="104" transform="matrix(-1 -4.679869e-011 4.679869e-011 -1 373.2478 213.3057)" class="st18" width="4.7" height="5.4"/>
					
						<rect x="183.7" y="108.8" transform="matrix(-1 -4.388058e-011 4.388058e-011 -1 373.2478 220.0851)" class="st14" width="5.9" height="2.5"/>
					
						<rect x="183.1" y="110.6" transform="matrix(-1 -4.353952e-011 4.353952e-011 -1 373.2478 222.4862)" class="st15" width="7.1" height="1.4"/>
					
						<rect x="183.1" y="101.4" transform="matrix(-1 -4.507606e-011 4.507606e-011 -1 373.2478 204.1253)" class="st15" width="7.1" height="1.4"/>
				</g>
				<g>
					
						<rect x="221.4" y="101.9" transform="matrix(-1 -4.599622e-011 4.599622e-011 -1 449.044 205.9143)" class="st14" width="6.3" height="2"/>
					
						<rect x="222.2" y="104" transform="matrix(-1 -4.447832e-011 4.447832e-011 -1 449.044 213.3057)" class="st18" width="4.7" height="5.4"/>
					
						<rect x="221.6" y="108.8" transform="matrix(-1 -4.541490e-011 4.541490e-011 -1 449.044 220.0851)" class="st14" width="5.9" height="2.5"/>
					
						<rect x="221" y="110.6" transform="matrix(-1 -4.353952e-011 4.353952e-011 -1 449.044 222.4862)" class="st15" width="7.1" height="1.4"/>
					
						<rect x="221" y="101.4" transform="matrix(-1 -4.481982e-011 4.481982e-011 -1 449.044 204.1253)" class="st15" width="7.1" height="1.4"/>
				</g>
			</g>
			
				<rect x="138.6" y="111.6" transform="matrix(-1 -4.498547e-011 4.498547e-011 -1 411.1459 224.462)" class="st15" width="134" height="1.2"/>
			
				<rect x="140.2" y="112.8" transform="matrix(-1 -4.499036e-011 4.499036e-011 -1 411.1459 226.882)" class="st14" width="130.7" height="1.2"/>
			
				<rect x="144.2" y="88.9" transform="matrix(-1 -4.487090e-011 4.487090e-011 -1 328.4523 178.427)" class="st23" width="40.1" height="0.5"/>
			
				<rect x="163.7" y="63" transform="matrix(-1 -4.376467e-011 4.376467e-011 -1 329.7146 139.0581)" class="st21" width="2.3" height="13"/>
			
				<rect x="227.5" y="88.9" transform="matrix(-1 -4.487090e-011 4.487090e-011 -1 495.0905 178.427)" class="st23" width="40.1" height="0.5"/>
			
				<rect x="142.6" y="141.2" transform="matrix(-1 -4.497126e-011 4.497126e-011 -1 410.2395 283.0107)" class="st23" width="124.9" height="0.5"/>
			
				<rect x="247" y="63" transform="matrix(-1 -4.298307e-011 4.298307e-011 -1 496.3527 139.0581)" class="st21" width="2.3" height="13"/>
			<g>
				<path class="st14" d="M157.5,81.9v21.8h14.8V81.9c0-3.3-3.3-6-7.4-6C160.8,76,157.5,78.6,157.5,81.9z"/>
			</g>
			<g>
				<path class="st25" d="M169.9,83.8c0-2.8-2.3-5-5-5s-5,2.3-5,5"/>
				<path class="st26" d="M165.8,83.5c0-0.5-0.4-0.9-0.9-0.9c-0.5,0-0.9,0.4-0.9,0.9"/>
				
					<rect x="159.9" y="83.8" transform="matrix(-1 -4.567514e-011 4.567514e-011 -1 329.7903 186.0069)" class="st27" width="10.1" height="18.4"/>
				<line class="st25" x1="164.9" y1="78.7" x2="164.9" y2="82.7"/>
				<line class="st25" x1="161.4" y1="80.3" x2="164.1" y2="83.1"/>
				<line class="st25" x1="168.5" y1="80.2" x2="165.7" y2="82.9"/>
				<g>
					
						<rect x="161.4" y="84.9" transform="matrix(-1 -4.481361e-011 4.481361e-011 -1 325.3926 173.8235)" class="st28" width="2.7" height="4.1"/>
					
						<rect x="165.8" y="84.9" transform="matrix(-1 -4.888724e-011 4.888724e-011 -1 334.1881 173.8235)" class="st28" width="2.7" height="4.1"/>
				</g>
				<g>
					
						<rect x="161.4" y="90.3" transform="matrix(-1 -4.481361e-011 4.481361e-011 -1 325.3926 184.5935)" class="st28" width="2.7" height="4.1"/>
					
						<rect x="165.8" y="90.3" transform="matrix(-1 -4.481361e-011 4.481361e-011 -1 334.1881 184.5935)" class="st28" width="2.7" height="4.1"/>
				</g>
				<line class="st28" x1="159.9" y1="95.6" x2="169.9" y2="95.6"/>
				<line class="st28" x1="168.8" y1="95.6" x2="168.8" y2="102"/>
				<line class="st28" x1="167.1" y1="95.6" x2="167.1" y2="102"/>
				<line class="st28" x1="165.4" y1="95.6" x2="165.4" y2="102"/>
				<line class="st28" x1="163.8" y1="95.6" x2="163.8" y2="102"/>
				<line class="st28" x1="162.1" y1="95.6" x2="162.1" y2="102"/>
			</g>
			
				<rect x="158" y="102.2" transform="matrix(-1 -4.498947e-011 4.498947e-011 -1 329.7903 205.0911)" class="st14" width="13.8" height="0.6"/>
			
				<rect x="159" y="102.7" transform="matrix(-1 -4.515511e-011 4.515511e-011 -1 329.7903 206.4898)" class="st13" width="11.7" height="1.2"/>
			
				<rect x="157.5" y="103.7" transform="matrix(-1 -4.527102e-011 4.527102e-011 -1 329.7903 209.4777)" class="st15" width="14.8" height="2.1"/>
			
				<rect x="168.8" y="105.8" transform="matrix(-1 -4.534518e-011 4.534518e-011 -1 341.0466 217.1244)" class="st14" width="3.5" height="5.5"/>
			
				<rect x="157.3" y="105.8" transform="matrix(-1 -4.483004e-011 4.483004e-011 -1 318.0679 217.1244)" class="st14" width="3.5" height="5.5"/>
			
				<rect x="156.3" y="111.3" transform="matrix(-1 -4.351864e-011 4.351864e-011 -1 317.6639 223.252)" class="st15" width="5.1" height="0.6"/>
			
				<rect x="168" y="111.3" transform="matrix(-1 -4.351864e-011 4.351864e-011 -1 341.0466 223.252)" class="st15" width="5.1" height="0.6"/>
			<g>
				<path class="st14" d="M239.3,81.9v21.8h14.8V81.9c0-3.3-3.3-6-7.4-6C242.6,76,239.3,78.6,239.3,81.9z"/>
			</g>
			<g>
				<path class="st25" d="M251.7,83.8c0-2.8-2.3-5-5-5s-5,2.3-5,5"/>
				<path class="st26" d="M247.5,83.5c0-0.5-0.4-0.9-0.9-0.9c-0.5,0-0.9,0.4-0.9,0.9"/>
				
					<rect x="241.6" y="83.8" transform="matrix(-1 -4.459201e-011 4.459201e-011 -1 493.3716 186.0069)" class="st27" width="10.1" height="18.4"/>
				<line class="st25" x1="246.7" y1="78.7" x2="246.7" y2="82.7"/>
				<line class="st25" x1="243.2" y1="80.3" x2="245.9" y2="83.1"/>
				<line class="st25" x1="250.3" y1="80.2" x2="247.5" y2="82.9"/>
				<g>
					
						<rect x="243.1" y="84.9" transform="matrix(-1 -4.481361e-011 4.481361e-011 -1 488.9739 173.8235)" class="st28" width="2.7" height="4.1"/>
					
						<rect x="247.5" y="84.9" transform="matrix(-1 -4.481361e-011 4.481361e-011 -1 497.7694 173.8235)" class="st28" width="2.7" height="4.1"/>
				</g>
				<g>
					
						<rect x="243.1" y="90.3" transform="matrix(-1 -4.481361e-011 4.481361e-011 -1 488.9739 184.5935)" class="st28" width="2.7" height="4.1"/>
					
						<rect x="247.5" y="90.3" transform="matrix(-1 -4.073953e-011 4.073953e-011 -1 497.7694 184.5935)" class="st28" width="2.7" height="4.1"/>
				</g>
				<line class="st28" x1="241.6" y1="95.6" x2="251.7" y2="95.6"/>
				<line class="st28" x1="250.5" y1="95.6" x2="250.5" y2="102"/>
				<line class="st28" x1="248.9" y1="95.6" x2="248.9" y2="102"/>
				<line class="st28" x1="247.2" y1="95.6" x2="247.2" y2="102"/>
				<line class="st28" x1="245.6" y1="95.6" x2="245.6" y2="102"/>
				<line class="st28" x1="243.9" y1="95.6" x2="243.9" y2="102"/>
			</g>
			
				<rect x="239.8" y="102.2" transform="matrix(-1 -4.498947e-011 4.498947e-011 -1 493.3716 205.0911)" class="st14" width="13.8" height="0.6"/>
			
				<rect x="240.8" y="102.7" transform="matrix(-1 -4.437929e-011 4.437929e-011 -1 493.3716 206.4898)" class="st13" width="11.7" height="1.2"/>
			
				<rect x="239.3" y="103.7" transform="matrix(-1 -4.539403e-011 4.539403e-011 -1 493.3716 209.4777)" class="st15" width="14.8" height="2.1"/>
			
				<rect x="250.5" y="105.8" transform="matrix(-1 -4.534518e-011 4.534518e-011 -1 504.6278 217.1244)" class="st14" width="3.5" height="5.5"/>
			
				<rect x="239.1" y="105.8" transform="matrix(-1 -4.225343e-011 4.225343e-011 -1 481.6492 217.1244)" class="st14" width="3.5" height="5.5"/>
			
				<rect x="238.1" y="111.3" transform="matrix(-1 -4.351864e-011 4.351864e-011 -1 481.2452 223.252)" class="st15" width="5.1" height="0.6"/>
			
				<rect x="249.8" y="111.3" transform="matrix(-1 -4.531676e-011 4.531676e-011 -1 504.6278 223.252)" class="st15" width="5.1" height="0.6"/>
			
				<rect x="184.3" y="64.2" transform="matrix(-1 -4.447832e-011 4.447832e-011 -1 373.2478 165.5151)" class="st14" width="4.7" height="37.2"/>
			
				<rect x="222.2" y="64.2" transform="matrix(-1 -4.447832e-011 4.447832e-011 -1 449.044 165.5151)" class="st14" width="4.7" height="37.2"/>
			
				<rect x="141.1" y="64.8" transform="matrix(-1 -4.512136e-011 4.512136e-011 -1 285.2962 176.4622)" class="st14" width="3.1" height="46.8"/>
			<rect x="266.9" y="64.8" class="st14" width="3.1" height="46.8"/>
			<g>
				
					<rect x="149.7" y="57.6" transform="matrix(-1 -4.453960e-011 4.453960e-011 -1 334.1581 120.0591)" class="st14" width="34.8" height="4.9"/>
				
					<rect x="149.7" y="57" transform="matrix(-1 -4.478696e-011 4.478696e-011 -1 334.4127 114.5531)" class="st15" width="35.1" height="0.6"/>
				
					<rect x="149.7" y="56.4" transform="matrix(-1 -4.478696e-011 4.478696e-011 -1 334.4127 113.4874)" class="st14" width="35.1" height="0.6"/>
				<g>
					<rect x="226.7" y="57.6" class="st14" width="34.8" height="4.9"/>
					<rect x="226.4" y="57" class="st15" width="35.1" height="0.6"/>
					<rect x="226.4" y="56.4" class="st14" width="35.1" height="0.6"/>
					<path class="st13" d="M221.2,63h5.8V52.9h-12.8V56C218.1,56,221.2,59.2,221.2,63z"/>
					<rect x="261.1" y="56" class="st13" width="4.8" height="6.4"/>
					<rect x="260.4" y="55.5" class="st15" width="6.2" height="0.5"/>
					<rect x="260.8" y="55" class="st15" width="5.4" height="0.5"/>
					<g>
						<rect x="240.5" y="58.6" class="st15" width="0.8" height="0.7"/>
						<rect x="241.6" y="58.6" class="st15" width="0.8" height="0.7"/>
						<rect x="242.8" y="58.6" class="st15" width="0.8" height="0.7"/>
						<rect x="244" y="58.6" class="st15" width="0.8" height="0.7"/>
						<rect x="245.1" y="58.6" class="st15" width="0.8" height="0.7"/>
						<rect x="246.3" y="58.6" class="st15" width="0.8" height="0.7"/>
						<rect x="247.5" y="58.6" class="st15" width="0.8" height="0.7"/>
						<rect x="248.6" y="58.6" class="st15" width="0.8" height="0.7"/>
						<rect x="249.8" y="58.6" class="st15" width="0.8" height="0.7"/>
						<rect x="250.9" y="58.6" class="st15" width="0.8" height="0.7"/>
						<rect x="240.5" y="59.7" class="st15" width="0.8" height="0.7"/>
						<rect x="241.6" y="59.7" class="st15" width="0.8" height="0.7"/>
						<rect x="242.8" y="59.7" class="st15" width="0.8" height="0.7"/>
						<rect x="244" y="59.7" class="st15" width="0.8" height="0.7"/>
						<rect x="245.1" y="59.7" class="st15" width="0.8" height="0.7"/>
						<rect x="246.3" y="59.7" class="st15" width="0.8" height="0.7"/>
						<rect x="247.5" y="59.7" class="st15" width="0.8" height="0.7"/>
						<rect x="248.6" y="59.7" class="st15" width="0.8" height="0.7"/>
						<rect x="249.8" y="59.7" class="st15" width="0.8" height="0.7"/>
						<rect x="250.9" y="59.7" class="st15" width="0.8" height="0.7"/>
						<rect x="240.5" y="60.7" class="st15" width="0.8" height="0.7"/>
						<rect x="241.6" y="60.7" class="st15" width="0.8" height="0.7"/>
						<rect x="242.8" y="60.7" class="st15" width="0.8" height="0.7"/>
						<rect x="244" y="60.7" class="st15" width="0.8" height="0.7"/>
						<rect x="245.1" y="60.7" class="st15" width="0.8" height="0.7"/>
						<rect x="246.3" y="60.7" class="st15" width="0.8" height="0.7"/>
						<rect x="247.5" y="60.7" class="st15" width="0.8" height="0.7"/>
						<rect x="248.6" y="60.7" class="st15" width="0.8" height="0.7"/>
						<rect x="249.8" y="60.7" class="st15" width="0.8" height="0.7"/>
						<rect x="250.9" y="60.7" class="st15" width="0.8" height="0.7"/>
					</g>
					<rect x="214.1" y="52.5" class="st15" width="13.8" height="0.8"/>
					<g>
						<path class="st13" d="M223.8,52.4L223.8,52.4c-0.3,0-0.5-0.2-0.5-0.4l0.2-7c0-0.2,0.1-0.4,0.3-0.4l0,0c0.1,0,0.3,0.2,0.3,0.4
							l0.2,7C224.3,52.2,224.1,52.4,223.8,52.4z"/>
						<ellipse class="st14" cx="223.8" cy="48.8" rx="2.1" ry="2"/>
						<path class="st13" d="M221.8,52.7h4v0c0-0.4-0.3-0.7-0.7-0.7h-2.6C222.1,52,221.8,52.3,221.8,52.7L221.8,52.7z"/>
						<path class="st13" d="M224.9,47.4h-2.1c-0.3,0-0.5-0.2-0.5-0.5v0c0-0.3,0.2-0.5,0.5-0.5h2.1c0.3,0,0.5,0.2,0.5,0.5v0
							C225.4,47.2,225.1,47.4,224.9,47.4z"/>
						<path class="st15" d="M224.8,51.8h-2c-0.1,0-0.2,0.1-0.2,0.2l0,0c0,0.1,0.1,0.2,0.2,0.2h2c0.1,0,0.2-0.1,0.2-0.2l0,0
							C225,51.9,224.9,51.8,224.8,51.8z"/>
					</g>
				</g>
				<g>
					<path class="st13" d="M191.4,52.1c0.4-2.7,2.7-4.8,5.6-4.8h16.3c2.8,0,5.2,2.1,5.6,4.8H191.4z"/>
					<path class="st15" d="M213.2,48.1c2.1,0,3.8,1.3,4.5,3.2h-25.3c0.7-1.8,2.4-3.2,4.5-3.2H213.2 M213.2,46.4h-16.3
						c-3.6,0-6.4,2.9-6.4,6.4h29.2C219.7,49.3,216.8,46.4,213.2,46.4L213.2,46.4z"/>
				</g>
				<path class="st13" d="M189.9,63h-5.8V52.9h12.8V56C193,56,189.9,59.2,189.9,63z"/>
				<g>
					<path class="st13" d="M197.7,57.6v-8.1c0-4.3,3.5-7.8,7.8-7.8s7.8,3.5,7.8,7.8v8.1H197.7z"/>
					<g>
						<path class="st15" d="M205.5,42.5c3.9,0,7,3.1,7,7v7.3h-14v-7.3C198.5,45.7,201.7,42.5,205.5,42.5 M205.5,40.9
							c-4.8,0-8.7,3.9-8.7,8.7v8.9h17.3v-8.9C214.2,44.8,210.3,40.9,205.5,40.9L205.5,40.9z"/>
					</g>
				</g>
				
					<rect x="145.3" y="56" transform="matrix(-1 -4.399426e-011 4.399426e-011 -1 295.3188 118.5272)" class="st13" width="4.8" height="6.4"/>
				
					<rect x="144.6" y="55.5" transform="matrix(-1 -4.337387e-011 4.337387e-011 -1 295.3188 111.5781)" class="st15" width="6.2" height="0.5"/>
				
					<rect x="145" y="55" transform="matrix(-1 -4.275703e-011 4.275703e-011 -1 295.3188 110.3792)" class="st15" width="5.4" height="0.5"/>
				<g>
					
						<rect x="169.9" y="58.6" transform="matrix(-1 -5.081014e-011 5.081014e-011 -1 340.5646 117.9832)" class="st15" width="0.8" height="0.7"/>
					
						<rect x="168.7" y="58.6" transform="matrix(-1 -3.926205e-011 3.926205e-011 -1 338.2371 117.9832)" class="st15" width="0.8" height="0.7"/>
					
						<rect x="167.6" y="58.6" transform="matrix(-1 -5.081014e-011 5.081014e-011 -1 335.9096 117.9832)" class="st15" width="0.8" height="0.7"/>
					
						<rect x="166.4" y="58.6" transform="matrix(-1 -5.081014e-011 5.081014e-011 -1 333.582 117.9832)" class="st15" width="0.8" height="0.7"/>
					
						<rect x="165.2" y="58.6" transform="matrix(-1 -3.926205e-011 3.926205e-011 -1 331.2545 117.9832)" class="st15" width="0.8" height="0.7"/>
					
						<rect x="164.1" y="58.6" transform="matrix(-1 -3.695278e-011 3.695278e-011 -1 328.927 117.9832)" class="st15" width="0.8" height="0.7"/>
					
						<rect x="162.9" y="58.6" transform="matrix(-1 -3.926205e-011 3.926205e-011 -1 326.5995 117.9832)" class="st15" width="0.8" height="0.7"/>
					
						<rect x="161.7" y="58.6" transform="matrix(-1 -5.081014e-011 5.081014e-011 -1 324.2719 117.9832)" class="st15" width="0.8" height="0.7"/>
					
						<rect x="160.6" y="58.6" transform="matrix(-1 -5.081014e-011 5.081014e-011 -1 321.9444 117.9832)" class="st15" width="0.8" height="0.7"/>
					
						<rect x="159.4" y="58.6" transform="matrix(-1 -3.926205e-011 3.926205e-011 -1 319.6169 117.9832)" class="st15" width="0.8" height="0.7"/>
					
						<rect x="169.9" y="59.7" transform="matrix(-1 -3.695278e-011 3.695278e-011 -1 340.5646 120.0591)" class="st15" width="0.8" height="0.7"/>
					
						<rect x="168.7" y="59.7" transform="matrix(-1 -5.081014e-011 5.081014e-011 -1 338.2371 120.0591)" class="st15" width="0.8" height="0.7"/>
					
						<rect x="167.6" y="59.7" transform="matrix(-1 -5.081014e-011 5.081014e-011 -1 335.9096 120.0591)" class="st15" width="0.8" height="0.7"/>
					
						<rect x="166.4" y="59.7" transform="matrix(-1 -5.081014e-011 5.081014e-011 -1 333.582 120.0591)" class="st15" width="0.8" height="0.7"/>
					
						<rect x="165.2" y="59.7" transform="matrix(-1 -3.926205e-011 3.926205e-011 -1 331.2545 120.0591)" class="st15" width="0.8" height="0.7"/>
					
						<rect x="164.1" y="59.7" transform="matrix(-1 -3.695278e-011 3.695278e-011 -1 328.927 120.0591)" class="st15" width="0.8" height="0.7"/>
					
						<rect x="162.9" y="59.7" transform="matrix(-1 -3.695278e-011 3.695278e-011 -1 326.5995 120.0591)" class="st15" width="0.8" height="0.7"/>
					
						<rect x="161.7" y="59.7" transform="matrix(-1 -5.081014e-011 5.081014e-011 -1 324.2719 120.0591)" class="st15" width="0.8" height="0.7"/>
					
						<rect x="160.6" y="59.7" transform="matrix(-1 -6.466706e-011 6.466706e-011 -1 321.9444 120.0591)" class="st15" width="0.8" height="0.7"/>
					
						<rect x="159.4" y="59.7" transform="matrix(-1 -6.235780e-011 6.235780e-011 -1 319.6169 120.0591)" class="st15" width="0.8" height="0.7"/>
					
						<rect x="169.9" y="60.7" transform="matrix(-1 -3.926205e-011 3.926205e-011 -1 340.5646 122.1349)" class="st15" width="0.8" height="0.7"/>
					
						<rect x="168.7" y="60.7" transform="matrix(-1 -3.695278e-011 3.695278e-011 -1 338.2371 122.1349)" class="st15" width="0.8" height="0.7"/>
					
						<rect x="167.6" y="60.7" transform="matrix(-1 -3.926205e-011 3.926205e-011 -1 335.9096 122.1349)" class="st15" width="0.8" height="0.7"/>
					
						<rect x="166.4" y="60.7" transform="matrix(-1 -5.081014e-011 5.081014e-011 -1 333.582 122.1349)" class="st15" width="0.8" height="0.7"/>
					
						<rect x="165.2" y="60.7" transform="matrix(-1 -5.081014e-011 5.081014e-011 -1 331.2545 122.1349)" class="st15" width="0.8" height="0.7"/>
					
						<rect x="164.1" y="60.7" transform="matrix(-1 -3.926205e-011 3.926205e-011 -1 328.927 122.1349)" class="st15" width="0.8" height="0.7"/>
					
						<rect x="162.9" y="60.7" transform="matrix(-1 -5.081014e-011 5.081014e-011 -1 326.5995 122.1349)" class="st15" width="0.8" height="0.7"/>
					
						<rect x="161.7" y="60.7" transform="matrix(-1 -5.081014e-011 5.081014e-011 -1 324.2719 122.1349)" class="st15" width="0.8" height="0.7"/>
					
						<rect x="160.6" y="60.7" transform="matrix(-1 -5.081014e-011 5.081014e-011 -1 321.9444 122.1349)" class="st15" width="0.8" height="0.7"/>
					
						<rect x="159.4" y="60.7" transform="matrix(-1 -3.926205e-011 3.926205e-011 -1 319.6169 122.1349)" class="st15" width="0.8" height="0.7"/>
				</g>
				
					<rect x="183.3" y="52.5" transform="matrix(-1 -4.498414e-011 4.498414e-011 -1 380.3678 105.7945)" class="st15" width="13.8" height="0.8"/>
				<g>
					<path class="st13" d="M187.3,52.4L187.3,52.4c0.3,0,0.5-0.2,0.5-0.4l-0.2-7c0-0.2-0.1-0.4-0.3-0.4l0,0c-0.1,0-0.3,0.2-0.3,0.4
						l-0.2,7C186.9,52.2,187.1,52.4,187.3,52.4z"/>
					<ellipse class="st14" cx="187.3" cy="48.8" rx="2.1" ry="2"/>
					<path class="st13" d="M189.3,52.7h-4v0c0-0.4,0.3-0.7,0.7-0.7h2.6C189,52,189.3,52.3,189.3,52.7L189.3,52.7z"/>
					<path class="st13" d="M186.3,47.4h2.1c0.3,0,0.5-0.2,0.5-0.5v0c0-0.3-0.2-0.5-0.5-0.5h-2.1c-0.3,0-0.5,0.2-0.5,0.5v0
						C185.8,47.2,186,47.4,186.3,47.4z"/>
					<path class="st15" d="M186.3,51.8h2c0.1,0,0.2,0.1,0.2,0.2l0,0c0,0.1-0.1,0.2-0.2,0.2h-2c-0.1,0-0.2-0.1-0.2-0.2l0,0
						C186.1,51.9,186.2,51.8,186.3,51.8z"/>
				</g>
				<g>
					<path class="st13" d="M201.2,56.5v-6.4c0-2.4,2-4.4,4.4-4.4s4.4,2,4.4,4.4v6.4H201.2z"/>
					<g>
						<path class="st15" d="M205.5,46.3c2.1,0,3.9,1.7,3.9,3.9V56h-7.7v-5.9C201.7,48,203.4,46.3,205.5,46.3 M205.5,45.3
							c-2.7,0-4.9,2.2-4.9,4.9V57h9.7v-6.9C210.4,47.4,208.2,45.3,205.5,45.3L205.5,45.3z"/>
					</g>
				</g>
				<ellipse class="st14" cx="205.6" cy="50.6" rx="1.8" ry="1.7"/>
			</g>
			<path class="st29" d="M138.6,64.1h52.2c0-3.3,6.6-6,14.8-6s14.8,2.7,14.8,6h52.4"/>
			<path class="st30" d="M137.1,63h53.4c0-3.3,6.8-6,15.2-6c8.4,0,15.2,2.7,15.2,6h53.6"/>
			
				<rect x="183.1" y="114" transform="matrix(-1 -4.404400e-011 4.404400e-011 -1 372.9599 229.093)" class="st15" width="6.8" height="1"/>
			
				<rect x="221.1" y="114" transform="matrix(-1 -4.431090e-011 4.431090e-011 -1 449.044 229.093)" class="st15" width="6.8" height="1"/>
			
				<rect x="184.4" y="117.6" transform="matrix(-1 -4.690349e-011 4.690349e-011 -1 373.2478 273.1355)" class="st14" width="4.5" height="38"/>
			
				<rect x="183.8" y="155.6" transform="matrix(-1 -4.541135e-011 4.541135e-011 -1 373.2478 312.214)" class="st18" width="5.7" height="1.1"/>
			
				<rect x="184.1" y="156.7" transform="matrix(-1 -4.570756e-011 4.570756e-011 -1 373.2478 322.9041)" class="st15" width="5.1" height="9.6"/>
			
				<rect x="222.3" y="117.6" transform="matrix(-1 -4.447743e-011 4.447743e-011 -1 449.044 273.1355)" class="st14" width="4.5" height="38"/>
			
				<rect x="221.7" y="155.6" transform="matrix(-1 -4.541135e-011 4.541135e-011 -1 449.044 312.214)" class="st18" width="5.7" height="1.1"/>
			
				<rect x="222" y="156.7" transform="matrix(-1 -4.534785e-011 4.534785e-011 -1 449.044 322.9041)" class="st15" width="5.1" height="9.6"/>
			<g>
				
					<rect x="156.2" y="125.3" transform="matrix(-1 -4.481050e-011 4.481050e-011 -1 329.7903 279.2114)" class="st14" width="17.4" height="28.6"/>
				
					<rect x="158.9" y="128.9" transform="matrix(-1 -4.455071e-011 4.455071e-011 -1 329.7903 282.808)" class="st25" width="11.9" height="25"/>
				<g>
					
						<rect x="165.3" y="130.4" transform="matrix(-1 -4.551704e-011 4.551704e-011 -1 334.8856 266.5565)" class="st28" width="4.2" height="5.8"/>
					
						<rect x="165.3" y="137.4" transform="matrix(-1 -4.508361e-011 4.508361e-011 -1 334.8856 278.9019)" class="st28" width="4.2" height="4.1"/>
					
						<rect x="165.3" y="142.9" transform="matrix(-1 -4.768464e-011 4.768464e-011 -1 334.8856 289.8903)" class="st28" width="4.2" height="4.1"/>
					
						<rect x="165.3" y="148.4" transform="matrix(-1 -4.291601e-011 4.291601e-011 -1 334.8856 300.8787)" class="st28" width="4.2" height="4.1"/>
					
						<rect x="160.2" y="130.4" transform="matrix(-1 -4.551704e-011 4.551704e-011 -1 324.6951 266.5565)" class="st28" width="4.2" height="5.8"/>
					
						<rect x="160.2" y="137.4" transform="matrix(-1 -4.291601e-011 4.291601e-011 -1 324.6951 278.9019)" class="st28" width="4.2" height="4.1"/>
					
						<rect x="160.2" y="142.9" transform="matrix(-1 -4.551704e-011 4.551704e-011 -1 324.6951 289.8903)" class="st28" width="4.2" height="4.1"/>
					
						<rect x="160.2" y="148.4" transform="matrix(-1 -4.508361e-011 4.508361e-011 -1 324.6951 300.8787)" class="st28" width="4.2" height="4.1"/>
				</g>
				
					<rect x="155.2" y="153.9" transform="matrix(-1 -4.526791e-011 4.526791e-011 -1 329.7903 309.4499)" class="st15" width="19.4" height="1.7"/>
				
					<rect x="155.9" y="155.6" transform="matrix(-1 -4.442325e-011 4.442325e-011 -1 329.7903 312.214)" class="st18" width="18" height="1.1"/>
			</g>
			<g>
				
					<rect x="197" y="125.3" transform="matrix(-1 -4.481050e-011 4.481050e-011 -1 411.3151 279.2114)" class="st14" width="17.4" height="28.6"/>
				
					<rect x="199.6" y="128.9" transform="matrix(-1 -4.531365e-011 4.531365e-011 -1 411.0793 282.808)" class="st25" width="11.9" height="25"/>
				<g>
					
						<rect x="206" y="130.4" transform="matrix(-1 -4.291601e-011 4.291601e-011 -1 416.1745 266.5565)" class="st28" width="4.2" height="5.8"/>
					
						<rect x="206" y="137.4" transform="matrix(-1 -4.768464e-011 4.768464e-011 -1 416.1745 278.9019)" class="st28" width="4.2" height="4.1"/>
					
						<rect x="206" y="142.9" transform="matrix(-1 -4.551704e-011 4.551704e-011 -1 416.1745 289.8903)" class="st28" width="4.2" height="4.1"/>
					
						<rect x="206" y="148.4" transform="matrix(-1 -4.508361e-011 4.508361e-011 -1 416.1745 300.8787)" class="st28" width="4.2" height="4.1"/>
					
						<rect x="200.9" y="130.4" transform="matrix(-1 -4.508361e-011 4.508361e-011 -1 405.984 266.5565)" class="st28" width="4.2" height="5.8"/>
					
						<rect x="200.9" y="137.4" transform="matrix(-1 -4.291601e-011 4.291601e-011 -1 405.984 278.9019)" class="st28" width="4.2" height="4.1"/>
					
						<rect x="200.9" y="142.9" transform="matrix(-1 -4.508361e-011 4.508361e-011 -1 405.984 289.8903)" class="st28" width="4.2" height="4.1"/>
					
						<rect x="200.9" y="148.4" transform="matrix(-1 -4.508361e-011 4.508361e-011 -1 405.984 300.8787)" class="st28" width="4.2" height="4.1"/>
				</g>
				
					<rect x="195.8" y="153.9" transform="matrix(-1 -4.470658e-011 4.470658e-011 -1 411.1459 309.4499)" class="st15" width="19.4" height="1.7"/>
				
					<rect x="196.5" y="155.6" transform="matrix(-1 -4.502899e-011 4.502899e-011 -1 411.1126 312.214)" class="st18" width="18" height="1.1"/>
			</g>
			<g>
				
					<rect x="238.1" y="125.3" transform="matrix(-1 -4.481050e-011 4.481050e-011 -1 493.5408 279.2114)" class="st14" width="17.4" height="28.6"/>
				
					<rect x="240.7" y="128.9" transform="matrix(-1 -4.439838e-011 4.439838e-011 -1 493.305 282.808)" class="st25" width="11.9" height="25"/>
				<g>
					
						<rect x="247.1" y="130.4" transform="matrix(-1 -4.768464e-011 4.768464e-011 -1 498.4003 266.5565)" class="st28" width="4.2" height="5.8"/>
					
						<rect x="247.1" y="137.4" transform="matrix(-1 -4.551704e-011 4.551704e-011 -1 498.4003 278.9019)" class="st28" width="4.2" height="4.1"/>
					
						<rect x="247.1" y="142.9" transform="matrix(-1 -4.291601e-011 4.291601e-011 -1 498.4003 289.8903)" class="st28" width="4.2" height="4.1"/>
					
						<rect x="247.1" y="148.4" transform="matrix(-1 -4.291601e-011 4.291601e-011 -1 498.4003 300.8787)" class="st28" width="4.2" height="4.1"/>
					
						<rect x="242" y="130.4" transform="matrix(-1 -4.248258e-011 4.248258e-011 -1 488.2098 266.5565)" class="st28" width="4.2" height="5.8"/>
					
						<rect x="242" y="137.4" transform="matrix(-1 -4.508361e-011 4.508361e-011 -1 488.2098 278.9019)" class="st28" width="4.2" height="4.1"/>
					
						<rect x="242" y="142.9" transform="matrix(-1 -4.768464e-011 4.768464e-011 -1 488.2098 289.8903)" class="st28" width="4.2" height="4.1"/>
					
						<rect x="242" y="148.4" transform="matrix(-1 -4.551704e-011 4.551704e-011 -1 488.2098 300.8787)" class="st28" width="4.2" height="4.1"/>
				</g>
				
					<rect x="237" y="153.9" transform="matrix(-1 -4.470658e-011 4.470658e-011 -1 493.3716 309.4499)" class="st15" width="19.4" height="1.7"/>
				
					<rect x="237.7" y="155.6" transform="matrix(-1 -4.502899e-011 4.502899e-011 -1 493.3383 312.214)" class="st18" width="18" height="1.1"/>
			</g>
			<path class="st14" d="M110.6,112.7v2.6h16.1v-2.6h-4.4l-1-1.4c-0.4-0.6-1-1-1.7-1.2l0,0c-0.6-0.2-1.2-0.2-1.8,0l0,0
				c-0.7,0.2-1.3,0.6-1.7,1.2l-1,1.4H110.6z"/>
			<circle class="st15" cx="118.7" cy="113" r="1.2"/>
			
				<rect x="108.6" y="112.2" transform="matrix(-1 -4.420343e-011 4.420343e-011 -1 219.4558 233.8238)" class="st15" width="2.2" height="9.4"/>
			
				<rect x="125" y="112.2" transform="matrix(-1 -4.502233e-011 4.502233e-011 -1 252.2737 233.8238)" class="st15" width="2.2" height="9.4"/>
			
				<rect x="86.9" y="114.9" transform="matrix(-1 -4.451029e-011 4.451029e-011 -1 196.0895 230.8583)" class="st15" width="22.2" height="1"/>
			
				<rect x="87.4" y="120" transform="matrix(-1 -4.481982e-011 4.481982e-011 -1 231.9716 240.422)" class="st15" width="57.1" height="0.5"/>
			
				<rect x="127" y="114.9" transform="matrix(-1 -4.498192e-011 4.498192e-011 -1 270.9888 230.8583)" class="st15" width="16.9" height="1"/>
			
				<rect x="88.7" y="142.7" transform="matrix(-1 -4.507784e-011 4.507784e-011 -1 224.1799 286.5578)" class="st15" width="46.8" height="1.1"/>
			<g>
				
					<rect x="135.2" y="134.8" transform="matrix(-1 -4.518575e-011 4.518575e-011 -1 280.1465 285.4951)" class="st14" width="9.7" height="16"/>
				
					<rect x="136.7" y="136.8" transform="matrix(-1 -4.636437e-011 4.636437e-011 -1 280.1465 287.5072)" class="st16" width="6.7" height="14"/>
				<g>
					
						<rect x="140.3" y="137.6" transform="matrix(-1 -4.339474e-011 4.339474e-011 -1 282.9969 278.4157)" class="st17" width="2.3" height="3.2"/>
					
						<rect x="140.3" y="141.5" transform="matrix(-1 -4.261981e-011 4.261981e-011 -1 282.9969 285.3221)" class="st17" width="2.3" height="2.3"/>
					
						<rect x="140.3" y="144.6" transform="matrix(-1 -4.261981e-011 4.261981e-011 -1 282.9969 291.4691)" class="st17" width="2.3" height="2.3"/>
					
						<rect x="140.3" y="147.7" transform="matrix(-1 -4.649449e-011 4.649449e-011 -1 282.9969 297.6162)" class="st17" width="2.3" height="2.3"/>
					
						<rect x="137.5" y="137.6" transform="matrix(-1 -4.339474e-011 4.339474e-011 -1 277.2961 278.4157)" class="st17" width="2.3" height="3.2"/>
					
						<rect x="137.5" y="141.5" transform="matrix(-1 -4.649449e-011 4.649449e-011 -1 277.2961 285.3221)" class="st17" width="2.3" height="2.3"/>
					
						<rect x="137.5" y="144.6" transform="matrix(-1 -4.261981e-011 4.261981e-011 -1 277.2961 291.4691)" class="st17" width="2.3" height="2.3"/>
					
						<rect x="137.5" y="147.7" transform="matrix(-1 -4.261981e-011 4.261981e-011 -1 277.2961 297.6162)" class="st17" width="2.3" height="2.3"/>
				</g>
				
					<rect x="134.6" y="150.7" transform="matrix(-1 -4.413770e-011 4.413770e-011 -1 280.1465 302.4112)" class="st15" width="10.9" height="0.9"/>
				
					<rect x="135" y="151.7" transform="matrix(-1 -4.475810e-011 4.475810e-011 -1 280.1465 303.9575)" class="st18" width="10.1" height="0.6"/>
			</g>
			<polygon class="st19" points="140.1,115.2 138.9,125.9 136.9,129.4 138.6,129.4 136.7,160.7 143.4,160.7 143.4,115 			"/>
			<g>
				
					<rect x="114.4" y="134.8" transform="matrix(-1 -4.518575e-011 4.518575e-011 -1 238.4519 285.4951)" class="st14" width="9.7" height="16"/>
				
					<rect x="115.9" y="136.8" transform="matrix(-1 -4.500057e-011 4.500057e-011 -1 238.4519 287.5072)" class="st16" width="6.7" height="14"/>
				<g>
					
						<rect x="119.5" y="137.6" transform="matrix(-1 -4.261981e-011 4.261981e-011 -1 241.3023 278.4157)" class="st17" width="2.3" height="3.2"/>
					
						<rect x="119.5" y="141.5" transform="matrix(-1 -4.649449e-011 4.649449e-011 -1 241.3023 285.3221)" class="st17" width="2.3" height="2.3"/>
					
						<rect x="119.5" y="144.6" transform="matrix(-1 -4.726942e-011 4.726942e-011 -1 241.3023 291.4691)" class="st17" width="2.3" height="2.3"/>
					
						<rect x="119.5" y="147.7" transform="matrix(-1 -4.261981e-011 4.261981e-011 -1 241.3023 297.6162)" class="st17" width="2.3" height="2.3"/>
					
						<rect x="116.6" y="137.6" transform="matrix(-1 -4.261981e-011 4.261981e-011 -1 235.6015 278.4157)" class="st17" width="2.3" height="3.2"/>
					
						<rect x="116.6" y="141.5" transform="matrix(-1 -4.726942e-011 4.726942e-011 -1 235.6015 285.3221)" class="st17" width="2.3" height="2.3"/>
					
						<rect x="116.6" y="144.6" transform="matrix(-1 -4.726942e-011 4.726942e-011 -1 235.6015 291.4691)" class="st17" width="2.3" height="2.3"/>
					
						<rect x="116.6" y="147.7" transform="matrix(-1 -4.261981e-011 4.261981e-011 -1 235.6015 297.6162)" class="st17" width="2.3" height="2.3"/>
				</g>
				
					<rect x="113.8" y="150.7" transform="matrix(-1 -4.497348e-011 4.497348e-011 -1 238.4519 302.4112)" class="st15" width="10.9" height="0.9"/>
				
					<rect x="114.2" y="151.7" transform="matrix(-1 -4.548019e-011 4.548019e-011 -1 238.4519 303.9575)" class="st18" width="10.1" height="0.6"/>
			</g>
			<g>
				
					<rect x="93.5" y="134.8" transform="matrix(-1 -4.518575e-011 4.518575e-011 -1 196.7573 285.4951)" class="st14" width="9.7" height="16"/>
				
					<rect x="95" y="136.8" transform="matrix(-1 -4.500057e-011 4.500057e-011 -1 196.7573 287.5072)" class="st16" width="6.7" height="14"/>
				<g>
					
						<rect x="98.6" y="137.6" transform="matrix(-1 -4.261981e-011 4.261981e-011 -1 199.6077 278.4157)" class="st17" width="2.3" height="3.2"/>
					
						<rect x="98.6" y="141.5" transform="matrix(-1 -4.261981e-011 4.261981e-011 -1 199.6077 285.3221)" class="st17" width="2.3" height="2.3"/>
					
						<rect x="98.6" y="144.6" transform="matrix(-1 -4.649449e-011 4.649449e-011 -1 199.6077 291.4691)" class="st17" width="2.3" height="2.3"/>
					
						<rect x="98.6" y="147.7" transform="matrix(-1 -4.261981e-011 4.261981e-011 -1 199.6077 297.6162)" class="st17" width="2.3" height="2.3"/>
					
						<rect x="95.8" y="137.6" transform="matrix(-1 -4.261981e-011 4.261981e-011 -1 193.9069 278.4157)" class="st17" width="2.3" height="3.2"/>
					
						<rect x="95.8" y="141.5" transform="matrix(-1 -4.649449e-011 4.649449e-011 -1 193.9069 285.3221)" class="st17" width="2.3" height="2.3"/>
					
						<rect x="95.8" y="144.6" transform="matrix(-1 -3.797019e-011 3.797019e-011 -1 193.9069 291.4691)" class="st17" width="2.3" height="2.3"/>
					
						<rect x="95.8" y="147.7" transform="matrix(-1 -4.261981e-011 4.261981e-011 -1 193.9069 297.6162)" class="st17" width="2.3" height="2.3"/>
				</g>
				
					<rect x="92.9" y="150.7" transform="matrix(-1 -4.497348e-011 4.497348e-011 -1 196.7573 302.4112)" class="st15" width="10.9" height="0.9"/>
				
					<rect x="93.3" y="151.7" transform="matrix(-1 -4.475810e-011 4.475810e-011 -1 196.7573 303.9575)" class="st18" width="10.1" height="0.6"/>
			</g>
			
				<rect x="142.6" y="114" transform="matrix(-1 -4.579815e-011 4.579815e-011 -1 288.7913 280.2936)" class="st14" width="3.5" height="52.2"/>
			
				<rect x="264.9" y="114" transform="matrix(-1 -4.579815e-011 4.579815e-011 -1 533.3006 280.2936)" class="st14" width="3.5" height="52.2"/>
			
				<rect x="87.4" y="115.9" transform="matrix(-1 -4.711133e-011 4.711133e-011 -1 177.1858 276.612)" class="st14" width="2.3" height="44.7"/>
			<polygon class="st19" points="222.2,114.5 184.4,143.8 184.4,114.5 			"/>
			<polygon class="st19" points="174.6,155.6 170.9,166.2 151.3,166.2 155.2,155.6 			"/>
			<polygon class="st19" points="124.7,151.7 122.6,160.6 112,160.6 114.1,151.7 			"/>
			<polygon class="st19" points="103.8,151.7 101.8,160.6 91.2,160.6 93.3,151.7 			"/>
			<polygon class="st19" points="215.1,155.6 211.4,166.2 191.8,166.2 195.7,155.6 			"/>
			<polygon class="st19" points="256.4,155.6 252.6,166.2 233,166.2 237,155.6 			"/>
			<polygon class="st19" points="254.1,105.8 251.7,112.2 237,112.2 239.1,105.8 			"/>
			<polygon class="st19" points="172.7,105.8 170.4,112.2 155.7,112.2 157.7,105.8 			"/>
			<polygon class="st19" points="317.8,151.7 315.8,160.6 305.1,160.6 307.3,151.7 			"/>
			<polygon class="st19" points="297,151.7 294.9,160.6 284.3,160.6 286.4,151.7 			"/>
		</g>
		<path class="st31" d="M331.2,161.9c0-1.9-1.5-3.4-3.4-3.4c-0.2,0-0.5,0-0.7,0.1c0,0,0,0,0-0.1c0-1.9-1.5-3.4-3.4-3.4
			c-1.4,0-2.6,0.8-3.1,2c-0.3-0.3-0.8-0.5-1.3-0.5c-0.8,0-1.6,0.5-1.9,1.3c-0.8-0.7-1.9-1.1-3.1-1.1c-0.7,0-1.4,0.2-2,0.4
			c-0.1-1.8-1.5-3.3-3.4-3.3c-1.3,0-2.4,0.7-3,1.8c-0.3-0.3-0.8-0.4-1.3-0.4c-1.1,0-2,0.9-2,2c0,0.3,0.1,0.6,0.2,0.8
			c-0.5-0.4-1.2-0.6-1.9-0.6c-0.8,0-1.5,0.3-2,0.7c-0.1-2.7-2.3-4.8-5-4.8c-2.3,0-4.3,1.6-4.8,3.8c-0.4-0.4-0.9-0.6-1.5-0.6
			c-1.1,0-2,0.9-2,2c0,0.3,0.1,0.6,0.2,0.8c-0.3-0.1-0.5-0.1-0.8-0.1c-0.7,0-1.3,0.2-1.8,0.5c0.2-0.4,0.2-0.8,0.2-1.2
			c0-1.9-1.5-3.4-3.4-3.4c-0.9,0-1.7,0.4-2.3,0.9c-0.7-1.8-2.5-3.1-4.6-3.1c-2.7,0-5,2.2-5,5v3.6"/>
		<path class="st31" d="M142.7,161.3c0-1.9-1.5-3.4-3.4-3.4c-0.2,0-0.5,0-0.7,0.1c0,0,0,0,0-0.1c0-1.9-1.5-3.4-3.4-3.4
			c-1.4,0-2.6,0.8-3.1,2c-0.3-0.3-0.8-0.5-1.3-0.5c-0.8,0-1.6,0.5-1.9,1.3c-0.8-0.7-1.9-1.1-3.1-1.1c-0.7,0-1.4,0.2-2,0.4
			c-0.1-1.8-1.5-3.3-3.4-3.3c-1.3,0-2.4,0.7-3,1.8c-0.3-0.3-0.8-0.4-1.3-0.4c-1.1,0-2,0.9-2,2c0,0.3,0.1,0.6,0.2,0.8
			c-0.5-0.4-1.2-0.6-1.9-0.6c-0.8,0-1.5,0.3-2,0.7c-0.1-2.7-2.3-4.8-5-4.8c-2.3,0-4.3,1.6-4.8,3.8c-0.4-0.4-0.9-0.6-1.5-0.6
			c-1.1,0-2,0.9-2,2c0,0.3,0.1,0.6,0.2,0.8c-0.3-0.1-0.5-0.1-0.8-0.1c-0.7,0-1.3,0.2-1.8,0.5c0.2-0.4,0.2-0.8,0.2-1.2
			c0-1.9-1.5-3.4-3.4-3.4c-0.9,0-1.7,0.4-2.3,0.9c-0.7-1.8-2.5-3.1-4.6-3.1c-2.7,0-5,2.2-5,5v3.6"/>
		<path class="st32" d="M142.2,160.8c0.4,0,0.8,0,1.1,0.1c0,0,0-0.1,0-0.1c0-3,2.4-5.4,5.4-5.4c2.2,0,4.2,1.4,5,3.3
			c0.6-0.5,1.3-0.7,2.1-0.7c1.4,0,2.6,0.8,3.1,2c1.4-1.1,3.1-1.7,5-1.7c1.2,0,2.3,0.3,3.3,0.7c0.1-2.9,2.5-5.3,5.4-5.3
			c1,0,1.9,0.3,2.7,0.7c1.4-1.3,3.3-2.1,5.4-2.1c3.4,0,6.2,2.1,7.4,5c0.7-0.6,1.5-1.1,2.4-1.3c1.5-1.9,3.8-3.2,6.4-3.2
			c3.4,0,6.3,2.1,7.5,5.2c0.4,0,0.8,0.1,1.2,0.3c0.4-0.2,0.8-0.3,1.2-0.3c1.2-3,4.1-5.2,7.5-5.2c2.6,0,4.9,1.3,6.4,3.2
			c0.9,0.2,1.7,0.7,2.4,1.3c1.2-2.9,4.1-5,7.4-5c2.1,0,3.9,0.8,5.4,2.1c0.8-0.5,1.7-0.7,2.7-0.7c3,0,5.4,2.4,5.4,5.3
			c1-0.5,2.1-0.7,3.3-0.7c1.9,0,3.6,0.7,5,1.7c0.5-1.2,1.7-2,3.1-2c0.8,0,1.5,0.3,2.1,0.7c0.8-1.9,2.8-3.3,5-3.3
			c3,0,5.4,2.4,5.4,5.4c0,0,0,0.1,0,0.1c0.4-0.1,0.7-0.1,1.1-0.1c3,0,5.4,2.4,5.4,5.4h-35.9h-65.9h-35.9
			C136.7,163.2,139.2,160.8,142.2,160.8z"/>
		<polygon class="st19" points="249.4,64.8 226.9,98.8 226.9,64.7 		"/>
		<polygon class="st19" points="167.5,64.8 145,98.8 145,64.7 		"/>
	</g>
	<g>
		<g>
			<path class="st6" d="M254.9,54.2c0.4-7.6,4.6-19.9,10.6-27.7c3.3-4.2,4.8-8.3,4.8-10.8c0-8.7-7-15.7-15.5-15.7h0
				c-8.6,0-15.5,7-15.5,15.7c0,2.5,1.5,6.6,4.8,10.8c6.1,7.8,10.2,20.1,10.6,27.7H254.9z"/>
		</g>
		<circle class="st34" cx="254.8" cy="15.1" r="6.6"/>
	</g>
	<g>
		<g>
			<g>
				<rect x="328.8" y="105.4" class="st14" width="13.3" height="1.4"/>
				<polygon class="st15" points="329.7,105.4 331.2,102.7 330.7,102.7 331.1,91.2 330.5,87.3 331.2,86.1 330.5,82.9 331.7,81.9 
					330.4,79.9 331.1,78.3 330.2,76.3 329.2,75.2 330.4,71.8 329.5,64.8 329.1,64 329.2,63.5 329.1,63.1 329.1,63 329.1,62.8 
					329.2,62.4 329.3,62.3 329.4,61.7 328.3,61 328.7,59.6 331.1,59.6 331.7,61 330.5,61.7 330.5,62.4 331.1,63.6 331.2,64.4 
					330.9,65 332.4,71.7 333.5,74.2 333.8,73 333.8,72 333.8,71.8 333.6,70.7 334.6,69.9 335.9,69.5 336.9,69.8 337.8,70.5 
					338,71.2 337.9,72.1 338.1,72.8 338,73.2 338.1,73.9 338.1,75 338.8,76.7 339.8,77.5 340.9,80.4 341.9,81.2 343.2,84.9 
					342.9,88.3 341.6,89.2 342.2,95.5 341.8,95.7 341.9,96.7 341.3,97.2 341.5,100.3 341,101 341.5,105.4 				"/>
				<polyline class="st15" points="337.3,76.2 337.1,74.2 334.7,74.3 334.6,75.2 335.5,75.9 337.3,76.5 337.3,76.2 				"/>
				<polyline class="st13" points="337.9,71.8 340.6,71.5 337.9,71.1 337.9,71.8 				"/>
				<polyline class="st13" points="337.8,71 340.2,69.8 337.5,70.4 337.8,71 				"/>
				<polyline class="st13" points="337.1,70.3 338.5,68 336.5,70 337.1,70.3 				"/>
				<polyline class="st13" points="336.3,69.6 335.7,66.9 335.6,69.7 336.3,69.6 				"/>
				<polyline class="st14" points="335.1,70.2 333,68.5 334.7,70.7 335.1,70.2 				"/>
				<polyline class="st14" points="334.7,70.9 332.1,70.3 334.5,71.5 334.7,70.9 				"/>
				<polyline class="st14" points="334.6,71.4 331.9,71.6 334.6,72 334.6,71.4 				"/>
				<polyline class="st18" points="333.8,73 334.2,73 334.6,72.4 335.7,71.1 337.3,72.4 338,73.2 338.1,72.8 337.9,72.1 338,71.2 
					337.8,70.5 336.9,69.8 335.9,69.5 334.6,69.9 333.6,70.7 333.8,71.8 333.8,73 				"/>
				<polyline class="st14" points="333.8,72 334.9,70.8 335.9,70.6 336.9,70.8 337.9,72 338,71.2 337.1,70.4 336,70 334.7,70.4 
					333.7,71.4 333.8,72 				"/>
				<polyline class="st14" points="334.6,75.2 334.7,74.4 334.6,73.8 334.1,74.8 334.6,75.2 				"/>
				<polyline class="st14" points="337.3,74.2 338.1,76.5 337.3,76.2 337.1,74.4 337.3,74.2 				"/>
				<polygon class="st18" points="337.3,72.4 337.3,74.2 336.8,74.8 335.7,74.8 335.7,71.1 				"/>
				<polygon class="st14" points="334.6,72.4 334.6,74.2 335,74.8 335.7,74.8 335.7,71.1 				"/>
				<polyline class="st14" points="330.2,56.5 329.7,57.9 329.5,57.4 329.5,58.3 329.2,58.5 329.1,58.9 329.3,59.3 330,59.3 				"/>
				<polygon class="st15" points="331,57.5 331,57.5 331.1,58.2 330.8,58.7 330.5,59.3 330,59.3 330.2,56.6 330.4,57.4 330.6,56.9 
					330.7,57.5 330.8,57.2 				"/>
				<rect x="329.3" y="59.3" class="st14" width="1.2" height="0.3"/>
				<polyline class="st13" points="330,59.6 330,61 331.7,61 331.1,59.6 330,59.6 				"/>
				<polyline class="st14" points="328.3,61 331.7,61 330,62.1 328.3,61 				"/>
				<polygon class="st13" points="332.4,71.8 330.9,65 331.2,64.4 331.1,63.6 330.5,62.4 330.2,62.2 330.1,62.7 330.4,63.3 
					329.5,64.8 				"/>
				<polyline class="st14" points="330.4,71.8 330.7,74.2 332.4,71.7 329.5,64.8 330.4,71.8 				"/>
				<rect x="329.5" y="61.7" class="st14" width="0.8" height="4"/>
				<polyline class="st13" points="329.5,64.7 329.5,64.1 330,64.1 330.2,63.9 330,63.7 329.5,63.7 329.6,63.6 330.1,63.6 
					330.2,63.5 330.1,63.2 329.5,63.2 329.5,62.9 330,62.9 330,62.7 329.8,62.6 329.3,62.3 329.2,62.4 329.1,62.8 329.1,63 
					329.1,63.1 329.2,63.5 329.1,64 329.5,64.7 				"/>
				<polyline class="st13" points="333.2,73.5 330.2,76.3 331.1,78.3 333.5,74.2 333.2,73.5 				"/>
				<polygon class="st18" points="334.1,74.8 331.7,81.9 330.4,79.9 333.5,74.2 				"/>
				<polygon class="st13" points="337.3,76.5 331.7,81.9 334.1,74.8 335.5,75.9 				"/>
				<polyline class="st13" points="337.8,77.2 330.5,87.3 331.1,91.2 337.8,77.2 				"/>
				<polyline class="st14" points="338.4,77.4 338.8,76.7 337.3,76.2 337.3,76.5 337.8,77.2 338.4,77.4 				"/>
				<polyline class="st15" points="343.1,85.7 344,85.4 343.9,84.3 343.7,84 343.2,84.9 343.1,85.7 				"/>
				<polyline class="st14" points="341.6,89.3 339.8,77.5 340.9,80.4 341.9,81.2 343.2,84.9 342.9,88.3 341.6,89.3 				"/>
				<polyline class="st18" points="331.1,91.2 337.8,77.2 338.4,77.4 340,82.2 331,95.7 331.1,91.2 				"/>
				<polyline class="st13" points="340.4,95.2 341.3,94.8 340,82.2 339.1,83.4 337.8,96.7 340.4,95.2 				"/>
				<polyline class="st14" points="335.4,89 331,95.7 330.7,102.7 335.4,89 				"/>
				<polyline class="st14" points="337.8,85.5 335.4,89 330.7,102.7 331.2,102.7 337.8,85.5 				"/>
				<polyline class="st13" points="337.8,85.5 331.2,102.7 338.1,98.2 337.1,97.2 337.8,85.5 				"/>
				<polyline class="st14" points="337.1,97.2 337.8,85.5 339.1,83.4 337.8,96.7 337.1,97.2 				"/>
				<polyline class="st15" points="341.5,105.4 331.2,102.7 338.1,98.2 337.1,97.2 340.4,95.2 341.5,105.4 				"/>
				<polyline class="st13" points="341.2,86.9 341.8,87.3 345.5,81.2 342.9,79.7 340.6,83 341.2,86.9 				"/>
				<polygon class="st14" points="343.8,84.4 343.4,83.8 343.6,83.5 344.1,84 344.3,83.9 343.6,83.3 343.8,83 344.3,83.5 
					344.4,83.5 343.9,82.8 344.2,82.7 344.8,83.4 344.9,83.2 344.7,82.7 344.3,82.4 344.5,82.1 345,82.5 345.4,83.5 344,85.4 
					343.7,84.6 				"/>
			</g>
			<g>
				<polygon class="st35" points="320.6,112.2 354.6,112.2 352.8,107.7 337.6,104.1 322.4,107.7 				"/>
				
					<rect x="318.6" y="112.2" transform="matrix(-1 4.484756e-011 -4.484756e-011 -1 674.6197 226.6398)" class="st36" width="37.5" height="2.2"/>
				
					<rect x="321" y="114.4" transform="matrix(-1 4.475563e-011 -4.475563e-011 -1 674.6197 230.9701)" class="st37" width="32.6" height="2.2"/>
				
					<rect x="322.3" y="116.6" transform="matrix(-1 4.487598e-011 -4.487598e-011 -1 674.6197 235.3004)" class="st35" width="30.1" height="2.2"/>
				
					<rect x="318.6" y="154.9" transform="matrix(-1 4.509003e-011 -4.509003e-011 -1 674.6197 311.9077)" class="st36" width="37.5" height="2.2"/>
				
					<rect x="321" y="152.7" transform="matrix(-1 4.447630e-011 -4.447630e-011 -1 674.6197 307.5773)" class="st37" width="32.6" height="2.2"/>
				
					<rect x="322.3" y="150.5" transform="matrix(-1 4.487598e-011 -4.487598e-011 -1 674.6197 303.247)" class="st35" width="30.1" height="2.2"/>
				
					<rect x="323.7" y="118.7" transform="matrix(-1 4.505451e-011 -4.505451e-011 -1 674.226 269.2737)" class="st36" width="26.8" height="31.8"/>
				
					<rect x="323.7" y="118.7" transform="matrix(-1 4.473743e-011 -4.473743e-011 -1 660.9988 269.2737)" class="st4" width="13.6" height="31.8"/>
				
					<rect x="316.1" y="157" transform="matrix(-1 4.498123e-011 -4.498123e-011 -1 673.7536 324.7805)" class="st35" width="41.6" height="10.7"/>
				
					<rect x="316.1" y="157" transform="matrix(-1 4.527699e-011 -4.527699e-011 -1 645.8821 324.7805)" class="st4" width="13.7" height="10.7"/>
				<polygon class="st38" points="332.2,131.4 332.2,125.2 326,125.2 				"/>
				<polygon class="st37" points="342.4,131.4 342.4,125.2 348.6,125.2 				"/>
				
					<rect x="336.3" y="159.7" transform="matrix(-1 4.562294e-011 -4.562294e-011 -1 688.2737 322.6208)" class="st37" width="15.6" height="3.2"/>
				
					<rect x="340.6" y="164.2" transform="matrix(-1 4.341360e-011 -4.341360e-011 -1 688.2737 329.3524)" class="st39" width="7.2" height="0.9"/>
				
					<rect x="320.1" y="159.4" transform="matrix(-1 4.387945e-011 -4.387945e-011 -1 645.7185 324.3135)" class="st36" width="5.5" height="5.5"/>
			</g>
		</g>
		<polygon class="st40" points="344,105.4 322.3,167.7 316.1,167.7 316.1,157 323.6,149.4 323.7,118.7 318.6,112.2 322.4,107.7 
			337.6,104.1 		"/>
	</g>
</g>
</svg>
